<?xml version="1.0" encoding="UTF-8"?>
<svg xmlns="http://www.w3.org/2000/svg" viewBox="0 0 1397.99 783.22">
  <defs>
    <style>
      .cls-1 {
        fill: #fff;
      }

      .cls-2 {
        fill: none;
        stroke: #fff;
        stroke-miterlimit: 10;
        stroke-width: 5px;
      }
    </style>
  </defs>
  <g id="Layer_1" data-name="Layer 1">
    <g>
      <path class="cls-1" d="M235.46,355.51c1.1,9.6,1.1,19.3,2.8,28.8-.4.7-.9,1.3-1.6,1.7-.9.3-1.8.1-2.6,0-2-1.5-2.7-3.5-3.1-5.8-.4-2.3-.5-4.6-1.2-6.8-1.1-3.3-.8-6.8-1.3-10.2-.3-2-.4-4.1-1-6.1-4.2-.8-16.4,1.4-21.7,4-1,1.1-1.3,2.5-1.3,4v18c0,1.1.4,2.1.6,3.2.2,1.2.4,2.4-.2,3.7-2.2,1.1-4.4,2.4-7.1,2-2.7-1.4-2.8-4.1-3.2-6.4-1.1-6.1-1.7-12.2-1.5-18.4.2-5.2.9-10.3,1.2-15.5.3-5.8,1.7-11.3,2.9-16.9,1-4.8,2.7-9.5,4.7-14.1,1.5-3.4,3.1-6.8,4.9-10.1.6-1.1,1.1-2.1,2-2.9,1.7-1.5,2.5-3.7,4.3-5,1.7-.6,3.6-.9,5.1-2.2,1.1.5,2.2,1,3.4,1.6.5,1.4,1.7,2.4,2.5,3.7,3.9,6,6.1,12.5,6.8,19.7.5,5,1.3,10,2.2,15,.7,3.8,1.6,7.6,2,11.7.4.5,1,1.2,1.6,1.9.1.9-.7,1-1.2,1.3v.1ZM223.36,315.61c-.6-3.3-1.6-6.4-3.9-9.4-1.5,1.7-2.7,3-3.8,4.4-.7,1-1.1,2.2-1,3.5.1,1.6-.5,3-1,4.5-.9,2.8-2.8,5.2-3.3,8.2-.3,2.3-.8,4.6-1.2,6.9-.3,2.3-.4,4.6-1.2,6.8-.6,1.6-.6,3.3-1,4.9-.7,2.9-.2,5.9-1.2,8.8-.2.5-.3,1.1.2,1.5,3.3-1.1,6.7-2.1,10.2-2.7,3.5-.6,7-1.1,10.7-1.1.3-3.2-1-6.1-.7-9.1-1.7-4.4-1.3-9.1-1.7-13.7-.4-4.5-.8-9-1.6-13.4l.5-.1Z"/>
      <path class="cls-1" d="M293.05,387.62c-.6,1.2-.2,2.3.6,3.5,1.8-.5,3.4-1,4.7-2.1.5-.4,1.2-.7,1.8-.8,5.6-1.1,10.9-3.2,16.4-4.7,1.5-.4,3-.8,4.6-1.2,1,.2,2.1.5,3.4.8.3,1.3,1.9,1.8,2.3,3.1q-1,2.2-3.8,1.7c-3.1,2-6.5,3-10,3.7-.9.2-1.8.4-2.6.8-3.2,1.4-6.4,2.7-9.5,4.2-3.3,1.6-6.6,2.3-10.1,1-.6-.2-1.2-.3-1.9-.2-3.1.2-5-1.2-5.7-4-.6-2.4-1-4.9-1.4-7.4-.7-4.4-1.4-8.8-2-13.2-.1-.9-.1-1.8-.1-2.7,0-5.1-.4-10.2.1-15.2.6-5.6.6-11.3,1.7-16.9,1.2-6.5,3.1-12.7,4.5-19.1.9-4.1,1.8-8.3,3.4-12.4,3.3.6,5.9,2.2,7.5,5.3.5.9.8,1.9.5,2.8-1.1,3.1-.1,6.4-1.2,9.5-.2.7-.2,1.5-.4,2.2-1,3.6-2.4,7.2-1.7,11.1-1.1,2.2.1,4.8-1,7.1-.4.7-.2,1.7-.2,2.6,0,5.5-.1,11,0,16.5.1,3.2-1.2,6.3-.6,9.5.6,3.7.3,7.4,1.2,11,.3,1.2.3,2.4-.3,3.6l-.2-.1Z"/>
      <path class="cls-1" d="M341.75,358.41c.2.2.3.4.4.6-.1.4-.3.8-.3,1.2,0,.2,0,.4-.1.5-.4.6-.5,1.3-.6,2-.3,1.3-.8,2.5-1.5,3.6-.4.7-.7,1.5-1.1,2.2-.6.9-1.1,1.9-1.6,2.9-.1.2-.1.4-.2.5-1,1-1.8,2.3-2.9,3.3-.2.2-.4.4-.6.5-.6.3-1.3.6-1.9.9-.9.1-1.8.1-2.7-.2-1.1-.3-2.1-.8-3-1.4-.3-.2-.5-.4-.8-.5-.2-.1-.4-.3-.5-.5-.7-1.2-1.6-2.3-2.3-3.5-.7-1.3-1-2.7-1.4-4.1-.1-.5-.2-1-.2-1.5s-.1-1-.3-1.5c-.1-.3-.1-.6,0-.9.2-.5.2-1,0-1.5-.1-.2-.1-.5-.1-.8v-5.4c0-.4,0-.8.2-1.2.2-.4.1-.8.1-1.2,0-.8-.2-1.6.1-2.4.1-.2,0-.5,0-.7.1-.7-.1-1.4.2-2.1.3-.6,0-1.3.4-1.9,0-1.6.7-3.1.9-4.7.1-.8.5-1.5.6-2.3,0-.2.1-.4.1-.6-.1-.9.2-1.8.4-2.7.2-.3.5-.6.8-.8.5,0,.7.4,1,.7h.7c.1.1.3.2.4.4.4.6.8,1.2,1.5,1.5.4.2.5.7.8,1,.6.6,1,1.3,1.3,2,.1.7,0,1.4.3,2.1.1.2,0,.5,0,.8v2.1c0,.6,0,1.2.3,1.6,0,.5-.3.8-.2,1.3.1.4,0,.8,0,1.2,0,.5,0,1-.2,1.5-.2.5-.1,1-.2,1.5-.2.8-.2,1.6.2,2.4-.3,1.4-.3,2.8,0,4.4,0,.1-.4.5.1.8-.2.7-.4,1.3-.5,1.9-.1.4-.1.8,0,1.2.3,1.1.3,2.2.1,3.3-.1.7-.1,1.4-.2,2.1-.1.6.2,1.7.6,2.3.5.2,1,.1,1.5.1,1.4-.6,2.5-1.6,3.4-2.8.5-.7,1-1.4,1.6-2,.4-.5.8-1,1.2-1.5.9-1.4,1.8-2.8,2.7-4.1.4-.6.9-1.2,1.4-1.8h.2c.1.1.2.1.3.2h-.4ZM327.65,321.01c-1.2-.2-1.6-1.1-2-2.2v-1.6c.5-.8,1-1.7,1.4-2.5.4-.3.7-.5,1.1-.8.8.8,1.7,1.4,2.8,1.8.2.5.5,1,.7,1.4.3.9-.2,1.7-.2,2.5-.5.8-1.3,1.1-2.2,1.5h-1.5l-.1-.1Z"/>
      <path class="cls-1" d="M392.35,324.21c.7.4.5,1,.5,1.5-.8.6-1.6,1-2.4,1.4-.8.4-1.7.5-2.6.7-.2.1-.4.2-.6.3h-.3c-1.2,0-2.3.3-3.4.6-.4.1-.8.2-1.2.2-.7.1-1.4.2-2.1.4-.5.1-1,.4-1.3,1-.1.3,0,.7,0,1.1s0,.8-.2,1.1c-.2.3-.1.6-.1.9,0,.5,0,.9-.2,1.3-.1.3-.1.7-.1,1v6.9c0,.6.1,1.2-.2,1.8-.1.3,0,.7,0,1v9.9c0,.5.1,1-.2,1.4.1.5.3,1,.2,1.6-.1.5-.1,1,0,1.5.1.7-.1,1.4.2,2,.1.2,0,.5,0,.8v2.1c0,.3,0,.6.1.9.1.2.1.4.1.6,0,.6-.1,1.2.2,1.8.1.2,0,.5,0,.7v2.1c0,.5-.1,1,.1,1.5.1.3,0,.7,0,1.2.3.7.7,1.5,1,2.3.1.4.3.7.6.9.1.1.3.1.6,0,.5-.3.9-.9,1.4-1.4.5-.5.9-1,1.2-1.6.7-1.3,1.5-2.5,2.3-3.8.3-.2.6-.4.9-.6.3-.2.3-.7.7-.9h.3c.4.2.4.6.6,1l-.5,1.2v1.1c-.1.2-.2.4-.3.6s-.4.4-.4.6c-.1.7-.5,1.3-.8,2-.3.6-.5,1.3-.7,1.9-.3.8-.7,1.5-1.3,2.1-.2.3-.4.6-.6.9,0,0-.1.1-.2.1q-1.3.8-2.9,1.1c-.3.1-.6.2-.9.3-.5.2-1,.4-1.6.4-.3,0-.6,0-.9.1-.8.3-1.6.2-2.4.1-1.3-.2-2.2-1-3.2-1.7-1.1-1.4-2.5-2.7-3-4.6-.2-.8-.4-1.6-.8-2.3-.1-.7.1-1.4-.2-2-.1-.2,0-.5,0-.8s.1-.6,0-.8c-.4-.9-.2-1.8-.3-2.7,0-.7.2-1.4-.2-2.1-.1-.1-.1-.3-.1-.5v-5.4c0-.4.3-.7.1-1.1-.1-.4,0-.8,0-1.2,0-.3-.1-.6-.2-.9.1-.3.2-.6.2-1v-1.5c0-.4-.1-.8.1-1.2.1-.2.1-.5.1-.8,0-.4,0-.8.2-1.2.1-.3.1-.7.1-1v-4.5c0-.4,0-.8.1-1.2.1-.4.3-.8.5-1.3-.2-.4-.3-.9-.1-1.5.2-.6,0-1.3.3-1.9-.1-1.4.4-2.8.3-4.2,0-.4,0-.8.2-1.2.2-.5,0-1.1.1-1.7-.6-.3-1.1-.2-1.6,0-.4.1-.8.3-1.3.5h-1.2c-.1.1-.2.2-.3.3s-.2.4-.4.3q-.5-.2-1.3-.1c-.6.1-.7.2-1.7.4h-.6c-.4.1-.8.2-1.2.3-.3.2-.6.4-.9.4l-1.5.3c-.3.1-.6.1-.9.1-.3.2-.6.4-1,.4-.2,0-.4.1-.5.2-.3.3-.7.3-1.1.4s-.7.2-.9.5c-.1.1-.3.1-.4.2,0,.6-.2,1.2-.1,1.8-.2,1-.1,2,0,3q0,.1-.2.4c.1.1.2.2.2.3.1.4.2.9.1,1.3-.1.4,0,.7.2,1.1-.1.2-.2.4-.3.6.3.8.1,1.7.2,2.5-.2.5-.4,1-.2,1.6,0,.1-.1.2-.1.3-.1.5-.1,1,.1,1.4,0,.3-.2.3-.3.5v1.5c-.1.2-.2.4-.3.6.2.3.1.7.1,1,.1.9.1,1.8.2,2.7.1.7.1,1.4-.1,2.1v.6c.1,1.2-.1,2.4-.1,3.5.4.8.4,1.7.3,2.6v.6c-.1,1.1.1,2.2.1,3.3,0,.6.2,1.2.3,1.7,0,.2.2.4.3.6.4-.1.8-.4,1.1-.7.7-.6,1.3-1.2,2-1.7.2-.1.2-.3.3-.4,1.1-1.1,2.2-2.3,3.2-3.5.4-.5.7-1.1,1.1-1.6s.7-1.2,1.3-1.6c.2-.1.3-.3.4-.5.2-.3.4-.6.7-.9.1-.1.2-.2.2-.4,0-.4.3-.6.6-.8.3-.3.6-.6,1-.9.7.3.9.6.9,1.3v.3c.3,1-.3,1.7-.7,2.4-.3.4-.6.8-.7,1.3,0,.2-.1.3-.2.4-.4.5-.6,1.2-.8,1.8-.1.3-.2.5-.3.7-.3.5-.6,1-.7,1.6-.1.3-.2.6-.4.9-.3.4-.7.8-.9,1.3-.3.6-.8,1-1,1.6-.2.5-.6.9-.9,1.3-.3.4-.8.6-1.1,1.1-.3.5-.7.8-1.1,1.1-.1.1-.2.2-.4.3-.1.1-.2.2-.2.4s-.2.2-.3.3c-.6.5-1.2.9-1.8,1.3-.2.1-.4.2-.6.2-.3,0-.6.1-.8.3-.1.1-.2.1-.3.1-.8.1-1.6-.1-2.3-.7-.2-.2-.5-.2-.7-.4-.4-.3-.8-.6-1.1-1-.2-.2-.4-.3-.6-.5-.4-.4-.6-.9-.9-1.3,0-.1,0-.2-.1-.3-.2-.1-.3-.3-.4-.6-.1-.2-.2-.4-.4-.6-.1-.1-.2-.2-.2-.3,0-.3-.2-.5-.3-.8-.3-.8-.6-1.6-.7-2.4,0-.2-.1-.3-.2-.4,0-.6,0-1.1-.4-1.5.1-.5-.1-1-.2-1.5s-.1-1-.3-1.5c-.2-.5.1-1-.2-1.4.3-1.8-.2-3.6.1-5.4-.1-.2-.2-.4-.2-.7,0-.5.1-1,.2-1.4.1-.5.2-1,.2-1.5v-.6c.1-.1.2-.2.3-.3.1-.9.1-1.8.3-2.6v-.3c-.1-1.7.2-3.4.1-5.1.1-.2.2-.3.3-.5-.1-.6.1-1.2.1-1.8.1-.1.2-.2.3-.3v-1.6c.4-.7.4-1.4.4-2.1,0-.2.2-.3.2-.4v-2c-.2-.2-.4-.2-.6-.1-.5.2-1,.3-1.5.3-.3,0-.5,0-.8.1-.3.1-.7.1-1,0-.4-.1-.8,0-1.2.1-.3.1-.6.1-.9,0-.5-.1-1-.1-1.5,0-.3.1-.6,0-.9,0-.7-.5-1.6-.6-2-1.5-.2-.3-.1-.7-.4-1,0-.4-.1-.9.2-1.3.2-.1.4-.1.5-.1.8,0,1.5-.2,2.2-.3.6-.1,1.2-.3,1.8-.2.3,0,.6,0,.8-.1.5-.3,1.1-.3,1.7-.4.8-.1,1.6-.1,2.4-.3.3-.1.7,0,1,0s.6,0,.9-.2c.2-.5.2-1.1.2-1.7,0-.2.2-.2.3-.4v-.8c0-.6.1-1.1.3-1.6.1-.3.2-.6.2-.9-.1-.9.1-1.8.3-2.7.1-.3.1-.6,0-.9-.1-.2-.1-.4-.1-.6.2-1,.3-2,.3-3,.2-.2.4-.4.6-.6h1.4c.1.1.3.2.4.4.5.1,1,.3,1.4.6.5.3,1.1.7,1.5,1.3,0,.3,0,.6.1.8,0,.2-.2.3-.2.5-.1.5-.1,1,.2,1.4-.2.4-.2.8,0,1.2.2.3.1.7,0,1,.3.5.4,1,.4,1.5,0,.9.1,1.8.1,2.8.6.1,1.1.1,1.7,0,1-.2,2-.4,3.1-.2.1-.1.2-.2.3-.2.4,0,.8-.1,1.2-.1.9,0,1.8-.2,2.7-.3.7-.1,1.4-.3,2.2-.2.4-.1.9-.2,1.2-.3.3-.1.6-.2.9-.2.8.1,1.6-.3,2.4-.3.4-.3.9-.2,1.2-.3.3-.2.4-.4.4-.6.1-.7.1-1.5.4-2.2.3-.7,0-1.4.4-2,0-.6.3-1.1.4-1.7s.2-1.2.4-1.8c.3-.9.5-1.8.7-2.7.3-1.1.6-2.3,1-3.4.4-1,.6-2.1.8-3.1.2-.3.5-.4.8-.5s.5-.3.7-.4c1.5.2,2.5,1.2,3.4,2.3.2.2.4.5.5.8.2.7.3,1.4.3,2.1,0,.9.1,1.8-.2,2.7-.1.3,0,.7,0,1,0,.7.1,1.4-.2,2.1-.1.2-.1.4-.1.6.1.8-.1,1.5-.2,2.3-.1.4-.3.7-.3,1.1v1.6c.2.3.4.3.6.2.2,0,.4-.1.6-.1,1,.1,2-.3,3-.3.5,0,.9-.3,1.4-.3,1.1.1,2.1-.4,3.2-.3.1,0,.3,0,.4-.1.6-.3,1.3-.3,1.9-.1.7.2,1.4.1,2.1.2l-.7-1Z"/>
      <path class="cls-1" d="M421.95,364.21h.4c.3.1.5.3.7.6v.3c.1.9-.1,1.7-.5,2.4-1,1.5-1.8,3.1-2.8,4.6-.1.1-.2.2-.3.3-1,.9-1.6,2.2-2.6,3.2-.2.2-.4.4-.5.6-.3.6-.6,1.2-1.3,1.3-.1,0-.2.1-.3.2-.6.7-1.4,1.2-1.8,2-.3.6-.8,1.1-1.4,1.5-.4.3-.7.7-1.1,1-.9.6-1.9.8-2.9,1.2-.3.1-.6-.3-1,0-.2.2-.6.1-.9.1h-1.2c-.3,0-.6-.2-.9-.2-.6,0-1.1-.4-1.7-.3-1.2-.4-2.3-.9-3.1-1.9-.7-.8-1.3-1.6-1.8-2.5-.4-.7-.9-1.4-1-2.3,0-.2-.1-.4-.2-.6-.3-.6-.5-1.3-.8-2-.5-1.3-.9-2.6-1.3-3.9-.2-.7-.2-1.4-.4-2.1-.2-.6-.3-1.3-.4-2,0-.6-.2-1.2-.4-1.8-.1-.4-.2-.8-.2-1.2.1-.9-.1-1.7-.4-2.5-.2-.5-.3-1-.3-1.5v-1.8c0-.5,0-1,.2-1.6.1-.5,0-1,0-1.5,0-.6,0-1.2.2-1.8.2-.5.3-1,.2-1.5s.3-1,.2-1.6c-.1-.5-.1-1,.1-1.5.1-.2,0-.4,0-.6,0-.8-.1-1.6.1-2.4.1-.6-.1-1.3-.1-1.9,0-.5-.1-1,.1-1.5.1-.2,0-.5,0-.8v-2.4c0-.2-.1-.5,0-.7.3-.8.2-1.6.1-2.4,0-.5.2-1,.3-1.5.1-.9.2-1.8.4-2.6.5-1.8.8-3.6,1.4-5.3.7-1.9,1.1-3.9,2-5.7.3-1.1,1-2,1.5-3,.5-1,1.1-1.8,1.7-2.7.8-1.2,1.6-2.4,2.5-3.5.5-.6.9-1.3,1.4-2,.4-.5.9-1,1.3-1.5.3-.3.7-.6.9-1.1.1-.2.3-.4.5-.5,1.3-1,2.3-2.3,3.7-3.2,1.1-.7,2.2-1.6,3.5-2.1.5-.2.9-.5,1.4-.8,1.9-.1,3.9-.2,5.9-.2.7,0,1.4.2,2.1.3.3,0,.6.1.8.3.7.7,1.5,1.2,2.2,1.8.2.1.4.2.5.3.2.6.3,1.1.5,1.6.3.6.3,1.2.2,1.8-.1.7-.3,1.4-.4,2.1v.3c-.3.9-.7,1.7-1,2.6-.2.6-.7,1.2-1.1,1.8l-.3.3c-.8.9-1.6,1.8-2.3,2.8-.5.8-1.2,1.4-1.7,2.1-.7.9-1.5,1.7-2.1,2.6-.5.8-1,1.6-1.5,2.4-1,1.6-1.8,3.3-3,4.8-.3.3-.4.7-.6,1.1-1,1.2-2.1,2.4-2.9,3.9-.4.3-.9.6-1.1,1.2-.2.4-.6.7-1,1-.5,1.2-1.3,2.2-2,3.3-.3.5-.7,1-1,1.5-.1.1-.2.2-.2.3-.1.9-.7,1.6-1.1,2.4-.2.4-.6.7-.7,1.1-.1.4-.3.7-.5,1.1-.1.5.1,1.1-.2,1.7-.1.2,0,.5,0,.7v2.4c0,.5,0,1,.3,1.5.2.4-.1.9.1,1.4.2.4.2.9,0,1.3-.2.3-.1.6-.1.9.1,2.7.2,5.4.3,8.1,0,.4.2.9.1,1.3-.1.4-.1.8.1,1.2-.3.8.2,1.5.3,2.3.2,1.1.6,2.1,1.1,3.1v.3c0,1.1.6,2,.9,3,.2.5.5,1,.6,1.6,0,.3.2.5.3.7.3.6.7,1.2.9,1.9.1.3.2.3.9.7.4,0,.6-.3.9-.5,1.3-1,2.6-2,3.7-3.2.2-.2.4-.4.6-.5.5-.2.8-.6,1.2-1,.5-.6.9-1.3,1.6-1.7.2-.1.4-.3.5-.5.6-1.3,1.9-1.9,2.7-2.9.8-1,1.8-1.9,2.7-2.9l-.4-.5ZM402.85,324.41c0,.6-.2,1.1-.5,1.8.2,1,0,2-.2,3v.6c0,.5.1,1-.1,1.4-.2.5.1,1-.2,1.5-.1.2.1.4.4.4.5-.7,1-1.5,1.6-2.2.9-1.1,1.6-2.4,2.5-3.5.9-1.2,1.7-2.5,2.6-3.8.9-1.3,1.8-2.6,2.7-3.9.8-1.2,1.6-2.4,2.6-3.4.2-.2.4-.4.6-.7.6-.9,1.3-1.8,2.1-2.6,1-1.1,1.7-2.4,2.7-3.4.1-.1.2-.3.3-.5.4-.7.8-1.4,1.3-2,.5-.7.7-1.5,1.1-2.2.1-.3.1-.6,0-.9-.1-.2-.3-.4-.4-.7-.3-.1-.6-.2-.8-.3h-2.7c-.7.3-1.2.7-1.8,1.1-.9.6-1.6,1.4-2.6,1.8-.2.1-.5.3-.6.5-.7,1.2-1.8,1.9-2.8,2.7-.1.4-.4.7-.7,1-.5.6-1,1.2-1.4,1.9-.3.6-.7,1.2-1.2,1.6-.1.4-.2.8-.4,1.2-.2.5-.4,1-.5,1.5s-.4,1-.7,1.4c-.2.3-.3.6-.4.9-.6,1.5-1,3.1-1.7,4.5-.2.5-.4,1.1-.4,1.6l-.4-.3Z"/>
      <path class="cls-1" d="M430.85,357.81c-.5.2-1,.4-1.5.9-.3.7-.4,1.4-.4,2.1s0,1.4-.2,2.1c-.2.5-.1,1.1-.1,1.7,0,1-.2,2,.2,2.9-.2,1.1.3,2.1.5,3.1,0,.2,0,.4.1.5.5.6.7,1.3,1.2,2,.4.2.9.5,1.3.7.6.1,1.1-.1,1.6.2,1.1-.2,2.2-.1,3.2-.6,1.3-.7,2.7-1.3,3.9-2.3.6-.5,1.3-.9,1.9-1.4.9-.7,1.8-1.3,2.6-2.1.7-.7,1.4-1.4,2.1-2.1.8-.9,1.5-1.9,2.3-2.9.6-.8,1.2-1.6,1.7-2.5,1-1.6,2.1-3.2,3-4.9.4-.7.8-1.3,1.2-2,.7-1.3,1.3-2.6,1.7-4.1.5-1.3,1.7-2,3-2.7h1.1c.4,0,.7.4,1.1.3.2.3.4.5.5.7v.1c0,.8.1,1.6-.1,2.4-.2.8-.5,1.5-.7,2.2-.1.5-.3.9-.3,1.4,0,.4-.1.8-.2,1.1-.6,1.3-1.2,2.6-1.8,3.9-.1.1-.1.3-.2.4-.7.6-1,1.5-1.5,2.3-.4.6-.9,1.1-1.2,1.7-.4.6-.9,1.1-1.4,1.6l-2.4,2.4c-.3.3-.6.5-.7.9,0,.1-.1.2-.2.3-.9.5-1.5,1.4-2.3,2-1,.8-2,1.6-3,2.4-.7.5-1.3,1.1-2,1.6-.8.6-1.5,1.3-2.5,1.6-.2.1-.4.2-.6.3-1.1.8-2.4,1.2-3.6,1.6-.8.3-1.6.5-2.5.4-.2,0-.4,0-.6.1-1.3.5-2.6.2-3.9-.2-1.3-.4-2.5-.9-3.6-1.6-.1-.1-.3-.1-.4-.2-.8-.8-1.8-1.3-2.4-2.3-.1-.2-.3-.4-.5-.6-1-.7-1.7-1.7-2.3-2.7-.9-1.3-1.5-2.7-1.5-4.3,0-.3,0-.6-.1-.9-.1-.1-.2-.2-.2-.3.1-1.2-.2-2.4-.3-3.6,0-.4,0-.8-.2-1.2.3-.5.3-1.1.3-1.7-.1-.7,0-1.4.3-2l2.1-4.8c.3-.7.7-1.4,1.2-2,.1-.2.2-.4.3-.6.5-.7.9-1.4,1.5-2,.4-.4.6-1,1-1.4.5-.4.9-.9,1.3-1.3s.9-.8,1.4-1.1c1.1-.8,2.2-1.7,3.5-2.2.6-.2,1.3-.3,1.7-.7,1.5-.2,2.9.1,4.3.5.3.1.6.2.9.3.9.1,1.7.5,2.3,1.1.7.6,1.4,1.1,2.2,1.6.1.1.2.1.3.2.4.4.9.8,1.2,1.3.5.8,1.3,1.3,1.7,2.2-.1.4-.2.8-.3,1.2-.5.5-.9,1-1.2,1.3-1.4.6-2.6,1.1-3.8,1.6-.7.3-1.3.8-2.1.8-.1,0-.2.1-.3.2-1.2.9-2.6,1.5-3.9,2.2-.4.2-.8.5-1.2.7-1.3.5-2.4,1.4-3.7,1.9l.2.3ZM438.75,344.91h-1.2c-.8.7-1.4,1.5-2.3,1.9-1.9,1.8-3.6,3.8-4.7,6.3.5,0,.7-.4,1-.5.4-.1.8-.2,1.2-.4,1.2-.7,2.4-1.4,3.6-2.1.2-.1.4-.2.6-.3.3-.1.6-.2.9-.4.8-.4,1.6-.8,2.5-1.1.4-.1.8-.2,1-.6-.6-.7-1.2-1.4-1.8-2.2-.2-.3-.5-.4-.8-.5v-.1Z"/>
      <path class="cls-1" d="M498.15,336.21c-.5.7-.7,1.5-1,2.3.2.6.4,1.3.7,1.8.4.4.7.3,1.1.4.5.4,1,.8,1.6,1.1.7.3,1.4.5,2.2.5h10.5c.7,0,1.3.1,1.9.3.5.2,1,.4,1.4.3.6.3,1.1.6,1.6.8.8.1,1.6-.1,2.3.3.1.1.3.1.5.1.7-.1,1.3.1,1.9.3.4.2.8.3,1.2.3.6-.1,1.2,0,1.8.2.4.2.8.3,1.3.4.7.1,1.4.2,2,.7.1.1.3.1.5.2.6.2,1.2.4,1.8.6.5.2,1,.5,1.5.6.5.1.6.8,1.1.7.7.8,1.8,1,2.7,1.6,2.2,1.5,4.2,3.2,5.9,5.3l.6.6c.6.5,1,1.1,1.4,1.7.4.6.9,1.2,1.3,1.9.4.8.7,1.6,1.1,2.6.2,1.7.8,3.6.5,5.7-.5.7-.4,1.8-1,2.6-.1.6-.4,1.1-.8,1.6-.6.8-1.1,1.7-1.7,2.6-.4.6-.9,1.1-1.5,1.6-.1.1-.3.1-.5.2-.4.5-.8,1.1-1.3,1.6-.7.7-1.5,1.4-2.6,1.5-.3,0-.5.2-.8.3-.2.3-.4.6-.6.9-.6.6-1.4,1.1-2.2,1.5-.2.1-.4.2-.7.3-.7.3-1.3.7-1.9,1.2-.8.7-1.6,1.5-2.7,1.7-1.3.1-2.4.7-3.5,1.3-.1.1-.2.1-.4.2-.7-.4-1.5-.2-2.2-.6-.8,0-1.6-.1-2.4.1-.7.2-1.5.2-2.1.6h-.5c-.4-.1-.8-.3-1.3-.5h-1.6c-1.1-.6-2.3-1-3.5-1.2-.3-.1-.3-.5-.6-.7-.2-.2-.4-.4-.6-.5-.8-.5-1.4-1.1-1.9-1.9-.3-.4-.7-.7-1.1-1.1-.5-.5-1-1-1.4-1.7-.4-.8-1.1-1.4-1.7-2-.4-.4-.9-.8-1-1.5v-1.9c.1-.2.2-.4.3-.6.4-.3.9-.5,1.4-.4.5-.5,1-.9,1.5-1.3.3.1.6.3.9.3.6,0,.8.7,1.4.8.3.7,1.2.8,1.6,1.4.3.1.5.2.7.3,1.7,1.6,3.9,3.2,5.1,3.7h2.4c.7-.3,1.3-.8,2-1.1.7-.3,1.2-.9,1.9-1.2.7-.3,1.2-.9,1.9-.9,1.2-.9,2.2-1.8,3.3-2.6.9-.7,1.8-1.5,2.6-2.3,1.4-1.4,2.8-2.7,4-4.2.6-.8,1.2-1.5,1.5-2.5,0-.1.2-.2.4-.4.1-.4,0-.9.2-1.4.5-1.2.4-2.4-.1-3.6-.1-.2-.2-.4-.3-.7-.5-.6-1.2-1-2-1.3-.5-.2-1.1-.2-1.5-.7-.5-.1-1-.4-1.6-.3-.4,0-.8-.1-1.2-.2-.5-.2-1.1-.4-1.7-.4s-1.2-.2-1.8-.4c-.4-.1-.8-.1-1.2-.1s-.7-.3-1.1-.2c-.6.1-1.1-.2-1.6-.4-.8-.3-1.6-.7-2.5-1.1-1.6.1-3.3-.1-5,.2-.8-.3-1.7.1-2.5-.3-.3-.1-.6-.1-.8,0-.4.2-.9.1-1.4.1h-3c-.4,0-.8,0-1.2-.2-.1,0-.3.1-.6.2-.3,0-.7-.2-1.2-.1-.9.1-1.7-.2-2.5-.5-.3-.2-.6-.3-1-.4-1.1-.2-2.2-.3-3.1-1h-.1c-.9-.3-1.6-.9-2.4-1.5-.6-.5-1.1-1.1-1.7-1.6-.6-.5-1.2-1-1.5-1.7,0-.1-.1-.2-.2-.3-.9-.8-1.4-1.9-2.3-2.7-.2-.2-.4-.5-.4-.8-.1-.5-.4-.9-.6-1.4v-1.7c0-.4,0-.8-.2-1.1-.1-.2-.1-.4-.1-.6,0-1.1,0-2.2.1-3.3,0-.7.3-1.4.2-2.1.6-.9.7-1.9,1-2.9l.4-.4c0-.7.3-1.3.6-1.9.7-1.3,1.5-2.5,2.2-3.9.3-.3.7-.7,1.1-1.1.4-.4.7-.9,1.1-1.3l1.5-1.5c.5-.5,1-1.1,1.6-1.6.5-.4.9-1,1.4-1.5,1.5-1.3,3-2.6,4.8-3.6.7-.4,1.4-.9,2.1-1.3.9-.6,1.8-1.2,2.7-1.8.4-.2.8-.5,1.2-.8.5-.4,1-.9,1.7-1,.3,0,.6-.2.8-.4.3-.2.6-.4.9-.4.1,0,.3,0,.4-.1.6-.5,1.3-.7,2-.8.2,0,.4-.1.6-.2.9-.5,1.9-.9,2.9-1.2.6-.2.9-.8,1.5-.8,1-.6,2.1-.8,3.2-1.1.6-.2,1.3-.2,1.9-.3.6-.2,1.2-.2,1.8-.3,1.1-.2,2.2-.3,3.3-.7.4-.1.8-.1,1.2-.1h9.3c.8,0,1.5.2,2.2.5.6.2,1.2.5,1.8.8.8.4,1.6.8,2.4,1.2.1.1.2.3.3.5.1.2.1.4.2.6.2.2.6.3.8.6.3.6.8,1.1,1.1,1.7.5,1,1.3,2,1.2,3.3-.1.6,0,1.2.2,1.8.3.8.3,1.6,0,2.4-.2.6-.2,1.3-.6,2.1-.1.1-.3.4-.5.7-.4,1.4-1.1,2.6-2.3,3.5-.9.7-1.7,1.6-2.5,2.4-1,.9-1.9,1.9-2.8,2.8-.5.2-.9.5-1.4.6-.6.2-1.1.4-1.4.9h-1.4c-.9-.4-1.3-1.2-1.9-1.9v-1.9c.4-.8.9-1.6,1.6-2.3.5-.5.9-1,1.3-1.5.1-.2.1-.4.2-.6h.6c.2-.1.4-.2.6-.4h1c1.6-1.4,3-2.9,3.8-5.1.1-.4,0-.9.2-1.4.3-.7,0-1.4-.3-2.1-.2-.3-.4-.6-.6-.9-.3-.4-.5-.9-.6-1.5-1.3-1.2-2.8-2-4.7-2h-3.3c-.3,0-.6,0-.9-.2-.4.1-.8.3-1.3.3h-2.1c-.4,0-.8,0-1.2.2-.2.1-.5.1-.8.1h-1.7c-.6.4-1.1.7-1.7.9-1,.4-2,.9-2.9,1.5q-.8.6-1.7.8c-1.2,1-2.4,1.9-3.5,3-.2.2-.4.3-.6.4-.8.4-1.5,1-2.4,1.3-.6.2-1.2.6-1.7,1s-1,.9-1.4,1.5c-.9,1.3-2.1,2.3-3.3,3.3-.9.7-1.7,1.4-2.5,2.2-.8.8-1.5,1.7-2.2,2.6-.9,1.2-1.7,2.5-2.5,3.8-.2.3-.5.6-.8.8-1.2,1.1-1.7,2.6-2.2,4.1-.2.6-.2,1.3-.3,1.9s-.3,1.2-.6,1.7l-.4.1Z"/>
      <path class="cls-1" d="M562.35,369.61c0,1.2-.7,2.2-1.1,3.3-.1.6.1,1.2-.4,1.7.2.6.4,1.2,0,1.8,0,.7-.1,1.4,0,2.1.1.6,0,1.2,0,1.8v3.3c0,.5,0,.9-.2,1.4-.1.3-.1.7-.1,1.1v6.9c0,.6.1,1.2-.2,1.8-.1.2,0,.5,0,.7-.1.7.1,1.4-.1,2.1,0,.1.1.2.1.3.1.6.1,1.2-.2,1.8.1.2.2.4.3.6-.3.9-.4,1.8,0,2.7.1.3,0,.7,0,1.1v6.6c0,.6,0,1.1-.2,1.6-.3.6-.3,1.2-.3,1.9v2.4c-.2.5-.6.8-.6,1.3,0,.8-.6,1.3-1.2,1.7-.8.3-1.4-.1-2.1-.3-.3-.2-.5-.4-.6-.7-.1-.3-.2-.6-.3-.9-.9-.8-1.5-1.7-1.7-2.9-.1-.5-.5-1-.5-1.5,0-1.3-.3-2.5-.3-3.8v-15.9c0-.5.1-1-.2-1.4.1-.4.2-.8.1-1.2s.1-.8-.2-1.1c.2-.6.5-1.2.1-1.8.3-1-.4-2,.2-3,.1-.2,0-.5,0-.7v-8.1c0-.5,0-1-.2-1.4.4-1.2.4-2.4.2-3.5-.2-.8-.2-1.6.1-2.4-.1-.3-.2-.6-.3-.9,0-.4.4-.8.2-1.3-.1-.4.1-.9.1-1.3v-3.6c0-.4,0-.8.3-1.2,0-.4-.2-.7-.1-1.2.3-1,.2-2.1.2-3.1,0-.7-.1-1.4.2-2.1.1-.2,0-.5,0-.8,0-.4,0-.8.2-1.2.1-.1.1-.3.1-.4,0-.9,0-1.8.2-2.7.2-.8.1-1.7.1-2.6,0-.4,0-.8.2-1.2.1-.2.1-.5.1-.8v-2.1c0-.6.2-1.2.1-1.8,0-.2.1-.4,0-.6-.1-.3-.1-.6,0-.9.2-.7.4-1.5.6-2.3.1-.2.3-.3.6-.3.6.2,1.2.7,1.9.6.3.2.5.4.8.7,1.3.3,2.3,1,3.1,2.2.1.2.2.5.3.8.4.9.6,1.8.6,2.8v5.7c0,.5-.2,1,0,1.5.1.1,0,.3,0,.5s-.1.4-.1.6c0,.5.2,1,.1,1.5-.1.5,0,1.1,0,1.7v1.5c.3.1.3-.2.4-.3.9-1.6,1.8-3.2,2.8-4.7.5-.7.8-1.5,1.5-2.1.6-1.1,1.5-1.9,2.2-2.9.2-.2.4-.4.6-.6.9-1.3,1.9-2.5,3.2-3.4.6-.4,1.1-1,1.6-1.5.5-.6,1.2-1,1.9-1.4,1.6-1,3.4-1.5,5.1-2.1.5-.2,1-.2,1.5,0,.6.2,1.2.4,1.7.8.8.6,1.7,1.2,2.6,1.7.8.5,1.4,1.1,1.8,1.9.3.5.7.9.7,1.6,0,.3.3.6.4.9.1,1-.2,2,.3,3-.3.7-.3,1.5-.2,2.2.2.3.4.3.6.2,1-.4,2.1-.2,3.1-.2s1.9.3,2.7.8c.1.4.2.8.3,1.2-.1.3-.3.4-.6.5-.8-.3-1.7-.3-2.8-.2-1.1.6-2.6.6-3.8,1.8-.1.2-.2.6-.2,1-.1.9-.4,1.7-.7,2.5-.3,1-.6,2-.8,3-.1.8-.4,1.6-.6,2.4-.2.6-.5,1.2-.4,1.9-.4.5-.2,1.2-.5,1.7-.3.5-.4,1.1-.6,1.6-.6,1.5-1.3,3-2.5,4.1-.8.7-1.5,1.5-2.3,2.2-1,.9-1.9,1.9-3.2,2.4-.6-.2-1.2.1-1.8,0s-1.1.1-1.6.3c-.6.3-1.2.2-1.7.5-1-.4-2-.5-3-.8-1-.3-1.9-.7-2.9-1.2-.3-.4-.5-1-1.1-1.2-.5-.8-.5-1.7-.7-2.5-.1-.6-.1-1.3.1-1.9.3-.9.4-1.9.7-2.9.2-.7.4-1.4,1-1.9.3-.1.5.1.8.2.1-.1.2-.1.2-.2.4-.7.9-1.3,1.6-1.7.3-.2.5-.5.7-.7,1-1,1.9-2.1,3-3,1-.8,2.2-1.5,3.3-2.2,1.2-.7,2.2-1.6,3.5-2.2,1.1-1,2.5-1.5,3.7-2.4.3-1.2.6-2.4.6-3.7,0-.6,0-1.2.3-1.8.1-.4,0-.9,0-1.3,0-.5-.1-1,.2-1.4-.2-.7-.2-1.5-.8-2-.1,0-.2-.1-.3-.1-1,0-2.3.4-3.1.9-.8.6-1.6,1.2-2.4,1.8-.9.8-1.8,1.6-2.6,2.5-.8.9-1.6,1.8-2.3,2.8-.3.4-.5.8-1,1-.2.1-.3.4-.4.6-.6.9-1.2,1.9-1.9,2.8-.8,1.1-1.5,2.3-2.3,3.4-.8,1.1-1.2,2.4-1.7,3.6-.3.9-.6,1.7-1,2.5-.8,1.6-1.6,3.2-2.1,5,0,.1-.1.2-.1.3l-.6-.2ZM581.95,358.21c.1-.3.2-.6.3-1h-.3c-.7.5-1.5.9-2.2,1.4-.7.5-1.5.8-2.2,1.3-.5.4-1.1.5-1.5.9-.4.5-.9.9-1.4,1.3-.8.6-1.6,1.2-2.2,2-.2.3-.5.5-.8.7-.4.2-.8.5-1.1.8-.9,1-1.7,2-2.1,3.3-.1.2-.3.4-.4.6,0,1.2.4,2.2,1.1,3.1h1c.9,0,1.7-.2,2.4-.7.4-.3.9-.5,1.4-.6s1-.3,1.6-.4c.6-.6,1.3-1.2,1.8-1.9,1.4-1.9,2.6-3.9,3.6-6,.1-.4.1-.8.2-1.1.1-.4.1-.8.2-1.2.1-.3.2-.6.3-.9.1-.3.2-.7.3-1.1v-.5Z"/>
      <path class="cls-1" d="M635.85,366.71c.1-.2.2-.4.4-.5.2,0,.3.1.4.3-.4.7-.2,1.5-.3,2.3-.5,1.1-1,2.3-1.6,3.4-.4.8-.8,1.6-1,2.5-.2.6-.5,1.1-.8,1.6-.4.6-.8,1.2-1.2,1.8-.1.2-.1.4-.2.7-.3.3-.7.6-1,1-.9,1.3-2.2,2-3.8,2h-.6c-.6-.3-1.2-.6-1.8-.8-1-.4-1.8-1-2.5-1.8-.2-.2-.4-.4-.5-.6-.3-.9-.9-1.6-1.2-2.5-.5-1.3-1-2.6-1.3-3.9,0-.2,0-.4-.1-.6-.6-1.2-.8-2.5-1-3.8-.1-.4-.4-.7-.4-1.1s-.1-.8-.3-1.2c-.1-.2,0-.5,0-.8,0-.5.1-1.1-.2-1.6-.1-.1-.1-.3-.1-.4v-3.9c0-.3.1-.6.2-1-.3-.4-.3-.9-.3-1.5v-3.5c-.2-.2-.3-.1-.4,0-.9,1.4-1.8,2.7-2.8,4-1.1,1.5-2.1,3-3.1,4.5-1.1,1.7-2.3,3.3-3.8,4.7-.6.6-1.3,1.1-2.1,1.3-.9.2-1.8.6-2.7.4-1.6-.4-2.5-1.5-3.3-2.7-.4-.7-.6-1.5-.6-2.3s-.4-1.6-.4-2.4c-.3-.5-.2-1.1-.2-1.7-.2-2.3.5-4.4,1.3-6.5.3-.8.6-1.6.9-2.4.8-2.5,1.4-3.6,3-5.7,1-1.4,2.2-2.6,3.4-3.8.7-.7,1.5-1.3,2.4-1.7.6-.3,1.2-.6,1.8-.9,1.5-.7,3-1,4.6-.5.3.1.7.1,1.1.2,1.6.3,3,1,4.3,1.9.6.4,1.2,1,1.6,1.7.9.2,1.6.7,2,1.6.1.3.3.6.5.9v2.4c0,.4,0,.8.2,1.2.2.4.2.9,0,1.3-.2.5-.2,1-.2,1.5v8.4c0,.5,0,1,.2,1.4.1.2.1.5.1.8v5.4c.4.7.1,1.6.5,2.4.2.5-.1,1.2.2,1.8-.2.3,0,.6.1.9.3.6.3,1.2.3,1.8.2.4.7.7.6,1.2.5,1,.7,2.2,1.6,3,.2,0,.4-.1.6-.3.2-.3.4-.6.6-.8,1.1-1,1.9-2.2,2.7-3.4.6-1,1.3-1.9,2-2.8.7-.8,1.2-1.7,1.7-2.6l.5-.3ZM617.35,342.41c-.4.1-.7-.3-1.2-.3-1.1.5-2.3.8-3.5,1.3-.8.3-1.5.7-2.1,1.3-.6.6-1.2,1.2-1.8,1.8-.8.8-1.5,1.7-2,2.7-.2.4-.4.8-.6,1.2-.4.9-1,1.7-1.1,2.7,0,.2-.3.4-.5.7.2.6-.1,1.2-.2,1.8-.1.9-.2,1.9-.5,2.8-.3.7-.5,1.4-.5,2.2,0,.3-.1.6-.2.9.5.3.2.8.2,1.2.1.1.2.2.4.1.2-.2.5-.5.7-.8,1.3-2,2.6-3.9,3.9-5.8.5-.7.9-1.5,1.4-2.2,1.2-1.7,2.4-3.3,3.6-4.9.5-.6,1-1.2,1.4-1.8.8-1.2,1.6-2.4,2.4-3.6-.5-.3.1-.7-.1-1.2l.3-.1Z"/>
      <path class="cls-1" d="M670.35,334.21c.2.6.4,1.2.4,1.9s-.2,1.3-.6,1.8c-.3.5-.7.7-1.1.9-.3.2-.6.4-.8.7-1.3.1-2.3-.7-2.6-1.9-.2-.9-.2-1.8-.1-2.7,0-.2-.1-.4-.1-.6-.1-.7-.2-1.4-.6-2-.7-.2-1.4-.1-2.1.3-.4.2-.9.4-1.4.5-.5.5-1.1.9-1.7,1.2-.4.2-.7.5-1,.8-.3.3-.6.6-1,.8-.6.3-1,.8-1.3,1.3-.2.3-.6.5-.8.9-.2.3-.5.6-.7.9-.6.8-1.4,1.4-1.9,2.3-.3.6-.8,1.1-1,1.7-.4,1-.9,1.9-1.4,2.8-.1.2-.1.4-.2.6-.1.2-.2.5-.4.7-.4.4-.5.9-.6,1.3-.1.3-.2.7-.3,1-.2.6-.3,1.2-.3,1.9,0,.3-.1.6-.2.9-.2.6-.4,1.3-.8,1.8-.2.2-.1.5-.2.7-.1.5-.2,1-.1,1.5.1.4-.1.9-.2,1.3-.2.8-.5,1.6-.8,2.4,0,.1-.1.1-.1.2.1.5,0,1.1,0,1.6,0,.2-.1.5,0,.7.1.1.1.2,0,.3-.1.1-.1.2-.1.3.2.9.2,1.8,0,2.7v.3c.1.5-.1,1-.1,1.5,0,.2,0,.4-.1.6,0,.1-.1.2-.1.3.2.4.1.9.2,1.3.2.8.1,1.6.3,2.4.2.5.1,1,0,1.5s-.1,1,.1,1.5c-.1.6-.7,1.1-.3,1.7,0,.2-.2.3-.2.4.1.2.3.4.3.6s-.2.3-.3.4c-.2.3-.4.6-.3,1v.3c0,.2-.1.3-.2.5-.3.2-.7.4-1,.7-.4.4-1,.4-1.5.2s-1-.2-1.6-.5c-.5-.4-.8-1.1-1.1-1.8-.4-1-.6-2-.8-3-.1-.6-.4-1.2-.5-1.8-.2-1-.5-2-.7-3.1-.1-.4-.3-.7-.4-1.1-.2-1-.5-2-.7-3-.2-.9-.3-1.8-.4-2.7v-.3c0-.9-.2-1.8-.3-2.7-.1-.9-.3-1.8-.4-2.7-.1-1-.2-2-.3-3-.1-.9-.2-1.8-.3-2.7-.3-2.3-.2-4.6-.2-6.9,0-.6-.1-1.3,0-1.9.1-.5.1-1,.2-1.5.1-.6.3-1.2.2-1.8-.1-.4.1-.8.2-1.2.1-.7.2-1.4.4-2.1.1-.6.2-1.2.5-1.8.3-.5.5-1.1.6-1.7.1-.6.4-1.1.5-1.7.1-.5.2-1,.3-1.5.1-.5.2-1,.5-1.5.2-.3.4-.5.8-.5.7.1,1.4.3,2.1.7.4.6.9,1.3,1.1,2.2-.3.9-.2,1.8,0,2.7.1.4.3.8.1,1.2v.3c.3.9.3,1.8.4,2.7.1.4.2.8.2,1.2,0,.3,0,.6-.2.9.2.3.3.7.3,1.1s.1.8.2,1.2c.2.7.2,1.5.4,2.3.1.6.3,1.2.4,1.9,0,.5,0,1,.3,1.5.5-1,1-2,1.3-3.1.3-.9.7-1.8,1.2-2.6.7-1.1,1.4-2.2,2.1-3.3.3-.4.7-.7,1-1.1,1.1-1.4,2.3-2.7,3.6-3.9.7-.7,1.5-1.3,2.3-1.9.6-.4,1.3-.8,2-1.2,1-.6,2-1.1,3.2-1.3.5-.1,1-.2,1.5-.1.3,0,.7-.1,1-.1.9,0,1.7.3,2.5.7.5.3.9.7,1.3,1.1.3.3.4.7.7,1,.1.1.2.3.3.4.5.4.8,1,1,1.6l.5-.3Z"/>
      <path class="cls-1" d="M709.25,378.51c1,0,1.7.4,1.8,1.4,0,1-1,1-1.4,1.5-.6,3.6-2.3,4.4-7.2,4.2-1.8-1.7-4.3-2.5-6-4.4-2.7-2.9-5.8-5.4-7.3-9.4-.7-1.9-2.5-3.4-4.6-4.3-1.5,1.4-3.2,2.1-5.2,1-.5,1.5.3,2.6.4,3.7.4,3.2.3,6.5,1.5,9.6.4,1,.3,2.2.3,3.3,0,1.6-.1,3.2.6,4.4-.5,2.6-2.5,2.6-4.5,3-1.7-.7-2.8-1.8-2.9-4.2-.1-1.7-1-3.5-1.6-5.2-1.1-3.2-1.1-6.6-2-9.9-.4-1.5-1.2-3.2-.1-4.8-1-2-.1-4.3-.8-6.3-.2-.7-.4-1.4-.2-2,1-2.6.4-5.2.5-7.8.1-1.6-.1-3.3.9-4.8.5-.8.2-1.7.2-2.6.1-2.8-.2-5.6,1.1-8.3,1-2.1.5-4.6,1.2-6.8,1.5-4.5,2.7-9.1,4.5-13.5,1.7-4.3,3.8-8.4,6.5-12.2.6-.9,1.3-1.7,2.3-2.4,2.6,1.3,3.8,3.7,4.1,6.4.2,1.5-.3,3.1-.5,4.6-.4,2.6-1.2,5.1-1.9,7.6-.9,3.5-2.5,6.8-3.4,10.4-.7,2.6-1.7,5.1-2.5,7.7-1.4,4.6-3.1,9.2-2.8,14.1.1,2.2-1,4.2-.6,6.4.1.6,0,1.2,0,2,2-.1,3.2,1.6,5.1,2,2.6-1.4,3.4-4.5,5.5-6.5,2.2-2.1,2.8-5.3,4.6-7.8,1.7-2.4,2-5.4,3-8.4,2.6,2.1,2.9,4.2,2.3,6.7-1,4.2-3.7,7.5-5.3,11.4-.4,1.1-1.4,1.8-2.3,2.6-1.4,1.2-2.6,2.5-3.4,4,.1,1,.7,1.4,1.2,1.9,3.9,3.7,7.7,7.5,12.2,10.5,1.5,1,3,1.8,4.9,1.5.7-.1,1.4-.1,2.1-.1l-.3-.2Z"/>
      <path class="cls-1" d="M788.85,367.01c2,3.1,4.1,6.1,5.5,10,.8-2,.8-3.6,1-5.1.6-3.8.3-7.7.9-11.5.2-1.2.2-2.4.2-3.6.1-3.9.9-7.7,1.2-11.5.3-4.1.9-8.2.8-12.4-.1-2.5-.5-5.1.4-7.5-1.2-3.7,0-7.6-.9-11.4-.5-2-1-4.2-.8-6.4.1-1.1-.5-1.9-.9-2.9q-.5-1.3.7-3.1c1.3.6,2.7.9,4.3.2,1.1,2,2.5,3.7,3.9,5.4,2.5,3.1,3.5,7,3.9,10.9.2,2.4.6,4.8.7,7.2.2,3.5-.8,6.9-.6,10.4,0,1-.4,2-1,2.6-2.1,1.8-2.2,4.4-2.4,6.8-.3,3-1.4,5.8-1.6,8.8-.2,3-1.7,5.7-1.5,8.8.1,1-.7,1.7-.9,2.6-.8,3.4-1.6,6.8-2.5,10.2-.5,2.1-.8,4.3-1.5,6.3-.8,2.5-2.1,4.7-5,5.4-1.4-.5-2.3-1.7-3.1-3-1.1-1.8-2.1-3.7-3-5.7-3.5-7.6-8-14.5-12.6-21.4-4.2-6.2-8.3-12.5-11.7-19.2-1-1.9-2.2-3.7-3.5-6-.2,1.6-.3,2.9-1.4,3.5.2,3.6-.3,7,.6,10.3.2.8,0,1.7,0,2.5v27c0,2.9.5,5.7,1,8.6.3,1.5.4,3,0,4.6-.4,1.6-1,3-2.6,3.5-1.3.4-2,1.7-3.1,2.3-1.6-.2-2.3-1.4-2.7-2.7-1.2-3.5-2.2-7.1-2.7-10.8-.5-3.5-1.2-6.9-1.6-10.4-.3-2.5-.4-5-.6-7.5-.5-6.1-.5-12.3-.8-18.4-.4-6.9-.5-13.8-.4-20.7,0-3.3.6-6.6,1-9.9.2-1.9.3-3.8-.5-5.7,1.1-.7,1.1-2.3,2.4-2.8,5.5,3,8.3,8.5,11.7,13.6,2.8,4.2,4.8,8.8,7.4,13.1,3.1,5.2,6.2,10.4,9.5,15.5,3.1,4.7,6.4,9.2,9.6,13.8,1.3,1.9,2.5,3.8,3.7,5.7h-.5Z"/>
      <path class="cls-1" d="M826.24,357.81c-.5.2-1,.4-1.5.9-.3.7-.4,1.4-.4,2.1s0,1.4-.2,2.1c-.2.5-.1,1.1-.1,1.7,0,1-.2,2,.2,2.9-.2,1.1.3,2.1.5,3.1,0,.2,0,.4.1.5.5.6.7,1.3,1.2,2,.4.2.9.5,1.3.7.6.1,1.1-.1,1.6.2,1.1-.2,2.2-.1,3.2-.6,1.3-.7,2.7-1.3,3.9-2.3.6-.5,1.3-.9,1.9-1.4.9-.7,1.8-1.3,2.6-2.1.7-.7,1.4-1.4,2.1-2.1.8-.9,1.5-1.9,2.3-2.9.6-.8,1.2-1.6,1.7-2.5,1-1.6,2.1-3.2,3-4.9.4-.7.8-1.3,1.2-2,.7-1.3,1.3-2.6,1.7-4.1.5-1.3,1.7-2,3-2.7h1.1c.4,0,.7.4,1.1.3.2.3.4.5.5.7v.1c0,.8.1,1.6-.1,2.4-.2.8-.5,1.5-.7,2.2-.1.5-.3.9-.3,1.4,0,.4-.1.8-.2,1.1-.6,1.3-1.2,2.6-1.8,3.9-.1.1-.1.3-.2.4-.7.6-1,1.5-1.5,2.3-.4.6-.9,1.1-1.2,1.7-.4.6-.9,1.1-1.4,1.6-.8.8-1.6,1.6-2.4,2.4-.3.3-.6.5-.7.9,0,.1-.1.2-.2.3-.9.5-1.5,1.4-2.3,2-1,.8-2,1.6-3,2.4-.7.5-1.3,1.1-2,1.6-.8.6-1.5,1.3-2.5,1.6-.2.1-.4.2-.6.3-1.1.8-2.4,1.2-3.6,1.6-.8.3-1.6.5-2.5.4-.2,0-.4,0-.6.1-1.3.5-2.6.2-3.9-.2-1.3-.4-2.5-.9-3.6-1.6-.1-.1-.3-.1-.4-.2-.8-.8-1.8-1.3-2.4-2.3-.1-.2-.3-.4-.5-.6-1-.7-1.7-1.7-2.3-2.7-.9-1.3-1.5-2.7-1.5-4.3,0-.3,0-.6-.1-.9-.1-.1-.2-.2-.2-.3.1-1.2-.2-2.4-.3-3.6,0-.4,0-.8-.2-1.2.3-.5.3-1.1.3-1.7-.1-.7,0-1.4.3-2l2.1-4.8c.3-.7.7-1.4,1.2-2,.1-.2.2-.4.3-.6.5-.7.9-1.4,1.5-2,.4-.4.6-1,1-1.4.5-.4.9-.9,1.3-1.3.4-.4.9-.8,1.4-1.1,1.1-.8,2.2-1.7,3.5-2.2.6-.2,1.3-.3,1.7-.7,1.5-.2,2.9.1,4.3.5.3.1.6.2.9.3.9.1,1.7.5,2.3,1.1.7.6,1.4,1.1,2.2,1.6.1.1.2.1.3.2.4.4.9.8,1.2,1.3.5.8,1.3,1.3,1.7,2.2-.1.4-.2.8-.3,1.2-.5.5-.9,1-1.2,1.3-1.4.6-2.6,1.1-3.8,1.6-.7.3-1.3.8-2.1.8-.1,0-.2.1-.3.2-1.2.9-2.6,1.5-3.9,2.2-.4.2-.8.5-1.2.7-1.3.5-2.4,1.4-3.7,1.9l.2.3ZM834.14,344.91h-1.2c-.8.7-1.4,1.5-2.3,1.9-1.9,1.8-3.6,3.8-4.7,6.3.5,0,.7-.4,1-.5.4-.1.8-.2,1.2-.4,1.2-.7,2.4-1.4,3.6-2.1.2-.1.4-.2.6-.3.3-.1.6-.2.9-.4.8-.4,1.6-.8,2.5-1.1.4-.1.8-.2,1-.6-.6-.7-1.2-1.4-1.8-2.2-.2-.3-.5-.4-.8-.5v-.1Z"/>
      <path class="cls-1" d="M863.54,364.21c.3.6.6,1.2.7,1.9.1-.2.3-.4.3-.6,0-1.2.4-2.4.6-3.6.1-.7.5-1.4.8-2.1.2-.4.4-.8.6-1.2.6-1.1,1.1-2.2,1.5-3.4.2-.6.5-1.2.8-1.8.3-.6.6-1.2.9-1.8,1.2-2.2,2.1-4.5,2.9-6.9.5-1.6,1.1-3.1,1.9-4.6.7-1.4,1.3-2.9,2.2-4.2.5-1.7,1.5-3.1,2.1-4.7.4-1.2.9-2.4,1.6-3.4.7-1,1.3-2.1,2.4-2.7.3-.2.6-.3.8-.4.4,0,.6.1.7.3,0,.1.1.2.1.3v.9c0,.6,0,1.1.3,1.6-.2.5-.4.9-.3,1.4.1.6,0,1.2-.3,1.7-.3.6-.2,1.3-.4,1.9-.2.9-.6,1.7-1,2.5-.6,1.2-.9,2.6-1.8,3.6-.3.8-.8,1.5-1.1,2.3-.3.8-.7,1.6-1,2.4-.5,1.3-1,2.6-1.5,3.9,0,.1-.1.2-.2.3-.9,1.6-1.6,3.3-2.6,4.8-.2.3-.4.7-.5,1.1-.3.9-.6,1.8-1,2.7-.4.9-.9,1.7-1.4,2.5-.2.3-.4.6-.6.9v.9c.1,1.1-.2,2.1-.5,3.1-.1.4-.3.8-.6,1.1-1,1.2-1.5,2.6-1.9,4.1.1.8-.5,1.4-.6,2.2-.4.4-.4,1-.7,1.5-.2.3-.4.6-.6.9,0,.3,0,.6.2.9.1.2.2.5.3.7,0,.3-.2.4-.4.6.4,1,0,1.8-.7,2.5-.3.2-.5.5-.6.6-.6.4-1.2.1-1.5.5-1.6-.2-2.8-1-3.8-2-.4-.2-.9,0-1.2-.5,0,0-.1-.1-.1-.2.2-1.5-.3-2.9-.6-4.3-.3-1.2-.7-2.4-1-3.6v-.6c0-.5-.1-.9-.3-1.3-.2-.5-.3-1-.4-1.5-.1-1-.4-2-.6-3-.3-1.3-.5-2.6-.9-3.9,0-1.1-.5-2.1-.3-3.2.1-.6-.3-1.1-.3-1.7s.1-1.2-.1-1.7c-.3-.7-.1-1.5-.5-2.2-.1-.1-.1-.3-.1-.5,0-.5,0-.9-.2-1.3-.1-.3,0-.7,0-1,0-.4,0-.8-.1-1.2-.1-.4,0-.8,0-1.2,0-.6.2-1.3-.1-1.9-.1-.1-.1-.3-.1-.4.1-1.3-.4-2.5-.6-3.8-.3-.5-.2-1.1-.2-1.7v-2c.3-1,.8-1.6,1.7-1.8,1.6.5,2.8,1.6,3.9,2.9v1.1c.1.2.2.4.3.6.4.8.8,1.6.8,2.5,0,.1.1.2.2.3.5,1.1.5,2.4,1,3.5,0,1.1.5,2.1.4,3.2,0,.5.1.9.3,1.3.2.7.4,1.4.5,2.1.1.7.4,1.4.3,2.2.3,1,.4,2.1.6,3.2,0,.1.1.2.1.3-.1.8.3,1.5.3,2.2,0,.8.3,1.5.5,2.2.2.7.4,1.4.7,2.1.1.3.2.6.2.9,0,.2,0,.4.1.6l-.3.1Z"/>
      <path class="cls-1" d="M893.34,357.81c-.5.2-1,.4-1.5.9-.3.7-.4,1.4-.4,2.1s0,1.4-.2,2.1c-.2.5-.1,1.1-.1,1.7,0,1-.2,2,.2,2.9-.2,1.1.3,2.1.5,3.1,0,.2,0,.4.1.5.5.6.7,1.3,1.2,2,.4.2.9.5,1.3.7.6.1,1.1-.1,1.6.2,1.1-.2,2.2-.1,3.2-.6,1.3-.7,2.7-1.3,3.9-2.3.6-.5,1.3-.9,1.9-1.4.9-.7,1.8-1.3,2.6-2.1.7-.7,1.4-1.4,2.1-2.1.8-.9,1.5-1.9,2.3-2.9.6-.8,1.2-1.6,1.7-2.5,1-1.6,2.1-3.2,3-4.9.4-.7.8-1.3,1.2-2,.7-1.3,1.3-2.6,1.7-4.1.5-1.3,1.7-2,3-2.7h1.1c.4,0,.7.4,1.1.3.2.3.4.5.5.7v.1c0,.8.1,1.6-.1,2.4-.2.8-.5,1.5-.7,2.2-.1.5-.3.9-.3,1.4,0,.4-.1.8-.2,1.1-.6,1.3-1.2,2.6-1.8,3.9-.1.1-.1.3-.2.4-.7.6-1,1.5-1.5,2.3-.4.6-.9,1.1-1.2,1.7-.4.6-.9,1.1-1.4,1.6-.8.8-1.6,1.6-2.4,2.4-.3.3-.6.5-.7.9,0,.1-.1.2-.2.3-.9.5-1.5,1.4-2.3,2-1,.8-2,1.6-3,2.4-.7.5-1.3,1.1-2,1.6-.8.6-1.5,1.3-2.5,1.6-.2.1-.4.2-.6.3-1.1.8-2.4,1.2-3.6,1.6-.8.3-1.6.5-2.5.4-.2,0-.4,0-.6.1-1.3.5-2.6.2-3.9-.2-1.3-.4-2.5-.9-3.6-1.6-.1-.1-.3-.1-.4-.2-.8-.8-1.8-1.3-2.4-2.3-.1-.2-.3-.4-.5-.6-1-.7-1.7-1.7-2.3-2.7-.9-1.3-1.5-2.7-1.5-4.3,0-.3,0-.6-.1-.9-.1-.1-.2-.2-.2-.3.1-1.2-.2-2.4-.3-3.6,0-.4,0-.8-.2-1.2.3-.5.3-1.1.3-1.7-.1-.7,0-1.4.3-2l2.1-4.8c.3-.7.7-1.4,1.2-2,.1-.2.2-.4.3-.6.5-.7.9-1.4,1.5-2,.4-.4.6-1,1-1.4.5-.4.9-.9,1.3-1.3.4-.4.9-.8,1.4-1.1,1.1-.8,2.2-1.7,3.5-2.2.6-.2,1.3-.3,1.7-.7,1.5-.2,2.9.1,4.3.5.3.1.6.2.9.3.9.1,1.7.5,2.3,1.1.7.6,1.4,1.1,2.2,1.6.1.1.2.1.3.2.4.4.9.8,1.2,1.3.5.8,1.3,1.3,1.7,2.2-.1.4-.2.8-.3,1.2-.5.5-.9,1-1.2,1.3-1.4.6-2.6,1.1-3.8,1.6-.7.3-1.3.8-2.1.8-.1,0-.2.1-.3.2-1.2.9-2.6,1.5-3.9,2.2-.4.2-.8.5-1.2.7-1.3.5-2.4,1.4-3.7,1.9l.2.3ZM901.24,344.91h-1.2c-.8.7-1.4,1.5-2.3,1.9-1.9,1.8-3.6,3.8-4.7,6.3.5,0,.7-.4,1-.5.4-.1.8-.2,1.2-.4,1.2-.7,2.4-1.4,3.6-2.1.2-.1.4-.2.6-.3.3-.1.6-.2.9-.4.8-.4,1.6-.8,2.5-1.1.4-.1.8-.2,1-.6-.6-.7-1.2-1.4-1.8-2.2-.2-.3-.5-.4-.8-.5v-.1Z"/>
      <path class="cls-1" d="M953.84,334.21c.2.6.4,1.2.4,1.9s-.2,1.3-.6,1.8c-.3.5-.7.7-1.1.9-.3.2-.6.4-.8.7-1.3.1-2.3-.7-2.6-1.9-.2-.9-.2-1.8-.1-2.7,0-.2-.1-.4-.1-.6-.1-.7-.2-1.4-.6-2-.7-.2-1.4-.1-2.1.3-.4.2-.9.4-1.4.5-.5.5-1.1.9-1.7,1.2-.4.2-.7.5-1,.8-.3.3-.6.6-1,.8-.6.3-1,.8-1.3,1.3-.2.3-.6.5-.8.9-.2.3-.5.6-.7.9-.6.8-1.4,1.4-1.9,2.3-.3.6-.8,1.1-1,1.7-.4,1-.9,1.9-1.4,2.8-.1.2-.1.4-.2.6-.1.2-.2.5-.4.7-.4.4-.5.9-.6,1.3-.1.3-.2.7-.3,1-.2.6-.3,1.2-.3,1.9,0,.3-.1.6-.2.9-.2.6-.4,1.3-.8,1.8-.2.2-.1.5-.2.7-.1.5-.2,1-.1,1.5.1.4-.1.9-.2,1.3-.2.8-.5,1.6-.8,2.4,0,.1-.1.1-.1.2.1.5,0,1.1,0,1.6,0,.2-.1.5,0,.7.1.1.1.2,0,.3-.1.1-.1.2-.1.3.2.9.2,1.8,0,2.7v.3c.1.5-.1,1-.1,1.5,0,.2,0,.4-.1.6,0,.1-.1.2-.1.3.2.4.1.9.2,1.3.2.8.1,1.6.3,2.4.2.5.1,1,0,1.5s-.1,1,.1,1.5c-.1.6-.7,1.1-.3,1.7,0,.2-.2.3-.2.4.1.2.3.4.3.6s-.2.3-.3.4c-.2.3-.4.6-.3,1v.3c0,.2-.1.3-.2.5-.3.2-.7.4-1,.7-.4.4-1,.4-1.5.2s-1-.2-1.6-.5c-.5-.4-.8-1.1-1.1-1.8-.4-1-.6-2-.8-3-.1-.6-.4-1.2-.5-1.8-.2-1-.5-2-.7-3.1-.1-.4-.3-.7-.4-1.1-.2-1-.5-2-.7-3-.2-.9-.3-1.8-.4-2.7v-.3c0-.9-.2-1.8-.3-2.7-.1-.9-.3-1.8-.4-2.7-.1-1-.2-2-.3-3-.1-.9-.2-1.8-.3-2.7-.3-2.3-.2-4.6-.2-6.9,0-.6-.1-1.3,0-1.9.1-.5.1-1,.2-1.5.1-.6.3-1.2.2-1.8-.1-.4.1-.8.2-1.2.1-.7.2-1.4.4-2.1.1-.6.2-1.2.5-1.8.3-.5.5-1.1.6-1.7.1-.6.4-1.1.5-1.7.1-.5.2-1,.3-1.5.1-.5.2-1,.5-1.5.2-.3.4-.5.8-.5.7.1,1.4.3,2.1.7.4.6.9,1.3,1.1,2.2-.3.9-.2,1.8,0,2.7.1.4.3.8.1,1.2v.3c.3.9.3,1.8.4,2.7.1.4.2.8.2,1.2,0,.3,0,.6-.2.9.2.3.3.7.3,1.1s.1.8.2,1.2c.2.7.2,1.5.4,2.3.1.6.3,1.2.4,1.9,0,.5,0,1,.3,1.5.5-1,1-2,1.3-3.1.3-.9.7-1.8,1.2-2.6.7-1.1,1.4-2.2,2.1-3.3.3-.4.7-.7,1-1.1,1.1-1.4,2.3-2.7,3.6-3.9.7-.7,1.5-1.3,2.3-1.9.6-.4,1.3-.8,2-1.2,1-.6,2-1.1,3.2-1.3.5-.1,1-.2,1.5-.1.3,0,.7-.1,1-.1.9,0,1.7.3,2.5.7.5.3.9.7,1.3,1.1.3.3.4.7.7,1,.1.1.2.3.3.4.5.4.8,1,1,1.6l.5-.3Z"/>
      <path class="cls-1" d="M988.24,309.51c-.1-2.7-.3-5.4-.4-7.8.7-1.1,1.3-1.3,1.9-1.2,4.3.4,7.7,2.3,10.1,5.9,1.6,2.4,2.3,5,2.7,7.9.7,5.3,2,10.6,1.9,16,0,3.8,0,7.6.3,11.4.1,1.8.2.8.2,2.6,0,1.9,0,.3-.4,2.1-1,4.3-1.1,8.6-.8,12.9,0,.5.1,1,.2,1.6,1.1.4,2.2.2,3.2-.1,4.5-1.1,9.1-1.6,13.7-1.9,1.7-.1,3.4.1,5-.8.2-.1.6-.1.9,0,2.9.7,5.8-.2,8.6.2,2.1.3,4.1.1,6.1.1.7-.6.4-1.3.4-2,0-3.7.5-7.4.8-11.1.2-3.4,1-.5,1-4,0-2.2-.1-4.5.4-6.7.1-.7.1-1.4.1-2.1-.2-3,.4-6,.5-9,.1-3.2.4-6.4.3-9.7-.2-3.7.2-7.4,1-11,.1-.4.3-.7.4-1,1.5-1.1,2.8-.1,4.2.1,1.1,1.6,1.8,3.4,1.8,5.4,0,.9,0,1.8.5,2.6.4.7.4,1.5.3,2.2-.6,4,.5,8,.2,12-.2,2.8-.4,5.6-.9,8.4-.2,1.1-.1,2.2-.2,3.3-.3.6-.9,1-1,1.9-.5,3.3-1.1.4-1.9,3.6-.6,2.2.2,4.5-.6,6.7-.2.4-.1.9-.3,1.3-1.5,3.6-1.2,7.5-2,11.2-1,4.8-.8,9.7-2.5,14.4-.8,2.2-.6,4.8-1.2,7.1-1.7.9-2.6,0-3.6-1.4.8-2.2.3-4.6.3-7,0-.9.3-1.8.5-2.7.7-3,1.3-6,1.2-9.3-2.8,1.1-5.5-.1-8.2.2-2.9.3-5.8.8-8.8.5-1.4-.1-2.5.7-3.8.9-4.4.6-8.8,1.3-13.1,2.5-.9.2-1.6.7-2.3,1.3-.4,2,.9,3.8.8,5.8-.1,1.9,0,3.9.5,5.8.5,1.9,1.4,3.7,1.3,5.7-1.3,1.3-2.9,1.8-4.3,2.8-1.5.1-2.2-.9-2.8-2.1-1.6-2.9-2.8-5.9-3.5-9-.7-3.3-1.8-6.5-2.6-9.8-.5-1.9-.8-3.8-1.2-5.7-1-4.6-1.8-9.2-2.7-13.8-.4-1.9-.3-3.9-.4-5.9-.5-8.8-2.2-11.3-2.2-20.1,0-3.1,0-6.2.5-9.3.1-.9,0-1.8,0-2.7l-.1.8Z"/>
      <path class="cls-1" d="M1059.53,338.21c0-.3.2-.7.6-1,.4,0,.7.4,1.1.1.8.5,1.8.8,2.2,1.8.9,1,1.4,2.2,2.1,3.3v.9c.1,1-.2,2-.4,3-.1.5-.2.9,0,1.4.2.3.1.6,0,1-.4,1.2-.7,2.4-.7,3.6-.2.4-.4.8-.5,1-.1.5,0,.8.2,1.1-.3,1.3-.2,2.7-.7,4,.1.2.2.4.3.6-.1.3-.3.6-.2.9.1.7,0,1.4,0,2.1,0,.9.2,1.7.4,2.6.1.3.4.5.6.7h.3c.4-.2.8-.4,1.1-.7.9-1,1.9-1.9,2.7-2.9.9-1.1,1.9-2,2.8-3,.5-.6,1-1.2,1.4-1.9.3-.6.7-1.1,1.1-1.6.3-.4.6-.8.9-1.2,1-1.3,2-2.6,2.9-4,.8-1.3,1.7-2.5,2.2-3.9.1-.2.2-.4.3-.6,0-.6.1-1.2-.2-1.8-.1-.3-.1-.7.1-1.1.6-.5,1.3-.8,2.1-.3,1.2.2,2.3.6,3.4,1.2.2.1.3.2.4.3.2.3.1.6.1.9,0,.6-.1,1.3,0,1.9.1,1.1-.2,2.2-.3,3.3-.4.6-.3,1.3-.3,2,0,.6.1,1.2-.2,1.8-.1.1-.1.3-.1.5,0,.6,0,1.2-.3,1.8-.1.2,0,.5,0,.8,0,.4,0,.8-.2,1.2-.1.2-.1.5-.1.7,0,.3.1.6,0,.8-.3.7-.2,1.4-.2,2.1s.2,1.5-.1,2.2,0,1.5-.5,2.1v1.5c0,.6.1,1.2-.2,1.8-.1.3-.1.7,0,1,.3.6.2,1.2.2,1.8,0,.9-.1,1.8.2,2.7.1.3,0,.7,0,.9.1.3.2.4.4.5.8-.6,1.3-1.6,2-2.4.7-.8,1.5-1.5,2.1-2.4.6-.9,1.4-1.7,2-2.6.6-.9,1.3-1.7,1.9-2.6.6-.9,1.1-1.9,1.7-2.6.5-.2.9-.2,1.3-.1.1.1.2.2.2.3.1.4.2.8,0,1.2s-.1.9-.2,1.3c-.6,1.3-1.2,2.5-1.8,3.7-.3.6-.6,1.2-1,1.7-.3.5-.7.9-.9,1.4s-.7.8-.7,1.4c-.4.5-.8,1-1.2,1.5-.2.3-.4.6-.5.9-.4,1.2-1.4,1.9-2.2,2.7-.2.2-.6.4-.9.4-.6,0-1.1.3-1.8.3-1-.4-1.9-.9-2.7-1.6-.8-.7-1.3-1.5-1.5-2.5-.2-1.1-.7-2.1-.7-3.2,0-.1-.1-.2-.2-.3-.4-.8-.5-1.7-.5-2.6,0-.4,0-.8-.2-1.2-.1-.2-.1-.5-.1-.7v-3c0-.1,0-.3.1-.4.4-.8.3-1.7.3-2.6,0-.3,0-.6.2-.9.1-.2.1-.4.1-.6,0-.6,0-1.2.1-1.8.2-.6.1-1.3.1-2-.2-.1-.3,0-.4.1-.5.9-1,1.7-1.7,2.4-.2.2-.3.5-.4.7-.1.2-.2.4-.4.6-.5.5-1,1-1.4,1.6-1.2,1-2,2.3-3.2,3.4-.1.7-.6,1.2-1,1.8-.3.4-.8.6-1.3.8-1,.4-1.9.9-2.8,1.4h-1.5c-.6,0-1.2-.2-1.7-.5-.5-.3-1.1-.5-1.7-.7-.5-.2-1-.5-1.4-.9-.4-.5-.9-1-1.4-1.4-.7-.7-1.2-1.5-1.5-2.4-.4-1.3-.8-2.6-1.1-3.9-.1-.3-.1-.6-.1-.9v-5.4c0-.4,0-.8.2-1.1.1-.1.1-.3.1-.4-.2-1,.1-1.9.3-2.8.2-1,.2-2.1.5-3.1s.6-2,1-2.9c.3-.7.5-1.4.6-2.1.1-.9.6-1.7.7-2.6l-.3-.3Z"/>
      <path class="cls-1" d="M1129.14,334.21c.2.6.4,1.2.4,1.9s-.2,1.3-.6,1.8c-.3.5-.7.7-1.1.9-.3.2-.6.4-.8.7-1.3.1-2.3-.7-2.6-1.9-.2-.9-.2-1.8-.1-2.7,0-.2-.1-.4-.1-.6-.1-.7-.2-1.4-.6-2-.7-.2-1.4-.1-2.1.3-.4.2-.9.4-1.4.5-.5.5-1.1.9-1.7,1.2-.4.2-.7.5-1,.8-.3.3-.6.6-1,.8-.6.3-1,.8-1.3,1.3-.2.3-.6.5-.8.9-.2.3-.5.6-.7.9-.6.8-1.4,1.4-1.9,2.3-.3.6-.8,1.1-1,1.7-.4,1-.9,1.9-1.4,2.8-.1.2-.1.4-.2.6-.1.2-.2.5-.4.7-.4.4-.5.9-.6,1.3-.1.3-.2.7-.3,1-.2.6-.3,1.2-.3,1.9,0,.3-.1.6-.2.9-.2.6-.4,1.3-.8,1.8-.2.2-.1.5-.2.7-.1.5-.2,1-.1,1.5.1.4-.1.9-.2,1.3-.2.8-.5,1.6-.8,2.4,0,.1-.1.1-.1.2.1.5,0,1.1,0,1.6,0,.2-.1.5,0,.7.1.1.1.2,0,.3-.1.1-.1.2-.1.3.2.9.2,1.8,0,2.7v.3c.1.5-.1,1-.1,1.5,0,.2,0,.4-.1.6,0,.1-.1.2-.1.3.2.4.1.9.2,1.3.2.8.1,1.6.3,2.4.2.5.1,1,0,1.5s-.1,1,.1,1.5c-.1.6-.7,1.1-.3,1.7,0,.2-.2.3-.2.4.1.2.3.4.3.6s-.2.3-.3.4c-.2.3-.4.6-.3,1v.3c0,.2-.1.3-.2.5-.3.2-.7.4-1,.7-.4.4-1,.4-1.5.2s-1-.2-1.6-.5c-.5-.4-.8-1.1-1.1-1.8-.4-1-.6-2-.8-3-.1-.6-.4-1.2-.5-1.8-.2-1-.5-2-.7-3.1-.1-.4-.3-.7-.4-1.1-.2-1-.5-2-.7-3-.2-.9-.3-1.8-.4-2.7v-.3c0-.9-.2-1.8-.3-2.7-.1-.9-.3-1.8-.4-2.7-.1-1-.2-2-.3-3-.1-.9-.2-1.8-.3-2.7-.3-2.3-.2-4.6-.2-6.9,0-.6-.1-1.3,0-1.9.1-.5.1-1,.2-1.5.1-.6.3-1.2.2-1.8-.1-.4.1-.8.2-1.2.1-.7.2-1.4.4-2.1.1-.6.2-1.2.5-1.8.3-.5.5-1.1.6-1.7.1-.6.4-1.1.5-1.7.1-.5.2-1,.3-1.5.1-.5.2-1,.5-1.5.2-.3.4-.5.8-.5.7.1,1.4.3,2.1.7.4.6.9,1.3,1.1,2.2-.3.9-.2,1.8,0,2.7.1.4.3.8.1,1.2v.3c.3.9.3,1.8.4,2.7.1.4.2.8.2,1.2,0,.3,0,.6-.2.9.2.3.3.7.3,1.1s.1.8.2,1.2c.2.7.2,1.5.4,2.3.1.6.3,1.2.4,1.9,0,.5,0,1,.3,1.5.5-1,1-2,1.3-3.1.3-.9.7-1.8,1.2-2.6.7-1.1,1.4-2.2,2.1-3.3.3-.4.7-.7,1-1.1,1.1-1.4,2.3-2.7,3.6-3.9.7-.7,1.5-1.3,2.3-1.9.6-.4,1.3-.8,2-1.2,1-.6,2-1.1,3.2-1.3.5-.1,1-.2,1.5-.1.3,0,.7-.1,1-.1.9,0,1.7.3,2.5.7.5.3.9.7,1.3,1.1.3.3.4.7.7,1,.1.1.2.3.3.4.5.4.8,1,1,1.6l.5-.3Z"/>
      <path class="cls-1" d="M1139.53,378.22c-.2-.8-.4-1.6-.8-2.3-.1-.7,0-1.3-.3-1.9-.1-.2,0-.5,0-.8s.1-.6,0-.8c-.3-.8-.1-1.7-.1-2.6,0-.6.2-1.3-.1-1.9-.1-.1-.1-.3-.1-.5v-5.1c0-.4.2-.7,0-1.1-.1-.4,0-.8,0-1.2,0-.3-.1-.5-.2-.8.1-.3.2-.6.2-1v-1.8c0-.3,0-.6.1-.9.1-.2.1-.5.1-.8,0-.4,0-.8.2-1.2.1-.3.1-.6.1-.9v-4.5c0-.4,0-.8.1-1.2.1-.4.3-.8.5-1.3-.2-.4-.3-.9-.1-1.4.2-.6.1-1.3.4-1.9-.1-1.4.3-2.7.2-4.1,0-.4,0-.8.2-1.2.2-.5,0-1,.1-1.5-.5-.3-1-.2-1.5-.1-.4.1-.8.3-1.2.5-1.6-.6-3.2-.3-4.8.3-.6-.6-1.3-.9-2.1-1.4.5-.6.9-1.1,1.3-1.5,1.3,0,2.5-.3,3.7-.6.4-.1.8-.2,1.1-.3.3-.1.6-.2.9-.2.8.1,1.5-.3,2.2-.3.3-.2.7-.1.9-.2.3-.2.4-.4.4-.6.1-.7.1-1.4.3-2,.2-.6-.1-1.3.3-1.9,0-.6.3-1.2.3-1.8.1-.7.4-1.4.6-2.1.2-.7.4-1.4.6-2.1.3-1.1.6-2.2,1-3.3.3-1,.5-2,.7-3,.2-.3.4-.4.6-.5.2-.1.4-.3.6-.4,1.4.2,2.3,1.1,3.2,2.1.2.2.4.5.5.8.1.7.2,1.4.2,2.1,0,.9.1,1.8-.2,2.7-.1.3,0,.6,0,.9,0,.7.1,1.4-.2,2-.1.1-.1.3-.1.5.1.8-.1,1.5-.2,2.2-.1.3-.3.6-.3,1v1.5c.2.3.4.3.6.2.2,0,.4-.1.5-.1.9.1,1.8-.3,2.7-.3.4,0,.8-.3,1.2-.3,1,.1,1.9-.4,2.9-.3.1,0,.2,0,.3-.1.6-.3,1.2-.3,1.7-.1.7.2,1.4.1,2,.2.6.4.4.9.4,1.4-.7.5-1.5.9-2.3,1.3s-1.6.5-2.4.7c-.2.1-.4.2-.6.3h-.3c-1.1,0-2.1.3-3.1.6-.4.1-.8.2-1.2.2-.7.1-1.4.2-2,.4-.4.1-.8.3-1.1.8-.1.3,0,.7,0,1s0,.7-.2,1c-.2.3-.1.6-.1.9,0,.4,0,.8-.2,1.2-.1.3-.1.6-.1.9v6.6c0,.6.1,1.2-.2,1.8-.1.3,0,.7,0,1v9.3c0,.4.1.9-.2,1.3.1.4.3.8.3,1.3v2.1c0,.5-.1,1,.2,1.5.1.2,0,.5,0,.8v2.1c0,.3,0,.6.1.9.1.2.1.4.1.6,0,.6-.1,1.2.2,1.7.1.2.1.5.1.7v2.1c0,.5,0,1,.2,1.5.1.3,0,.7,0,1.1.3.7.6,1.5.9,2.3.1.3.3.6.6.8.1.1.3.1.6,0,.5-.3.9-.8,1.4-1.2.5-.4.9-.9,1.2-1.5.6-1.2,1.3-2.4,2-3.6.3-.1.6-.2.9-.4.2-.2.2-.7.5-.9h.3c.3.2.3.6.5.9-.1.3-.3.7-.5,1.1v1.1c-.1.2-.2.4-.3.5-.1.2-.3.4-.3.6-.1.7-.5,1.3-.8,1.9s-.5,1.2-.7,1.8c-.2.7-.5,1.4-1,2-.2.3-.4.6-.6.9,0,0-.1.1-.2.1q-1.2.8-2.6,1.1c-.3.1-.6.2-.9.3-.5.2-1,.4-1.5.4-.2,0-.4,0-.6.1-.7.2-1.4.1-2.1,0-1.2-.2-2-1-2.9-1.7-1-1.4-2.2-2.6-2.6-4.4l-.1-.1Z"/>
      <path class="cls-1" d="M1172.93,330.31c.4-.2.8-.1,1.2-.1,1.1.6,2.3.9,3.6,1.1.2,0,.4.1.6.2.4.1.8.3,1.3.5.3.3.7.7,1.1,1.1.7.7,1.4,1.4,2.3,1.9.7.4,1.3,1,1.9,1.5.2.2.4.4.5.5.4.2.7.1.9-.2.3-.4.6-.9.9-1.4.2-.3.4-.5.7-.7.7-.3,1.3-.1,1.9.2,1.2.7,2.1,1.6,2.5,3-.2.7-.6,1.4-1.3,1.9-.3.2-.5.5-.7.8-.5.7-1,1.4-1.7,2-.6.5-1,1.1-1.5,1.6s-.8,1.2-1.2,1.8c-.2.2-.4.4-.6.6h-1.5c-.9-.4-1.9-.7-2.2-1.9.2-1,.4-2,.6-3.1.1-.2.3-.4.5-.6v-1.4c-.3-.6-.6-1.3-.9-1.9-.5-.6-.9-1.2-1.9-1.4-.6.1-1.3-.1-2-.4-.6-.3-1.2-.2-1.9-.1-.9.2-1.7.6-2.5,1-.2.2-.4.4-.6.6-1.1.3-2,.9-2.8,1.7-.8.8-1.5,1.6-1.9,2.6-.4.8-.9,1.6-1.3,2.4,0,1.3.1,2,.4,3.2.1.3.1.6.2.9.4.9.9,1.8,1.7,2.3,1.5,1,2.9,2.1,4.4,3.1,1.4.9,2.8,1.8,4.1,2.9.5.4,1,.7,1.5.9,1.7.7,3.2,1.7,4.8,2.5,1,.5,1.9,1.2,2.8,1.8,1.1.8,1.9,1.9,3.1,2.7.7,1,1.8,1.8,2.4,3,.1.2.3.4.5.7.1.4-.1,1,.3,1.4-.2.8-.5,1.5-.8,2.2-.1.1-.2.2-.2.3,0,.9-.6,1.6-1.1,2.4-.7.3-1.2.8-1.5,1.5-.2.5-.5.9-.7,1.3-.4.4-.9.5-1.4.7-.5.6-1.2,1.2-1.6,1.9-.5.8-1.2,1.1-1.9,1.5-.1,0-.2,0-.2.1-.5.5-1.2.7-1.8,1.1-.8.5-1.7,1-2.4,1.8h-1c-.4.3-.9.7-1.7,1-.2.2-.5.6-.7.9-.5.1-.8.1-1.1.2-.7.3-1.4.3-2.1.1-.5-.2-1-.2-1.5,0-.5.2-1,.2-1.5,0-.2-.1-.5-.1-.8-.1-1.4-.9-2.6-2.1-4-2.9-.4-.2-.8-.6-1-1-.3-.6-.8-1-1.1-1.5-.3-.8.1-1.4.3-2,.2-.6.5-1.2.7-1.8.4-1.2,1-2.2,1.9-3.1.7-.7,1.3-1.4,2.3-1.8h1.6c.4.3.7.6,1,1,0,.2,0,.4-.1.5-.4.7-.8,1.4-1.2,2.1-.1.2-.3.3-.5.4-.3.7-.6,1.4-1,2-.4.7-.6,1.4-.5,2.2.4.6,1.1.7,1.5,1,1.1.3,2-.4,3-.2.1-.2.2-.4.3-.5.4-.4.8-.7,1.2-1.1.4-.4.7-.9,1.2-1.1.1,0,.2-.1.3-.2,1.2-1.4,2.8-2.4,4-3.8.5-.9.9-1.8,1.4-2.6.9-1.3,1.3-2.8,1.9-4.2.2-.5.1-1-.2-1.4-.6-.8-1.2-1.6-2.1-2-1.7-.8-3.2-1.9-4.7-3-1.1-.8-2.1-1.6-3.3-2.1-.1-.1-.2-.2-.3-.3-.6-.7-1.5-1.1-2.3-1.6-1.1-.7-2.2-1.4-3-2.5-.8-.4-1.4-1.1-2.1-1.7-1.6-1.2-3-2.6-4-4.3-.5-.9-.9-1.8-1.2-2.8-.2-.7-.4-1.3-.5-2,0-.6-.2-1.2-.1-1.9,0-.4,0-.8.2-1.2.1-.2.1-.5.1-.7,0-1.3.4-2.5,1.1-3.6,1.3-.9,2.3-2.2,3.6-3.3.9-.3,1.6-1.3,2.8-1.3,1.1-.9,2.3-1.5,3.7-1.6.6-.3,1.3-.2,2-.2.4,0,.8,0,1.2-.2l-.3.2Z"/>
    </g>
  </g>
  <g id="Layer_3" data-name="Layer 3">
    <line class="cls-2" x1="698.32" y1="419.72" x2="698.32" y2="498.92"/>
    <polygon class="cls-2" points="729.19 502.94 697.99 534.15 668.79 504.96 729.19 502.94"/>
  </g>
</svg>