<?xml version="1.0" encoding="UTF-8"?>
<svg xmlns="http://www.w3.org/2000/svg" viewBox="0 0 1920 1080">
  <defs>
    <style>
      .cls-1, .cls-2, .cls-3, .cls-4, .cls-5, .cls-6, .cls-7, .cls-8, .cls-9, .cls-10, .cls-11, .cls-12, .cls-13, .cls-14, .cls-15, .cls-16, .cls-17, .cls-18, .cls-19, .cls-20, .cls-21, .cls-22, .cls-23, .cls-24, .cls-25, .cls-26, .cls-27, .cls-28 {
        stroke-miterlimit: 10;
      }

      .cls-1, .cls-4, .cls-6, .cls-13 {
        stroke-width: .75px;
      }

      .cls-1, .cls-5, .cls-7, .cls-17, .cls-20, .cls-21, .cls-22, .cls-23 {
        stroke: #554434;
      }

      .cls-1, .cls-13, .cls-21, .cls-26 {
        fill: #ecd6c1;
      }

      .cls-2, .cls-4, .cls-6, .cls-14, .cls-27 {
        stroke: #000;
      }

      .cls-2, .cls-6, .cls-27, .cls-29 {
        fill: #d8bea7;
      }

      .cls-3, .cls-10, .cls-13, .cls-15, .cls-26, .cls-28 {
        stroke: #564433;
      }

      .cls-3, .cls-22 {
        fill: #efdecf;
      }

      .cls-4, .cls-30, .cls-8, .cls-12, .cls-14, .cls-15, .cls-16, .cls-18, .cls-23, .cls-24 {
        fill: none;
      }

      .cls-31 {
        fill: #231f20;
      }

      .cls-32 {
        fill: #7e6d55;
      }

      .cls-5 {
        fill: #e8dad1;
      }

      .cls-33, .cls-7 {
        fill: #554434;
      }

      .cls-8 {
        stroke-width: 7px;
      }

      .cls-8, .cls-11, .cls-12, .cls-16, .cls-19 {
        stroke: #1e1e1e;
      }

      .cls-9, .cls-10, .cls-20 {
        fill: #fff;
      }

      .cls-9, .cls-25 {
        stroke: #4b4e4d;
      }

      .cls-11 {
        fill: #976443;
      }

      .cls-14, .cls-18, .cls-24 {
        stroke-width: .25px;
      }

      .cls-16 {
        stroke-width: 6px;
      }

      .cls-17, .cls-28 {
        fill: #7e6d53;
      }

      .cls-34 {
        fill: #ef628b;
      }

      .cls-18, .cls-24 {
        stroke: #7e6d55;
      }

      .cls-19, .cls-35 {
        fill: #1e1e1e;
      }

      .cls-20, .cls-21, .cls-27 {
        stroke-width: .5px;
      }

      .cls-36 {
        fill: #c6a992;
      }

      .cls-24 {
        stroke-dasharray: 3.97 3.97;
      }

      .cls-37 {
        fill: #f4e1d5;
        opacity: .32;
      }

      .cls-25 {
        fill: #806a59;
      }

      .cls-38 {
        fill: #564433;
      }
    </style>
  </defs>
  <g id="Layer_6" data-name="Layer 6">
    <line class="cls-23" x1="556.08" y1="576.76" x2="549.69" y2="566.96"/>
  </g>
  <g id="chair_outline" data-name="chair outline">
    <path class="cls-8" d="M679.34,722.3s15.29-48.76,37.74-53.41,18.97,19.27,18.97,19.27l-44.13,138.27s-.85,3.89-17.17,6.26c-16.72,2.43-49.69,3.26-114.64-3.32"/>
    <line class="cls-16" x1="716.29" y1="671.42" x2="669.55" y2="819.75"/>
    <line class="cls-16" x1="729.29" y1="669.82" x2="681.45" y2="820.76"/>
    <path class="cls-8" d="M671.4,832.6s11.99,7.45,15.86,17.78c3.87,10.33,18.11,147.25,18.11,147.25"/>
    <path class="cls-8" d="M657.06,834.78s6.97,7.08,10.26,19.65,13.26,142.7,13.26,142.7"/>
    <path class="cls-8" d="M600.78,833.54s-13.01,10.68-14.17,14.88-20.88,148.7-20.88,148.7"/>
    <path class="cls-8" d="M578.89,832.6s-10.86,9.82-10.86,15.82-22.05,137.72-22.05,137.72"/>
  </g>
  <g id="Layer_40" data-name="Layer 40">
    <path class="cls-8" d="M298.49,834.89c-64.95,6.35-97.91,5.55-114.64,3.2s-17.17-6.04-17.17-6.04l-44.13-133.39s-3.48-23.07,18.97-18.59c22.45,4.49,42.7,79.97,42.7,79.97"/>
    <line class="cls-16" x1="142.31" y1="682.5" x2="189.05" y2="825.61"/>
    <line class="cls-16" x1="129.31" y1="680.97" x2="177.15" y2="826.58"/>
    <path class="cls-8" d="M187.2,838.01s-11.99,7.19-15.86,17.16c-3.87,9.97-18.11,142.06-18.11,142.06"/>
    <path class="cls-8" d="M201.54,840.1s-6.97,6.83-10.26,18.96-13.26,137.66-13.26,137.66"/>
    <path class="cls-8" d="M257.82,838.91s13.01,10.3,14.17,14.36,20.88,143.45,20.88,143.45"/>
    <path class="cls-8" d="M279.71,838.01s10.86,9.47,10.86,15.26,22.05,132.86,22.05,132.86"/>
    <ellipse class="cls-11" cx="233.94" cy="829.31" rx="64.66" ry="9.6"/>
  </g>
  <g id="chair_cushion" data-name="chair cushion">
    <ellipse class="cls-11" cx="624.66" cy="823.59" rx="64.66" ry="9.95"/>
  </g>
  <g id="back_hair" data-name="back hair">
    <path class="cls-7" d="M363.72,576.41s12.11,10.79,6.92,26.38-8.95,21.57-6.56,27.06-20.25-25.29-10.23-50.23c10.02-24.94,9.87-3.21,9.87-3.21Z"/>
  </g>
  <g id="g_hand_detail" data-name="g hand detail">
    <polyline class="cls-21" points="403.74 570.83 406.54 578.35 406.71 589.8"/>
    <polygon class="cls-21" points="399.58 589.8 402.67 591.57 407.09 583.8 406.19 576.31 403.58 571.28 402.03 572.73 401.87 575.9 401.87 579.25 401.47 580.53 401.35 583.25 400.16 586.06 398.71 589.8 399.58 589.8"/>
  </g>
  <g id="m_leg" data-name="m leg">
    <polygon class="cls-3" points="517.13 927.23 520.7 951.52 554.42 953.79 540.57 919.38 517.13 927.23"/>
  </g>
  <g id="m_leg-2" data-name="m leg">
    <path class="cls-3" d="M526.85,924.26s6.06,6.39,8.19,32.98c2.13,26.59,27.1,9.84,27.1,9.84l5.32-13.4s-12.19-30.88-8.71-34.55-31.9,5.13-31.9,5.13Z"/>
    <path class="cls-3" d="M319.84,912.78s-4.26,32.13-13.03,46.71,19.61,8,19.61,8l15.74-16.13s6.71-33.29,9.03-34.45-29.68-6.97-31.35-4.13Z"/>
    <path class="cls-3" d="M293.1,905.04l-18.45,13.42s-6.97,11.74-1.03,17.16,14.84,6.32,14.84,6.32l8.52-.9,14.32-19.06-18.19-16.94Z"/>
  </g>
  <g id="m_shoes" data-name="m shoes">
    <path class="cls-10" d="M525.59,949.22s-1.78-7.57-8.65-6.63-6.87,7.43-6.87,7.43c0,0-2.23,0-5.61,3.77s-5.61,3.25-5.42,5.23-5.42-.42-6.19,1.88-4.55,1.47-4.35,3.25-15.43-3.12-16.04,10.06l39.85,3.45,16.74-15.08-3.44-13.37Z"/>
    <path class="cls-10" d="M293.97,934.47s2.97-5.53,8.12-4.26c5.15,1.27,4.22,8.93,4.55,11.74s10.37,29.78,21.01,36.74,4.36,21.95-4.1,18.43c-8.45-3.52-39.52-18.55-76.69-55.52,0,0-2.07-3.2,6.63-11.29s17.64-17.1,20.42-13.39c2.78,3.71-4.72,21.91,20.06,17.56Z"/>
    <path class="cls-38" d="M304.61,943.68c-1.85-1.23-6.73-4.58-8.28-1.66-.19.42-.26.88-.31,1.34,0-.46.03-.93.19-1.38,1.45-3.29,6.79-.29,8.95.88,0,0-.56.83-.56.83h0Z"/>
    <path class="cls-38" d="M306.61,949.08c-1.78-.94-7.93-4.38-8.53-.92-.07.47.02.95.09,1.43-.12-.47-.24-.94-.22-1.44.38-3.82,7.08-.83,9.12.05,0,0-.47.88-.47.88h0Z"/>
    <path class="cls-38" d="M308.51,954.15c-2.83-2.02-8.78-5.15-7.81,1.15-.2-.96-.36-1.99.02-2.98,1.47-2.85,6.36-.08,8.35,1,0,0-.56.83-.56.83h0Z"/>
    <path class="cls-38" d="M311.58,960.16c-2.77-1.87-11.42-7.04-7.93.57-.51-1.03-1.11-2.09-1.02-3.29.69-3.12,7.81,1,9.48,1.88,0,0-.53.85-.53.85h0Z"/>
    <path class="cls-38" d="M314.02,964.68c-2.37-1.96-8.23-5.75-7.69.23-.06-.47-.12-.94-.09-1.43.36-4.58,6.32-.96,8.39.41,0,0-.61.79-.61.79h0Z"/>
    <path class="cls-38" d="M315.77,967.38c-2.26-.7-8.25-2.13-6.98,2.14-.29-.72-.52-1.65.02-2.39.55-.72,1.46-.92,2.27-1.04,1.67-.19,3.3,0,4.95.33,0,0-.26.96-.26.96h0Z"/>
    <path class="cls-38" d="M294.41,934.24c.51,1.33,1,2.65,1.24,4.05.05.45.16.98-.12,1.38.2-.43,0-.9-.12-1.32-.47-1.29-1.18-2.5-1.89-3.66,0,0,.89-.46.89-.46h0Z"/>
    <path class="cls-15" d="M329.73,988.2s-5.31,3.91-26.46-10.71c-.21-.15-.43-.3-.65-.45-11.76-8.21-28.31-22.05-51.38-45.21"/>
    <path class="cls-15" d="M264.13,919.92s10.49,8.21,4.5,28.79"/>
    <path class="cls-38" d="M303.98,978.16c.57-2.04,1.25-4.11,2.55-5.81.44-.54,1.03-1.05,1.75-1.1-.72.08-1.28.6-1.71,1.14-1.23,1.72-1.86,3.8-2.36,5.83,0,0-.24-.06-.24-.06h0Z"/>
  </g>
  <g id="m_shoes-2" data-name="m shoes">
    <path class="cls-10" d="M538.23,954.98s.97-7.08-4.26-9.37-9.29,5.39-11.35,7.75-27.81,20.44-41.35,19.7c-13.55-.74-17.68,17.27-8.19,19.7,9.48,2.43,45.68,9.44,101.03.37,0,0,3.81-1.55,1.48-14.83-2.32-13.28-4.26-27.56-9-26.01s-9.87,23.32-28.35,2.69Z"/>
  </g>
  <g id="shoe_line" data-name="shoe line">
    <path class="cls-38" d="M520.72,953.96c3.21.32,11.22,1.73,7.83,6.43.26-.44.5-.9.61-1.4.56-3.64-5.99-3.91-8.48-4.03,0,0,.04-1,.04-1h0Z"/>
    <path class="cls-38" d="M515.51,957.5c3.09.59,12.1,2.99,7.04,7.08.38-.38.77-.75,1.02-1.22,1.79-3.48-6-4.54-8.21-4.87,0,0,.15-.99.15-.99h0Z"/>
    <path class="cls-38" d="M510.38,960.78c4.15.33,11.77,2.39,6.17,7.24,5.02-5.01-2.33-6.18-6.22-6.25,0,0,.04-1,.04-1h0Z"/>
    <path class="cls-38" d="M503.73,964.16c2.61.31,13.95,1.84,8.29,5.87-.53.36-1.1.65-1.67.94.55-.32,1.09-.65,1.59-1.04,5.07-3.98-5.96-4.61-8.29-4.77,0,0,.07-1,.07-1h0Z"/>
    <path class="cls-38" d="M498.49,966.61c2.74.13,10.41.78,7.75,5.12-.29.45-.65.84-1.01,1.22.33-.41.66-.82.9-1.28,2.19-4.18-5.13-4.11-7.62-4.05,0,0-.02-1-.02-1h0Z"/>
    <path class="cls-38" d="M495.56,967.95c2.59,1.16,8.84,4.74,4.44,7.51.7-.52,1.38-1.28,1.28-2.15-.09-.85-.76-1.51-1.42-2.05-1.38-1.06-3.03-1.8-4.67-2.39l.36-.93h0Z"/>
    <path class="cls-38" d="M538.45,954.9c-1.35.57-2.72,1.19-3.94,2.02-.38.29-.84.58-.93,1.08.15-1.01,1.21-1.63,1.92-2.26.8-.62,1.63-1.18,2.49-1.73l.45.89h0Z"/>
    <path class="cls-15" d="M469.08,978.42s2.17,7.01,30.63,7.85c.29,0,.58.02.87.02,15.88.39,39.72-1.12,75.48-6.7"/>
    <path class="cls-15" d="M572.38,960.38s-14.74.45-22.9,22.89"/>
    <path class="cls-38" d="M498.39,986.3c.87-2.38,2.82-6.76.94-8.95,1.95,2.16.11,6.62-.71,9.05,0,0-.23-.1-.23-.1h0Z"/>
    <path class="cls-38" d="M510.21,949.54c2.06.81,7.57,3.37,4.16,5.82.54-.46,1.04-1.13.83-1.8-.91-1.9-3.44-2.45-5.29-3.06,0,0,.3-.95.3-.95h0Z"/>
    <path class="cls-38" d="M504.51,953.29c1.93.44,3.93.92,5.56,2.07-.88-.45-1.83-.65-2.79-.81-.95-.15-1.93-.24-2.88-.27l.11-.99h0Z"/>
    <path class="cls-38" d="M502,955.62c1.92.74,4.12,1.49,5.26,3.3-.31-.42-.74-.71-1.17-.96-1.33-.72-2.85-1.1-4.32-1.36,0,0,.23-.97.23-.97h0Z"/>
    <path class="cls-38" d="M499.22,957.94c1.45.64,2.87,1.31,4.19,2.19.41.31.92.62,1.04,1.15-.2-.49-.73-.7-1.17-.93-1.39-.65-2.9-1.07-4.38-1.46,0,0,.32-.95.32-.95h0Z"/>
    <path class="cls-38" d="M493.79,959.61c1.51.65,3,1.33,4.31,2.32.41.34.88.73.96,1.28-.16-.52-.66-.81-1.1-1.08-1.39-.75-2.96-1.19-4.48-1.58,0,0,.3-.95.3-.95h0Z"/>
    <path class="cls-38" d="M488.7,963.7c2.04,1.34,4.62,2.74,5.32,5.23-.97-2.29-3.65-3.32-5.75-4.33,0,0,.43-.9.43-.9h0Z"/>
    <path class="cls-10" d="M336.09,957.29s-.97-6.7,4.26-8.86c5.23-2.16,9.29,5.1,11.35,7.33s27.81,19.33,41.35,18.64c13.55-.7,17.68,16.33,8.19,18.64-9.48,2.3-45.68,8.93-101.03.35,0,0-3.81-1.47-1.48-14.03,2.32-12.56,4.26-26.07,9-24.6s9.87,22.06,28.35,2.55Z"/>
    <path class="cls-38" d="M353.63,957.79c-2.48.12-9.04.39-8.48,4.03.11.5.35.95.61,1.4-.29-.42-.58-.86-.73-1.37-.72-3.02,3.25-4.02,5.45-4.57,1.03-.22,2.05-.39,3.11-.49l.04,1h0Z"/>
    <path class="cls-38" d="M358.95,961.32c-2.2.32-10,1.39-8.21,4.87.25.47.64.84,1.02,1.22-.41-.34-.83-.69-1.13-1.15-1.74-2.92,2.95-4.4,5-5.12,1.04-.32,2.09-.59,3.17-.81l.15.99h0Z"/>
    <path class="cls-38" d="M363.98,964.62c-3.89.06-11.23,1.24-6.22,6.25-.8-.73-1.62-1.55-1.92-2.68-.55-3.51,5.61-4.23,8.09-4.56,0,0,.04,1,.04,1h0Z"/>
    <path class="cls-38" d="M370.66,967.99c-3.73.16-14.82,1.29-6.7,5.81-1.21-.69-3.47-1.59-3.19-3.31.33-1,1.42-1.45,2.29-1.84,2.42-.93,4.96-1.34,7.53-1.66,0,0,.07,1,.07,1h0Z"/>
    <path class="cls-38" d="M375.81,970.45c-2.48-.05-9.82-.13-7.62,4.05.24.46.57.88.9,1.28-.72-.77-1.49-1.61-1.58-2.73.12-3.19,5.92-3.43,8.32-3.61,0,0-.02,1-.02,1h0Z"/>
    <path class="cls-38" d="M379.12,971.71c-2.49.88-8.75,3.6-4.8,6.58-3.46-2.01-.25-4.92,2.01-6.22.78-.48,1.58-.91,2.43-1.3l.36.93h0Z"/>
    <path class="cls-38" d="M336.32,956.84c1.29.82,2.55,1.66,3.65,2.72.33.36.76.75.77,1.27-.1-.5-.56-.79-.93-1.08-1.22-.83-2.59-1.44-3.94-2.02,0,0,.45-.89.45-.89h0Z"/>
    <path class="cls-15" d="M405.24,981.26s-2.17,7.01-30.63,7.85c-.29,0-.58.02-.87.02-15.88.39-39.72-1.12-75.48-6.7"/>
    <path class="cls-15" d="M301.94,963.22s14.74.45,22.9,22.89"/>
    <path class="cls-38" d="M375.7,989.23c-.82-2.43-2.66-6.89-.71-9.05-1.88,2.19.06,6.57.94,8.95,0,0-.23.1-.23.1h0Z"/>
  </g>
  <g id="m_pants" data-name="m pants">
    <path class="cls-5" d="M589.92,749.63s-123.19,3.66-122.96,43.03,39.07,135.96,39.07,135.96c0,0,17.29,5.16,34.9-1.95,17.61-7.12-19.94-109.51-19.94-109.51l79.94-16.12,8.03-53.39-19.04,1.99Z"/>
    <path class="cls-5" d="M341.39,833.13l-61.16,73.29s25.81,18.06,41.55,17.03,130.06-115.22,56.52-131.8-36.9,41.48-36.9,41.48Z"/>
  </g>
  <g id="m_pants-2" data-name="m pants">
    <path class="cls-5" d="M687.45,782.29s-4.35,39.06-32.52,44.71-115.26.84-115.26.84c0,0-3.1,2.72.58,4.29s5.42,5.76,5.32,10.99,21.48,77.26,20.81,80.2-20.23,10.57-52.94,11.41l-39.1-124.69s-7.04-22.82,15.55-36.01c22.58-13.19,101.83-18.91,101.83-18.91,0,0,54.11-22.15,95.73,27.17Z"/>
    <path class="cls-5" d="M304.12,769s102.3,9.42,93.52,52.52c-8.77,43.1-43.35,113.22-43.35,113.22-.57,7.41-38.21,5.29-44.65-13.35-3.58-10.37,26.32-78.94,26.32-78.94,0,0-2.32-3.07-3.35,0s.77-6.01-2.84-3.41-55.61-9.78-60.97-7.46-72.38,8.26-74.35-18.58,95.02-50.42,95.02-50.42l14.64,6.42Z"/>
  </g>
  <g id="m_pants_line" data-name="m pants line">
    <path class="cls-38" d="M629.83,760.29c2.42,2.95,4.95,5.84,7.58,8.62,2.68,2.71,5.32,5.59,8.69,7.44-3.46-1.71-6.24-4.49-9.04-7.09-2.76-2.68-5.42-5.45-7.99-8.33l.76-.65h0Z"/>
    <path class="cls-38" d="M628.02,761.33c2.4,4.36,4.9,8.72,7.84,12.75,1.03,1.25,1.98,2.8,3.53,3.43-.82-.22-1.44-.85-2.04-1.42-4.02-4.27-7.08-9.33-10.2-14.27,0,0,.87-.5.87-.5h0Z"/>
    <path class="cls-38" d="M605.7,752.22c3.68,3.03,7.24,6.17,10.68,9.46,3.34,3.34,6.92,6.65,9.14,10.87-2.36-4.13-6.04-7.3-9.48-10.51-3.54-3.15-7.2-6.16-10.96-9.04l.62-.79h0Z"/>
    <path class="cls-38" d="M594.41,753.09c1.86,1.22,3.64,2.53,5.33,3.96,1.6,1.46,3.44,2.97,4.1,5.11-.81-2.06-2.73-3.4-4.41-4.72-1.76-1.28-3.62-2.45-5.52-3.49l.51-.86h0Z"/>
    <path class="cls-38" d="M545.18,828.33c-6.73-9.65-18.88-25.54-31.13-27.18,10.15,1.19,18.95,10.9,25.42,18.21,2.3,2.71,4.49,5.5,6.54,8.42l-.83.56h0Z"/>
    <path class="cls-38" d="M537.76,818.83c-5.65-2.7-11.26-5.46-16.83-8.32-5.51-2.93-11.21-5.65-16.25-9.36,5.13,3.58,10.89,6.13,16.47,8.91,5.64,2.7,11.32,5.32,17.03,7.86l-.42.91h0Z"/>
    <path class="cls-38" d="M584.45,830.08c-8.75-2.5-17.48-5.08-26-8.29-2.79-1.12-5.74-2.13-8.13-4,0,0,.93.66.93.66,4.99,2.71,10.55,4.18,15.94,5.88,5.8,1.73,11.65,3.31,17.52,4.79l-.25.97h0Z"/>
    <path class="cls-38" d="M540.96,828.66c-2.41-1.52-5.6-2.95-7.55-4.96.47.58,1.22.85,1.86,1.23,2,1.03,4.07,1.95,6.13,2.84,0,0-.44.9-.44.9h0Z"/>
    <path class="cls-38" d="M544.07,931.62l-34.68-113.83c-.35.33,36.23,114.25,34.68,113.83h0Z"/>
    <path class="cls-33" d="M331,838.24c6.45-4.36,12.94-8.66,19.7-12.51,2.27-1.22,4.53-2.62,7.07-3.19,0,0-.94.26-.94.26-4.48,1.86-8.48,4.71-12.54,7.34-4.3,2.88-8.53,5.87-12.72,8.91l-.58-.82h0Z"/>
    <path class="cls-33" d="M335.82,841.97c5.19-1.59,10.4-3.33,15.25-5.81,1.56-.87,3.27-1.74,4.25-3.29-.43.81-1.13,1.44-1.85,2-5.24,3.69-11.38,5.85-17.36,8.06,0,0-.3-.95-.3-.95h0Z"/>
  </g>
  <g id="g_hand_chin" data-name="g hand chin">
    <path class="cls-21" d="M402.56,590.39c5.22-12.17,2.43-10.87.17-17.65-.15-.46-.28-.88-.39-1.27-1.45-5.34,1.39-4.21,1.39-4.21,0,0,6.73,14.17,5.69,16.61s-3.04,7.65-2.35,9.13-12.4,11.51-12.4,11.51l-.61,9.65s-3.51,4.58-18.03-.38c-1.53.55-.58-8.33.35-9.22.4-.38-11.65-12.69,4-16,0,0,8.04,2.96,12,2.17s8.87-6.87,8.78-8.26c-.69-10.97,1.18-11.01,1.18-11.01"/>
  </g>
  <g id="g_hand_detail-2" data-name="g hand detail">
    <path class="cls-33" d="M389.26,590.99c-2.89.65-8.71,1.87-8.93,5.49.15-3.65,5.97-5.02,8.88-5.74,0,0,.04.25.04.25h0Z"/>
  </g>
  <g id="g_hand_table" data-name="g hand table">
    <path class="cls-22" d="M446.1,714.25l20.87-2.56s26.55,6.35,31.58,17.96c5.03,11.61-62.9.34-63.48,2.39"/>
  </g>
  <g id="sweater">
    <path class="cls-6" d="M404.08,652.41l-1.02-1.99v-15.1c0-2.19-4.51-5.68-4.51-5.68,0,0,.25-13.81-.61-16.52s-3.65-2.32-3.65-2.32c1.94,4.26-14.97,2.97-17.58,2.45s-2.04-2.97-2.04-2.97c0,0-3.15-.52-3.38,3.48v16.13s-6.89.77-3.17,20.13c0,0-6.19,2.45-5.5,11.35s1.34,15.61-.59,15.1-8.13-12.13-11.35-10.19c-.57.34-.81.35-.86.07-.24-1.28,3.48-8.59-4.11-15.81,0,0-5.1-52.97-22.39-56.87s-24.05-16.29-24.05-16.29l-38.14,22.19s-119.23,181.16-84.39,193.55c0,0-5.68,30.45,22.19,25.55s76.97-61.1,98.9-47.42c0,0,5.42,1.74,8.13-5.61,0,0,1.23-28.9,9.74-32.26s3.31,4.52,92.88-1.94l-4.51-79.04Z"/>
    <path class="cls-27" d="M281.54,660.87s5.7,12.16,15.92,26.63c13.32,18.87,34.31,41.66,60.31,46.5"/>
    <g>
      <path class="cls-29" d="M268.81,671.58c11.81,13.55,24.94,10.48,24.94,10.48l-19.71,15.38"/>
      <path d="M268.99,671.42c6.1,7.14,15.64,12.24,25.2,10.44,0,0-.38.29-.38.29l-19.79,15.29,19.64-15.47.1.21c-2.35.44-4.74.38-7.08.04-5-.71-9.67-3.02-13.6-6.15-1.55-1.3-3.11-2.83-4.47-4.31,0,0,.38-.33.38-.33h0Z"/>
    </g>
    <path class="cls-14" d="M206.83,699.94s-34.99,66.85-28.8,85.7"/>
    <g>
      <path class="cls-18" d="M373,629.97s.73-.08,1.99-.19"/>
      <path class="cls-24" d="M378.95,629.49c3.82-.22,8.97-.35,13.9.03"/>
      <path class="cls-18" d="M394.82,629.71c.67.07,1.34.16,1.99.26"/>
    </g>
    <path class="cls-32" d="M381.46,627.73c-.1-3.79-.71-7.75.25-11.44-.8,3.71-.02,7.64.25,11.4,0,0-.5.05-.5.05h0Z"/>
    <polygon class="cls-32" points="389.27 627.39 389.52 615.39 389.77 627.39 389.27 627.39 389.27 627.39"/>
    <path class="cls-32" d="M395,627c0-3.55.43-7.25-.46-10.71.97,3.45.62,7.16.71,10.71,0,0-.25,0-.25,0h0Z"/>
    <path class="cls-32" d="M373.59,627.4c-.13-3.03-.22-6.06-.06-9.08.11-.97.04-2.09.59-2.94-.52.86-.39,1.97-.47,2.94-.04,3.02.18,6.04.43,9.04,0,0-.5.04-.5.04h0Z"/>
    <path class="cls-4" d="M418.37,703.47s2.85,6.31,0,11.98"/>
    <path class="cls-33" d="M299.27,771.97c-3.17-2.2-7.28-3.5-11.04-4.31-.78-.22-2.12-.37-2.93-.5-2.26-.4-5.1-.49-7.4-.56-2.46.14-4.98.08-7.42.45-1.01.12-3.46.42-4.43.54-.96.18-6.22,1.31-7.28,1.53-3.29,1.01-8.2,2.3-11.35,3.61,0,0-5.58,2.09-5.58,2.09-2.46,1.12-7.06,3.25-9.5,4.34-2.41,1.24-6.85,3.63-9.24,4.89-1.99,1-10.81,6.42-12.87,7.61.79-.52,10.85-7.12,11.28-7.36,2.31-1.29,6.79-3.8,9.15-5.13,1.43-.86,3.86-1.9,5.38-2.64,0,0,5.44-2.54,5.44-2.54l5.61-2.15c3.14-1.36,8.13-2.66,11.45-3.63,0,0,5.89-1.2,5.89-1.2,1.68-.4,4.23-.57,5.96-.8,2.96-.35,6.03-.37,9.01-.23,1.73.14,4.29.27,5.98.65.78.15,2.19.33,2.95.57,3.73.96,7.86,2.4,10.93,4.78h0Z"/>
  </g>
  <g id="Layer_41" data-name="Layer 41">
    <path class="cls-8" d="M272.39,854.27c1.16,4.06,20.88,143.45,20.88,143.45"/>
    <path class="cls-8" d="M586.77,849.14c-2.31,2.14-21.44,147.7-20.88,148.7"/>
  </g>
  <g id="sweater_details" data-name="sweater details">
    <path class="cls-2" d="M444.3,711.55s-1.11,7.77,0,13.39"/>
    <path class="cls-2" d="M444.3,711.55s-1.05,9.71,0,15.58"/>
  </g>
  <g id="sweater-2" data-name="sweater">
    <path class="cls-2" d="M450.47,734.66c.2.21,4.45-2.11,0-4.04,0,0,2.02-13.84,0-19.06,0,0-3.95-1.26-6.17,0,0,0-1.92-4.94-3.84,0,0,0-.71-1.84-2.83-.39s-32.07-14.71-41.66-17.23-5.23,40.73-5.23,40.73h59.73Z"/>
  </g>
  <g id="sweater_break" data-name="sweater break">
    <path class="cls-4" d="M362.4,676.48s.66,1.94,2.47,1.29,2.88,5.74,7.61,5.48,10.88,4.39,12.44,12.13"/>
  </g>
  <g id="sweater_lines" data-name="sweater lines">
    <path class="cls-32" d="M439.03,715.46c2.92-.18,6.45-.93,9.2.25-2.78-1.02-6.25-.09-9.12.25,0,0-.08-.49-.08-.49h0Z"/>
    <polygon class="cls-32" points="439.85 719.13 448.71 719.63 439.85 720.13 439.85 719.13 439.85 719.13"/>
    <path class="cls-32" d="M439.9,725.15c2.08.31,4.23.57,6.34.42.69-.08,1.43-.16,1.99-.63-.5.53-1.26.71-1.95.88-2.14.41-4.31.4-6.48.33,0,0,.11-.99.11-.99h0Z"/>
    <path class="cls-32" d="M439.93,731.09c1.81.38,3.66.74,5.52.81.61,0,1.27.04,1.79-.32-1.02.76-2.46.58-3.67.66-1.27,0-2.52-.06-3.79-.17l.16-.99h0Z"/>
    <path d="M440.94,711.67c-.28.86-.9,1.93-.49,2.82-.73-.77-.48-2.06-.49-3.05,0,0,.97.24.97.24h0Z"/>
    <path d="M437.37,711.57c-.22,4.2-.83,8.47-.37,12.66-.71-4.17-.35-8.47-.37-12.7,0,0,.75.04.75.04h0Z"/>
    <path d="M350.18,666.46c-1.93,5.75-7.23,10.84-13.63,10.02,6.26.56,11.27-4.56,12.91-10.23,0,0,.72.21.72.21h0Z"/>
    <path d="M370.38,682.52c2.05,3.9-.15,8.33-2.8,11.31,2.32-2.94,4.27-7.35,2.18-10.88,0,0,.62-.43.62-.43h0Z"/>
    <path class="cls-32" d="M194.46,796.42c.34,6.58.34,13.16,0,19.74-.34-6.58-.34-13.16,0-19.74h0Z"/>
    <path class="cls-32" d="M206.83,813.64c-.89-4.65-1.34-9.4-1.13-14.13.19-1.51.06-3.37,1.13-4.56-.47.63-.45,1.48-.51,2.23-.12,2.34.05,4.69.14,7.03.12,2.77.35,6.68.37,9.43h0Z"/>
    <path class="cls-32" d="M220.87,806.29c-.83-2.58-1.36-5.25-1.75-7.94-.24-2.66-.66-5.55.48-8.06-.4,1.29-.42,2.65-.36,3.99.2,4.04.98,8.01,1.63,12.01h0Z"/>
    <path class="cls-32" d="M181.65,797c.34,3.53.34,7.06,0,10.58-.34-3.53-.34-7.06,0-10.58h0Z"/>
    <path class="cls-32" d="M233.94,797c-1.29-3.52-4.03-12.21-1.2-15.23-1.48,2.19-.67,5.11-.39,7.56.33,2.25,1.1,5.42,1.59,7.67h0Z"/>
    <path class="cls-32" d="M246.94,788.67c-2.06-3.24-3.99-7.23-3.22-11.15-.06,3.95,1.76,7.56,3.22,11.15h0Z"/>
  </g>
  <g id="msweater">
    <polygon class="cls-28" points="521.77 566.75 532.27 557.77 532.27 601.65 517.39 660.23 505.39 656.99 514.03 590.87 521.77 566.75"/>
  </g>
  <g id="m_sweater_other_arm" data-name="m sweater other arm">
    <path class="cls-17" d="M537.49,721.86s-11.07,12.82-19.78,12.81-48.77-41.61-35.61-54.96,52.26,12.85,52.26,12.85l3.13,29.3Z"/>
  </g>
  <g id="m_sweater" data-name="m sweater">
    <path class="cls-28" d="M505.52,692.55l-20.21-42.65c26.24,82.06,73.08,83.93,73.08,83.93,9.71.71,19.08-8.9,19.08-8.9.9,11.29,5.47,16.71,5.47,16.71-11.74,8,11.87,13.81,11.87,13.81,6.71-6.06,16.26,1.81,16.26,1.81,9.55-.26,16.65,6.71,16.65,6.71,1.68-1.29,38.65,15.42,51.42,20.84s11.61-17.42,11.61-17.42c5.71-6.1,3.29-9.48,3.29-9.48-8.9-223.74-99.35-227.1-99.35-227.1-5.94-8.9-17.7-4.43-17.7-4.43l-46.3,28.4"/>
    <path class="cls-28" d="M504.87,692.55s-24-37.62-18.84-44.33-.08-10.32,8.54-17.94c0,0-4.67-7.23,5.52-18.71,0,0-1.16-14.32,6.58-24.65s-12.52-.58,24-32.16"/>
    <line class="cls-37" x1="577.46" y1="526.76" x2="530.68" y2="554.77"/>
  </g>
  <g id="m_swaeter_lines" data-name="m swaeter lines">
    <path class="cls-15" d="M537.44,559.39s-2.7,16.87,2.81,21.61,15.77-2.93,22.35-10.8,26.58-33.65,32.06-39.39"/>
    <path class="cls-23" d="M579.35,528.94l2.65-1.08s-2.44-.73-3.32-.19,1.66.3,1.66.3"/>
    <polygon class="cls-33" points="543.38 582.48 543.16 572.97 544.38 582.4 543.38 582.48 543.38 582.48"/>
    <polygon class="cls-33" points="549 581.28 546.45 571.2 549.95 580.99 549 581.28 549 581.28"/>
    <path class="cls-33" d="M562.14,570.75c-3.04-2.72-5.56-5.88-7.52-9.45,3.04,2.72,5.55,5.88,7.52,9.45h0Z"/>
    <polygon class="cls-33" points="566.91 564.58 558.45 556.32 567.58 563.84 566.91 564.58 566.91 564.58"/>
    <path class="cls-33" d="M572,558.31c-2.24-1.55-4.29-3.62-6.21-5.51-.6-.53-1.32-1.46-2.06-1.78.97,0,1.79.68,2.57,1.18,2.25,1.68,4.2,3.71,5.71,6.11h0Z"/>
    <path class="cls-33" d="M577.16,551.84c-2.17-1.78-4.62-3.72-6.87-5.43-.79-.56-1.54-1.2-2.43-1.6.93.32,1.73.9,2.57,1.39,2.4,1.52,5,3.24,7.33,4.84,0,0-.6.8-.6.8h0Z"/>
    <path class="cls-33" d="M571.52,538.98c1.18.14,2.09.88,3,1.53,2.29,1.76,5.2,4.53,6.74,6.27,8.13,3.9,16.85,9.71,19.28,18.9.29,1.29.41,2.62.37,3.94,0-1.32-.15-2.64-.46-3.92-2.6-9.02-11.37-14.6-19.47-18.26-1.53-1.42-3.02-2.94-4.63-4.28-1.46-1.16-3.03-2.73-4.84-3.19,0,0,0-1,0-1h0Z"/>
    <path class="cls-33" d="M585.44,541.12c-2.75-2.63-5.66-5.72-9.47-6.67.99.07,1.93.45,2.83.87,2.69,1.31,5.07,3.14,7.34,5.09,0,0-.7.72-.7.72h0Z"/>
    <path class="cls-33" d="M590.08,536.17c-2.7-1.97-5.47-3.9-8.44-5.46-1-.48-2.02-1.02-3.15-1.07,1.13-.03,2.21.43,3.25.84,3.11,1.35,6.02,3.07,8.9,4.86,0,0-.57.82-.57.82h0Z"/>
    <path class="cls-33" d="M577.59,725.88c.04-.1.07-.07.06-.32-1.39-.76-.52-.13-.78-.33.27-.27.84-.91,1.12-1.23,24.47-29.19,43.92-62.8,56.51-98.77-12.3,36.12-31.51,69.98-55.77,99.42-.34.38-.87,1.02-1.25,1.37-.28-.19.58.46-.83-.3-.01-.27.03-.25.08-.37l.84.54h0Z"/>
    <path class="cls-33" d="M645.55,618.65c-2.26,3.96-4.73,7.79-7.33,11.53-2.74,3.56-5.26,7.66-9.25,9.94,3.87-2.43,6.36-6.49,9.04-10.08,2.65-3.7,5.1-7.54,7.53-11.39h0Z"/>
    <path class="cls-33" d="M562.37,635.59c-.69-2.87-.54-6.39,2.03-8.34,0,0,2.06-2.02,2.06-2.02l8.23-8.1-7.88,8.46-1.97,2.12c-.68.73-1.3,1.33-1.59,2.19-.57,1.7-.37,3.68.09,5.42l-.96.27h0Z"/>
    <path class="cls-33" d="M565.82,625.74c.25-1.83.27-4.93.36-6.83.2-6.79.34-14.24.57-20.99.12-1.5-.02-3.02.36-4.49.04-.07.23-.05.18-.05.59-.48.88-1.3,1.27-1.97,2.63-5.18,4.8-10.71,8.47-15.27.76-.88,1.6-1.74,2.66-2.24-2.08,1.1-3.38,3.2-4.63,5.13-2.44,3.99-4.22,8.31-6.26,12.51-.4.71-.68,1.55-1.33,2.09-.07.05-.19.08-.28.05-.04,0,.11.03.14-.03-.41,5.91-.28,12.23-.4,18.27-.03,2.27-.11,8.3-.18,10.5-.01.48-.08,2.15-.11,2.64,0,0-.04.45-.04.45-.03.17,0,.26-.11.55l-.68-.32h0Z"/>
    <path class="cls-33" d="M566.71,609.11c4.48-13.41,14.61-34.73,29.73-37.91-2.01.53-3.92,1.38-5.66,2.48-11.64,7.62-18.79,22.92-24.06,35.43h0Z"/>
    <path class="cls-33" d="M600.84,571.81c16.1,1.89,25.49,17.03,29.46,31.41,1.39,4.85,2.39,9.81,2.88,14.83-.57-5.01-1.65-9.94-3.12-14.75-4.13-14.02-13.55-28.91-29.34-30.49,0,0,.12-.99.12-.99h0Z"/>
    <path class="cls-33" d="M548.56,669.14l-3.29.66-.25.05c-3.6-6.17-6.87-12.51-9.97-18.93-9.01-19.03-16.82-39.07-18.98-60.15,1.48,14.03,5.71,27.58,10.86,40.65,5.28,13.03,11.46,25.72,18.58,37.83,0,0-.38-.17-.38-.17l3.29-.69.15.73h0Z"/>
    <path class="cls-33" d="M555.17,666.81c-.62,5.1,1.08,10.42,4.25,14.45-.85-.99-1.67-2.02-2.33-3.16-2.06-3.42-3.14-7.41-2.91-11.43,0,0,.99.14.99.14h0Z"/>
    <path class="cls-33" d="M550.04,669.21c.12-.17.09-.2.29-.37.26-.22.7-.05.78.24.06.17.02.31,0,.46-.27,1.12-.64,2.32-.88,3.44-.24,1.24-.59,2.63-.28,3.85.99,2.4,2.96,4.47,4.65,6.46-1.88-1.98-3.9-3.79-5.13-6.31-.65-2.53.29-5.11.68-7.61,0,0,0-.09,0-.09,0,0,0-.02,0,.02.01.28.37.52.66.38.03-.01.06-.03.09-.05.11-.09.07-.07.06-.04,0,0-.05.09-.05.09l-.88-.48h0Z"/>
    <path class="cls-33" d="M549.56,669.76c-1.38,1.56-2.7,3.16-4.5,4.26-.31.18-.71.31-1.1.26-1.15.73-1.76,2.79-2.38,4.05-.51,1.25-.98,2.52-1.42,3.8.35-1.3.75-2.6,1.18-3.88.46-1.28.89-2.56,1.63-3.76.22-.28.37-.64.94-.77.4.01.5-.05.82-.24,1.59-1.12,2.83-2.8,4.02-4.34,0,0,.79.61.79.61h0Z"/>
    <path class="cls-33" d="M545.5,669.85c-4.74,3.76-9.91,8.3-11.14,14.51.15-1.57.69-3.08,1.38-4.5,2.18-4.24,5.55-7.73,9.16-10.81,0,0,.61.8.61.8h0Z"/>
    <path class="cls-33" d="M509.52,592.74c1.33,7.54,4,15.22,9.34,20.87.71.86,1.61,1.52,2.42,2.27-7.41-5.17-10.94-14.41-11.76-23.14h0Z"/>
    <path class="cls-33" d="M509.52,610.42c2.32,2.81,4.59,5.65,7.02,8.36,2.45,2.61,4.78,5.6,8.1,7.13-3.51-1.16-5.99-4.21-8.47-6.8-2.39-2.76-4.66-5.63-6.64-8.69h0Z"/>
    <path class="cls-33" d="M514.29,627.39c2.93.92,6.09,2.16,8.98,3.25.99.33,1.98.84,3.02.88-1.06.17-2.12-.27-3.15-.52-3.06-.92-6.02-2.14-8.85-3.61h0Z"/>
    <path class="cls-33" d="M536.66,653.62c-1.94,2.34-4.32,4.25-5.98,6.8,1.05-2.88,3.6-4.99,5.98-6.8h0Z"/>
    <path class="cls-33" d="M533.41,646.9c-3.37.73-6.8,1.35-9.9,2.88-.98.53-1.98,1.21-2.38,2.32,1.1-4.01,8.71-4.98,12.28-5.2h0Z"/>
    <path class="cls-33" d="M538.23,668.87c-5.65-.44-11.61-.13-16.65,2.71,4.7-3.46,11.09-3.84,16.65-2.71h0Z"/>
    <path class="cls-33" d="M536.23,668.94c-8.09.59-14.87,4.65-16,13.19.13-.85.16-2.04.41-2.85,1.47-6.96,8.94-10.64,15.59-10.35h0Z"/>
    <path class="cls-38" d="M582.94,741.65c2.53,1.06,5.05,2.22,7.68,2.97.45.13.79.16,1.25-.01,11.16-3.05,22.99-2.55,34.33-.84,12.73,2.08,25.13,5.99,36.87,11.28,0,0,5.02,2.27,5.02,2.27-13.57-5.53-27.53-10.35-42.06-12.57-11.24-1.78-22.92-2.35-34.07.27-.43.16-1.01.12-1.45-.04-2.64-.87-5.11-2.11-7.59-3.33h0Z"/>
    <path class="cls-38" d="M690.45,767.79c-4.38-3.12-8.98-6.31-14.23-7.76,5.38,1.15,10.18,4.06,14.81,6.95,0,0-.58.82-.58.82h0Z"/>
    <polygon class="cls-33" points="666.8 779.54 671.97 762.16 667.77 779.8 666.8 779.54 666.8 779.54"/>
    <polygon class="cls-33" points="658.42 775.87 664.23 758.87 659.37 776.16 658.42 775.87 658.42 775.87"/>
    <path class="cls-33" d="M673.47,782.44c1.42-5.05,3.89-12.4,4.89-17.47-.28,2.61-1.27,6.3-1.82,8.9,0,0-2.1,8.84-2.1,8.84l-.96-.26h0Z"/>
    <path class="cls-33" d="M680.1,784.59c1.32-4.83,2.74-10.07,3.85-14.97.13-.72.35-1.44.32-2.17.08.73-.1,1.47-.19,2.2-.21,1.38-.93,5.11-1.2,6.53-.58,2.89-1.18,5.78-1.8,8.66l-.97-.24h0Z"/>
    <polygon class="cls-33" points="645.64 770.73 652.03 755.58 646.57 771.1 645.64 770.73 645.64 770.73"/>
    <polygon class="cls-33" points="633.4 765.45 639.94 749.48 634.34 765.8 633.4 765.45 633.4 765.45"/>
    <path class="cls-33" d="M625.8,762.68c.8-3.9,1.65-7.79,2.9-11.57.48-1.18.78-2.67,1.84-3.46-.29.17-.46.47-.62.75-1.9,4.56-2.36,9.61-3.14,14.45,0,0-.99-.16-.99-.16h0Z"/>
    <path class="cls-33" d="M617,758.08c.56-3.35,1.15-6.7,1.88-10.02.3-1.08.4-2.29,1.02-3.22-.54.97-.56,2.18-.78,3.27-.48,3.35-.82,6.73-1.13,10.1,0,0-.99-.13-.99-.13h0Z"/>
    <path class="cls-33" d="M608.47,755.17c.43-3.24.81-6.5,1.64-9.67.15-.43.23-.94.61-1.24-.34.32-.37.83-.48,1.27-.54,3.2-.62,6.47-.76,9.71,0,0-1-.07-1-.07h0Z"/>
  </g>
  <g id="m_hand" data-name="m hand">
    <path class="cls-30" d="M557.19,643.71s-1.02-6.48,14.23-13.5"/>
    <path class="cls-1" d="M556.74,644s.71-4.39,2.44-5.23,7.4-7.9,11.27-8.32,3.45,4.19,1.94,5.32c-.9.67-1.31,1.46-1.35,1.94-.03.33.11.52.39.41.68-.26,1.94-1.02,2.9-1.17s2.14.15,2.84,1.43,1.61,3.44-3.71,6.58c0,0,3.31.75,2.44,4.21s-4.89,3.82-4.89,3.82c0,0,.68,3.68-.73,5.42s-5.35,1.86-5.35,1.86c0,0-1.96,3.22-2.44,3.19s-2.03,2.83-6.63,2.13c0,0-3.82,3.34-4.77,3.34s-2.18,1.72-2.71-1.19,1.33-6.65,2.03-6.82-.82-6.56,2.56-8.23-1.75-6.46,3.76-8.71Z"/>
    <path class="cls-33" d="M544.77,669.74c-1.4-1.99-3.08-4.62-5.66-4.89-.25-.01-.49,0-.73-.05-.67-.1-1.27-.54-1.67-1.01-.72-.92-1.27-1.67-2.48-1.17-2.34.85-4.75-.3-7.01-.61-.78-.11-1.6-.16-2.2.34-.98,1.15-2.4,1.84-3.69,2.44-1.69.87-4.65,1.78-5.96,3.16-.15.2-.14.28-.24.66-.23.88-.57,1.68-.89,2.51-1.24,3.12-2.7,6.57-3.8,9.72-.87,2.14-1.73,4.3-2.05,6.61.25-5.83,3.13-11.24,5.16-16.6.3-.79.64-1.6.86-2.41.04-.18.13-.69.37-.95.44-.54.97-.85,1.48-1.16,1.01-.62,3.66-1.71,4.76-2.23,1.34-.62,2.58-1.24,3.51-2.33.75-.66,1.9-.65,2.79-.51,2.24.29,4.48,1.42,6.67.64.57-.21,1.34-.31,1.99.07,1.15.73,1.46,2.18,2.91,2.12.46,0,.99.05,1.41.22,2.21,1.16,3.41,3.32,4.48,5.42h0Z"/>
  </g>
  <g id="gap_in_shirt" data-name="gap in shirt">
    <path class="cls-20" d="M540.67,661.38s-2.12,2.19-2.11,3.08,6.1,4.48,6.1,4.48l-3.99-7.55Z"/>
  </g>
  <g id="Layer_25" data-name="Layer 25">
    <path class="cls-33" d="M571.24,638.42c-3.75.85-7.34,2.64-10.81,4.35,0,0-1.75.9-1.75.9-.64.19-1.26.42-1.91.59.51-.44,1.04-.83,1.57-1.25l1.76-.9c2.36-1.19,4.73-2.33,7.22-3.25,1.22-.44,2.67-1.01,3.94-.43h0Z"/>
    <path class="cls-33" d="M573.45,644.97c.25.07-.07.07-.14.09-6.79,1.5-13.35,4.93-19.85,7.35,6.09-3.42,13.26-6.91,19.99-7.44h0Z"/>
    <path class="cls-1" d="M571.11,653.54s-.08-3.25-20.63,7.36"/>
  </g>
  <g id="face_details" data-name="face details">
    <path class="cls-26" d="M544.42,556.52s-5.52,7.35-2.71,12.87,15.97-9.68,21.68-24.39-18.97,11.52-18.97,11.52Z"/>
  </g>
  <g id="faces">
    <path class="cls-13" d="M382.76,505.07s14.9,7.55,14.9,28.26,10.26,20.32,10.26,20.32c0,0,3.29,3.87-4.74,7.55,0,0-.19,9.39-1.35,12.39s-1.06,12.87-4.74,15.29c-3.68,2.42-18.29,1.16-20.52.48-15.93-4.85-19.27,27.19-31.74,26.61-3.18-.15-7.02-1.85-6.96-2.96.08-1.26,5.21-1.95,8.31-2.26,0,0,13.35,1.84,6.58-38.71,0,0-9.71-2.87-11.94-9.84-2.23-6.97,1.55-15.19,9-12.1,4.61,1.92,4.92,3.54,6.01,3.9,0,0,1.62.57,4.06-.99,4.36-2.8,21.22-43.88,22.87-47.94Z"/>
    <path class="cls-26" d="M478.62,477.16s-.39,29.61,8.61,34.65c0,0,.1,7.35-4.31,14.81-4.4,7.45,6.82,5.52,6.82,5.52,0,0,1.94-1.16,1.65,5.23,0,0,3,.94,3.77,2.65s1.94,5.48,4.06,5.58c1.98.09-.97,20.31,17.53,7.2,1.41-1,2.95-2.2,4.63-3.61,0,0,6.48-1.57,9.12,5.14.06.15.12.31.17.47,0,0,14.71,9.48,16.65,13.26,1.94,3.77,29.03-38.23,32.03-39.1s-14.9-4.8-12.87-31.48c2.03-26.68-48.77-17-48.77-17l-22.45-10.65-16.64,7.35Z"/>
  </g>
  <g id="face_features" data-name="face features">
    <path class="cls-35" d="M381.71,550.03c.72-3.48,4.16-8.06,8.13-7.44,2.09.61,2.33,2.94,1.63,4.54-.53-.7-1.14-2.09-1.93-2.09-.21.03-1.1.46-1.93,1.08-1.78,1.29-3.84,2.98-5.91,3.91h0Z"/>
    <path class="cls-35" d="M369.25,543.81c3.31-2.53,6.93-4.39,10.07-7.2,2.46-2.06,5.07-4.11,8.08-5.42,1.14-.13,2.39-.25,3.44.26-1.06.3-1.87.95-2.66,1.58-.9.38-1.78.88-2.64,1.41-3.54,2.21-6.49,5.32-10.06,7.57-1.8,1.29-3.94,2.35-6.23,1.8h0Z"/>
    <path class="cls-35" d="M345.71,555.45c1.59-.73,3.95-.11,4.57,1.76.59,2.74.72,5.45,2.23,7.92-2.27-1.83-2.75-4.91-3.12-7.6-.47-1.58-2.06-2.09-3.69-2.08h0Z"/>
    <path class="cls-12" d="M402.35,570.22s-.67,2.36-13.64-2.09"/>
    <path class="cls-35" d="M512.1,495.58c-7.08,3.85-15.6,3.4-23.35,3.71,0,0,0-.24-.08-.27-.13.23.65.83.86,1.07-.3,0-.59-.01-.89-.06-.37-.03-1.21-.42-1.1-1.11.04-.44.39-.77.64-.98,1.22-.97,2.73-1.43,4.11-1.86,6.53-1.78,13.18-1.68,19.81-.5h0Z"/>
    <path class="cls-35" d="M495.71,514.81c-1.52-2.37-.18-5.61,2.75-5.94,2.1-.22,4.18.58,5.76,1.94-1.94.1-3.61-.22-5.46.03-2.02.32-2.65,2.02-3.05,3.97h0Z"/>
    <path class="cls-12" d="M495.61,541.06s9.44-.39,12.38-7.71"/>
    <path class="cls-35" d="M542.03,497.46c-2.15,1.1-4.08,2.78-2.54,5.04,2.25,2.64,2.81,4.94.53,7.79.12-1.38.24-2.72-.09-3.75-.41-1.22-1.37-1.8-2.13-2.97-2.12-3.28.63-6.58,4.22-6.12h0Z"/>
  </g>
  <g id="hair">
    <g>
      <path class="cls-33" d="M344.99,613.32c1.29-.49,2.43-1.13,3.42-1.9,2.37-1.83,3.46-3.98,4.26-5.6,1.44-2.93,1.87-5.45,2.73-10.51.31-1.81.46-2.71.58-3.97.13-1.31.78-8.74-1.94-16.84-.11-.34-.17-.51-.24-.68-1.71-4.01-6.53-3.62-9.39-6.15-4.32-3.81-3.67-13.85.29-16.31,1.21-.75,3.26-1.13,4.95-.49.93.35,1.78,1.11,3.47,2.62,1.47,1.31,2.12,2.14,3.29,2.23.8.06,1.45-.19,1.84-.39,23.42-13.26,27.94-45.71,27.94-45.71,0,0,11.35,6.06,12,30.58,0,0,16.65-20.77-6-38.06,0,0-10.39-14.84-27.94-11.48,0,0-52.26-26-73.55,48.71-.95,5.2-2.93,12.13-7.23,19.33-1.71,2.85-8.07,12.93-20.64,20.35-3.52,2.08-6.66,3.44-8.93,4.3-5.69,2.18-5.78,2.61-7.07,3.31-6.92,3.75-10.75,9.66-11.74,11.23-3.51,5.55-4.27,10.74-5.16,16.77-1.64,11.17.84,15.21-2.79,18.38-3.14,2.75-7.94,2.66-12.57,2.01-9.16-1.29-8.13-14.71-5.68-16,0,0-7.23,2.58-4.9,13.55,2.32,10.97,11.74,9.42,11.74,9.42,0,0-11.48,4.9-4.13,22.19,7.35,17.29-19.23,11.1-15.87,1.29,0,0-3.58,8.18,1.24,11.94,1.11.87,2.67,1.5,4.82,1.74,0,0,0,13.03,9.29,14.32,0,0,78.32-143.35,114.19-87.87,0,0,8.39,9.29,14.45,33.81l5.26-26.13Z"/>
      <path class="cls-33" d="M345.11,612.74c8.71-3.56,9.37-14.39,10.47-22.47.25-4.43-.16-8.93-1.29-13.23-.4-1.35-.69-2.88-1.51-4.03-1.79-2.43-5.12-2.62-7.62-4.2-5.12-3.21-5.4-12.5-1.74-16.91,2.23-2.48,6.46-2.29,8.68.1,0,0,1.69,1.5,1.69,1.5,1.04.92,1.95,2.12,3.46,1.74.32-.07.62-.17.92-.36l.95-.58c15.4-9.49,23.51-27.47,26.66-44.72,0,0,.1-.62.1-.62l.51.31c9.43,6.54,11.79,20.21,12.2,30.94,0,0-.71-.24-.71-.24,9.48-13.15,7.19-27.85-5.92-37.52-6.35-8.42-17.21-13.59-27.76-11.41-3.85-1.77-8.01-2.94-12.2-3.67-23.14-4.03-41.08,8.6-51.65,28.46-4.03,7.47-6.99,15.49-9.36,23.64-1.12,6.2-3.37,12.52-6.52,18.1-6.39,11.21-16.59,20.18-28.45,25.23-2.97,1.27-6.06,2.18-8.74,3.92-5.63,3.02-10.22,7.82-13.2,13.45-2.94,5.69-3.67,12.25-4.36,18.54-.29,3.21-.11,6.4-.26,9.62-.08,1.59-.53,3.35-1.77,4.52-3.65,3.57-9.29,3.03-13.93,2.29-6.03-1.36-7.74-8.84-6.27-14.11.27-.8.54-1.65,1.32-2.14,0,0,.17.38.17.38-2.4,1.04-4.16,3.37-4.8,5.92-1.13,4.95.06,11.27,4.09,14.63,2.36,1.95,5.59,2.4,8.53,1.92-2.46,1.03-4.61,2.91-5.85,5.29-2.26,4.18-1.8,9.25-.44,13.65.67,2.23,1.81,4.42,2.31,6.71,1.02,3.92-.85,7.52-5.14,7.84-5.33.57-13.93-3.32-12.08-9.74,0,0,.29.11.29.11-.56,1.37-.95,2.83-1.15,4.31-.82,4.94,1.93,8.82,7.09,9.17,0,0,.12.01.12.01v.13c.19,4.5,1.36,9.47,4.98,12.45,1.22.94,2.68,1.46,4.18,1.74l-.13.07c13.7-24.14,28.95-47.55,47.04-68.65,15.63-18.13,47.86-49.7,67.3-19.17,7.49,9.8,11.32,22.01,14.44,33.82-.09.07,5.26-26.14,5.24-26.13,0,0,.12-.58.12-.58h0ZM344.98,613.38s-5.23,26.33-5.26,26.07c-3.13-11.81-6.96-23.98-14.47-33.79-19.44-30.44-51.54,1.15-67.12,19.25-18.05,21.11-33.27,44.53-46.93,68.67,0,0-.05.08-.05.08-1.57-.28-3.12-.82-4.4-1.8-3.7-3.04-4.91-8.07-5.1-12.67,0,0,.13.14.13.14-5.24-.4-8.22-4.25-7.35-9.49.2-1.51.59-2.98,1.16-4.39l.29.11c-1.77,6.21,6.68,9.84,11.75,9.32,4.14-.35,5.78-3.66,4.84-7.44-.5-2.27-1.64-4.45-2.31-6.67-1.39-4.49-1.86-9.64.45-13.92,1.15-2.11,2.88-3.9,5.05-4.98,0,0,.1.36.1.36-9.53,1.13-13.85-9.1-11.99-17.15.67-2.65,2.46-5.08,5.05-6.2l.16.38c-1.18.94-1.36,2.78-1.53,4.21-.44,4.54,1.43,10.2,6.39,11.25,5.48,1.11,14.9,1.06,15.15-6.42,0-6.42.27-12.87,1.6-19.18.61-3.16,1.54-6.3,3.05-9.17,3.01-5.71,7.69-10.6,13.38-13.66,2.73-1.77,5.88-2.71,8.8-3.96,11.74-5.02,21.85-13.92,28.16-25.03,3.14-5.58,5.3-11.69,6.45-17.98,2.37-8.19,5.33-16.24,9.38-23.77,6.08-11.22,14.97-21.49,27.04-26.35,11.97-4.86,25.83-4,37.57,1.18,9.86-2.31,21.63,2.88,28.08,11.59,2.4,1.83,5.63,4.8,7.57,7.72,6.82,9.2,5.1,22-1.56,30.81,0,0-.65.87-.65.87l-.06-1.11c-.42-10.48-2.68-23.78-11.8-30.22,0,0,.61-.31.61-.31-3.24,17.91-11.75,36.47-28,45.97-1.07.66-2.61.76-3.66.02-1.13-.81-2.37-2.12-3.43-2.99-1.9-2.08-5.51-2.28-7.41-.17-3.24,3.97-3.08,12.57,1.56,15.49,2.52,1.55,6.01,1.79,7.9,4.44.94,1.31,1.21,2.85,1.66,4.34,1.16,4.4,1.59,8.98,1.33,13.53-1.09,8.44-1.9,19.42-10.83,23.25,0,0-.27.11-.27.11-.05.02-.02-.01-.07-.04l-.39-.26h0Z"/>
    </g>
    <path class="cls-7" d="M553.05,441.41s-7.43-24.62-55.64,1.27c0,0-17.67,1.25-24.62,18.25,0,0-27.8,31.02,9.42,45.3,0,0-5.94-27.25,1.45-28.79,0,0,3.86,24.48,23.96,21.41,0,0-9.61-6.32-8.95-11.36,0,0,12,10.8,17.12,10.85s9.92,5.87,11.01,10.78c0,0,2.03,1.4,3.81-.69s.76-15.29,9.62-16.31,10.73,11.42,9,19.22,25.12,11.56,27.66,5c2.54-6.56-6.6-7.06,1.73-27.27,8.33-20.2-2.48-47.16-25.59-47.67Z"/>
    <path class="cls-7" d="M334.16,607.84s5.24,36.25,13.2,44.57c0,0-9.16-45.67-4.18-49.54s-9.02,4.97-9.02,4.97Z"/>
    <g>
      <path class="cls-33" d="M350.68,585.45s-5.2,44.13-.86,47.81-24.11-16.47-13.27-37.56"/>
      <path class="cls-33" d="M350.68,585.45c-.98,11.52-1.95,23.07-2.12,34.64.03,3.76-.09,7.74.87,11.36.22.76.46,1.26,1.07,1.76,0,0,.08.08.08.08l.06.07s0-.01.07.11c.29-.32-.21.87-.43.72-.24-.02-.19-.04-.23-.05-.03-.01-.09-.05-.12-.07-10.96-8.67-21.06-24.59-13.38-38.37-6.81,13.76,3.05,28.81,13.7,37.41,0,0,.13.09.13.09l.06.04h.01c-.07-.01.04,0-.2-.03-.2-.14-.7,1.02-.42.69l.04.07c-5.14-3.67-.16-40.94.81-48.51h0Z"/>
    </g>
    <path class="cls-7" d="M352.52,581.43s-10.03,32.02,1.9,40.57c0,0-12.9-.85-16.55-16.47"/>
  </g>
  <g id="hair_details" data-name="hair details">
    <path class="cls-33" d="M298.69,532.4c-5.64,13.12-15.93,24.05-30.43,26.76-5.02,1.13-10.07,1.28-15.01,2.37-10.17,1.93-10.63,11.34-7.58,19.59-2.69-5.99-3.94-14.72,2.38-18.94,5.87-3.65,13.22-3.44,19.61-5.45,13.19-3.3,21.94-13.79,26.4-26.23,0,0,4.62,1.9,4.62,1.9h0Z"/>
    <path class="cls-33" d="M283.43,572.5c-10.45,7.15-22.7,11.27-34.95,14.01-3.87.98-7.99,1.18-11.71,2.59-12.27,4.89-10.4,20.43-9.86,31.29-.03,3.07,1.14,10.37-3.05,10.93,4.05-.77,2.45-7.89,2.3-10.87-1.55-11.66-3.7-28.19,9.41-34.1,3.83-1.77,8.02-2.22,11.99-3.48,10.53-3,20.83-7.2,29.88-13.38.46-.33,1.79-1.29,2.21-1.66,0,0,3.77,4.67,3.77,4.67h0Z"/>
    <path class="cls-33" d="M369.49,546.2c-5.98,5.61-10.82,13.38-11.3,21.75-.12,4.24.2,8.61,1.76,12.64,1.72,4.12,1.7,8.72,1.32,13.08-.02-2.19-.06-4.39-.38-6.54-.53-4.43-3.34-8.1-4.01-12.53-2.15-9.03.32-18.4,5.57-25.91,1.3-1.9,2.63-3.66,4.32-5.42l2.73,2.92h0Z"/>
    <path class="cls-33" d="M337.64,615.09c7.81-.44,15.03-4.18,17.34-12.1,2.3-7.61,1-16.09-1.36-23.62,1.58,3.74,2.72,7.69,3.4,11.73,2.01,11.01-1.1,22.32-12.67,26.34-2.02.8-4.13,1.21-6.26,1.61l-.46-3.97h0Z"/>
    <path class="cls-33" d="M391.87,501.88c11,5.19,22.49,16.41,14.47,28.95-2.12,3.48-5.04,6.33-8.15,8.87,3-2.66,5.79-5.63,7.72-9.12,7.21-12.24-4.23-22.37-14.82-26.86,0,0,.78-1.84.78-1.84h0Z"/>
    <path class="cls-33" d="M386.05,508.32c2.43,15.1-.99,34.77-19.29,36.42,3.69-.75,7.28-2.2,10.01-4.7,8.3-7.68,7.72-20.69,5.39-30.83,0,0,3.9-.89,3.9-.89h0Z"/>
    <path class="cls-33" d="M220.24,664.34c-6.32,2.87-26.12,12.33-20.83,21.2.85,1.31,2.11,2.34,3.41,3.25-1.37-.8-2.72-1.73-3.72-3.03-5.04-7.28,6.32-15.37,11.53-19.09,2.69-1.82,5.43-3.5,8.33-5.05l1.27,2.72h0Z"/>
    <path class="cls-33" d="M262.9,594.03c.39.8.72,1.73,1.01,2.55,3.3,10.08,4.29,20.76,2.32,31.27-1.97,10.81-7.8,20.73-16.21,27.67-3.44,3.01-6.94,5.83-10.35,8.56-5.18,4.52-14.66,10.38-14.39,17.49.3,3.96,3.04,7.74,5.65,10.8-1.86-1.17-3.68-2.44-5.36-3.99-6.63-5.88-5.96-13.5-2.01-20.75,4.36-8.06,9.75-14.87,14.28-22.49,3.72-5.58,5.53-12.42,4.45-19.02-.92-5.9-3.45-12.02-7.34-16.63-.42.51,27.97-15.55,27.95-15.46h0Z"/>
    <path class="cls-33" d="M276.89,606.5c-1.72.95-2.97,2.53-4.07,4.15-2.36,3.63-3.86,7.9-4.9,12.11-2.14,8.56-2.61,17.91-2.74,26.73-.03,10.28-4.04,18.78-15.08,20.32-4.41.87-9.15.26-13.38,1.71-6.28,2.52,1.58,13.84,3.62,17.58-1.24-1.9-2.43-3.82-3.52-5.81-11.9-21.64,15.88-6.99,23.91-21.09,3.47-5.58,2.68-13.21,2.74-19.53.09-4.49.32-9.21.91-13.67,1.2-8.37,3.46-19.89,10.85-25,.16-.09.29-.18.57-.29l1.09,2.79h0Z"/>
    <path class="cls-23" d="M555.23,443.75s49.19,2.18,20.49,49.84"/>
    <path class="cls-23" d="M543.39,433.72s-21.67-13.17-33.13,6.03"/>
    <path class="cls-23" d="M503.24,442.4s-33.8-10.57-26.36,18.38"/>
    <path class="cls-33" d="M474,465.73c-8.67-2.73-14.56,6.74-17.05,13.85-1.44,4.01-.84,8.74,2.93,11.22,3.58,2.47,8.15,3.27,12.45,3.4-2.2.09-4.42-.07-6.6-.47-13.32-2.51-12.46-12.55-7-22.39,2.09-3.55,4.89-6.79,8.94-8.22,2.43-.82,4.98-.98,7.47-.15,0,0-1.15,2.77-1.15,2.77h0Z"/>
    <path class="cls-33" d="M471.6,483.61c-4.93,4.84-10.08,14.05-2.51,19.02,2.14,1.54,4.73,2.54,7.36,3.28-2.71-.34-5.45-.92-8-2.21-8.1-3.83-6.73-13.11-2.99-19.62.71-1.3,1.43-2.49,2.39-3.78l3.75,3.31h0Z"/>
    <path class="cls-33" d="M480.11,470.74c1.27,13.97,8.93,29.79,24.9,29.97-3.64.11-7.38-.46-10.73-2.09-6.85-3.2-11.38-9.89-14.13-16.73-1.38-3.49-2.42-7.04-3.02-10.85l2.99-.3h0Z"/>
    <path class="cls-23" d="M494.53,489.63s3.35,10.8,24.14,7.21"/>
    <path class="cls-33" d="M495.83,477.46c1.68,6.8,5.04,13.83,11.12,17.73,2.12,1.3,4.55,2.06,7.06,2.25-5.34.91-10.75-1.23-14.82-4.69-4.24-3.57-7.54-8.06-9.99-13.04,0,0,6.63-2.25,6.63-2.25h0Z"/>
  </g>
  <g id="cofee">
    <path class="cls-9" d="M383.1,733.62c-2.33-.33-7.26-68.4-7.26-68.4h45.87s-5.52,68.02-7.06,68.4-16.55,2.13-31.55,0Z"/>
  </g>
  <g id="coffee">
    <polygon class="cls-36" points="377.42 678.17 379.87 706.95 417.36 706.95 420 678.17 377.42 678.17"/>
  </g>
  <g id="coffe_cups" data-name="coffe cups">
    <path class="cls-25" d="M398.78,658.82h-22.06s.58-6.19,2.18-6.34,19.89,0,19.89,0"/>
    <path class="cls-25" d="M398.63,658.82c7.35,0,14.71,0,22.06,0,0,0-.58-6.19-2.18-6.34s-19.89,0-19.89,0"/>
    <path class="cls-25" d="M398.12,665.22h-26.82s.72-6.19,2.69-6.34,24.57,0,24.57,0"/>
    <path class="cls-25" d="M397.94,665.22c9.09,0,18.61,0,27.69,0,0,0-.72-6.19-2.69-6.34s-24.57,0-24.57,0"/>
  </g>
  <g id="coffe_clone" data-name="coffe clone">
    <path class="cls-9" d="M474.22,733.62c-2.33-.33-7.26-68.4-7.26-68.4h45.87s-5.52,68.02-7.06,68.4-16.55,2.13-31.55,0Z"/>
    <polygon class="cls-36" points="468.55 678.17 471 706.94 508.48 706.94 511.13 678.17 468.55 678.17"/>
    <path class="cls-25" d="M489.9,658.81h-22.06s.58-6.19,2.18-6.34,19.89,0,19.89,0"/>
    <path class="cls-25" d="M489.75,658.81c7.35,0,14.71,0,22.06,0,0,0-.58-6.19-2.18-6.34s-19.89,0-19.89,0"/>
    <path class="cls-25" d="M489.24,665.22h-26.82s.72-6.19,2.69-6.34,24.57,0,24.57,0"/>
    <path class="cls-25" d="M489.06,665.22c9.09,0,18.61,0,27.69,0,0,0-.72-6.19-2.69-6.34s-24.57,0-24.57,0"/>
  </g>
  <g id="table">
    <rect class="cls-19" x="270.35" y="734.66" width="313.55" height="15.89" rx="3.77" ry="3.77"/>
    <path class="cls-19" d="M435.32,739.19c-3.1,1.87-1.03,152.76-2.06,181.21-1.03,28.45,1.55,52.47,5.94,55.97s46.71,11.19,46.71,11.19c10.84,2.1,6.97,8.63,6.97,8.63l-133.42.93s-2.58-7.46,7.23-10.03c9.81-2.57,42.84-6.76,46.97-11.19s5.42-21.92,4.9-53.17c-.52-31.25,4.39-169.08-2.58-181.91l19.35-1.63Z"/>
  </g>
  <g id="Layer_47" data-name="Layer 47">
    <path class="cls-31" d="M837.15,598.06c.79,2.98.4,6.26-1.34,9.15l-.4.66-12.64,20.94-21.34-11.94-.68-.38c-5.89-3.3-7.84-10.66-4.35-16.44,1.75-2.89,4.52-4.84,7.59-5.65s6.45-.49,9.4,1.16l.68.38.4-.66c3.49-5.78,11.1-7.8,16.99-4.5,2.95,1.65,4.91,4.31,5.7,7.29Z"/>
    <path class="cls-31" d="M424.24,406.42c-.27,1.8-1.24,3.49-2.83,4.65l-.37.27-11.56,8.4-8.55-11.45-.27-.36c-2.36-3.16-1.69-7.61,1.51-9.93,1.6-1.16,3.52-1.57,5.34-1.29s3.53,1.24,4.71,2.82l.27.36.37-.27c3.19-2.32,7.69-1.64,10.05,1.53,1.18,1.58,1.6,3.48,1.33,5.28Z"/>
    <path class="cls-34" d="M572,328.32c-.75,2.46-2.47,4.62-4.97,5.9l-.58.29-18.16,9.3-9.89-17.85-.31-.57c-2.73-4.93-.88-11,4.14-13.57,2.51-1.28,5.33-1.45,7.87-.67s4.79,2.48,6.16,4.95l.31.57.58-.29c5.01-2.57,11.29-.65,14.02,4.27,1.37,2.46,1.59,5.21.84,7.67Z"/>
    <path class="cls-31" d="M750.36,414.05c-.36,2.38-1.64,4.62-3.75,6.16l-.49.35-15.31,11.13-11.32-15.17-.36-.48c-3.13-4.19-2.23-10.08,1.99-13.15,2.11-1.54,4.66-2.08,7.07-1.71s4.68,1.64,6.24,3.73l.36.48.49-.35c4.23-3.07,10.19-2.17,13.31,2.02,1.56,2.09,2.12,4.61,1.76,6.99Z"/>
    <path class="cls-31" d="M117.06,555.42c1.49,1.89,2.26,4.35,1.94,6.94l-.07.6-2.3,18.79-18.81-2.06-.6-.07c-5.2-.57-8.89-5.24-8.26-10.42.32-2.59,1.66-4.83,3.57-6.34s4.39-2.31,6.99-2.02l.6.07.07-.6c.63-5.19,5.36-8.93,10.55-8.36,2.6.28,4.82,1.59,6.32,3.48Z"/>
    <path class="cls-34" d="M160.29,479.76c-.52,1.71-1.71,3.21-3.46,4.1l-.4.21-12.63,6.47-6.88-12.41-.22-.39c-1.9-3.43-.61-7.65,2.88-9.44,1.74-.89,3.71-1.01,5.47-.47s3.33,1.73,4.28,3.44l.22.39.4-.21c3.49-1.79,7.85-.45,9.75,2.97.95,1.71,1.1,3.63.58,5.33Z"/>
    <path class="cls-31" d="M218.46,359.72c.79,2.98.4,6.26-1.34,9.15l-.4.66-12.64,20.94-21.34-11.94-.68-.38c-5.89-3.3-7.84-10.66-4.35-16.44,1.75-2.89,4.52-4.84,7.59-5.65s6.45-.49,9.4,1.16l.68.38.4-.66c3.49-5.78,11.1-7.8,16.99-4.5,2.95,1.65,4.91,4.31,5.7,7.29Z"/>
  </g>
</svg>