<?xml version="1.0" encoding="UTF-8"?>
<svg id="Layer_1" data-name="Layer 1" xmlns="http://www.w3.org/2000/svg" viewBox="0 0 1920 1080">
  <defs>
    <style>
      .cls-1 {
        fill: #231f20;
      }
    </style>
  </defs>
  <g>
    <path class="cls-1" d="M358.47,279.94h38.78v17.9h-15.52v16.96h14.53v17.01h-14.53v19.66h17.07v17.9h-40.32v-89.43Z"/>
    <path class="cls-1" d="M451,296.07l-10.44,73.3h-29.17l-11.21-73.3h19.93l6.28,53.52c.49-3.94,1.33-13.53,2.52-28.77.63-8.51,1.35-16.76,2.17-24.76h19.93Z"/>
    <path class="cls-1" d="M504.8,334.02h-28.89v15.85c0,3.31.24,5.45.72,6.41.48.96,1.4,1.44,2.76,1.44,1.69,0,2.83-.64,3.4-1.91.57-1.27.86-3.73.86-7.37v-9.67h21.16v5.41c0,4.53-.29,8.01-.86,10.44-.57,2.43-1.91,5.03-4,7.79s-4.76,4.83-7.98,6.21c-3.22,1.38-7.26,2.07-12.12,2.07s-8.88-.68-12.48-2.04c-3.61-1.36-6.42-3.23-8.42-5.61-2.01-2.38-3.4-4.99-4.17-7.84-.77-2.85-1.16-7.01-1.16-12.46v-21.38c0-6.41.87-11.46,2.6-15.16,1.73-3.7,4.57-6.54,8.51-8.51,3.94-1.97,8.47-2.96,13.59-2.96,6.26,0,11.42,1.19,15.49,3.56,4.07,2.38,6.92,5.52,8.56,9.45,1.64,3.92,2.46,9.44,2.46,16.54v9.72ZM482.43,322.09v-5.36c0-3.79-.2-6.24-.61-7.35-.41-1.1-1.23-1.66-2.49-1.66-1.55,0-2.5.47-2.87,1.41-.37.94-.55,3.47-.55,7.6v5.36h6.52Z"/>
    <path class="cls-1" d="M534.4,296.07l-.88,9.64c3.24-6.9,7.94-10.56,14.09-10.96v25.8c-4.09,0-7.09.55-9,1.66-1.92,1.1-3.09,2.64-3.54,4.61-.44,1.97-.66,6.51-.66,13.62v28.94h-22.32v-73.3h22.32Z"/>
    <path class="cls-1" d="M601.34,296.07l-6.38,53.03c-1.01,8.39-1.85,14.12-2.54,17.18-.68,3.06-1.81,5.58-3.4,7.57s-3.78,3.45-6.6,4.39-7.32,1.41-13.5,1.41h-13.53v-11.71c3.47,0,5.7-.17,6.69-.52,1-.35,1.49-1.13,1.49-2.35,0-.59-.46-3.15-1.38-7.68l-12.22-61.31h20.26l7.33,49.49,3.58-49.49h20.19Z"/>
    <path class="cls-1" d="M679.29,312.86h-23.25v-8.12c0-5.12-.22-8.32-.66-9.61-.44-1.29-1.49-1.93-3.15-1.93-1.44,0-2.41.55-2.93,1.66-.52,1.1-.77,3.94-.77,8.51v42.92c0,4.01.26,6.66.77,7.93.51,1.27,1.55,1.91,3.09,1.91,1.69,0,2.84-.72,3.45-2.15s.91-4.23.91-8.4v-10.61h-4.7v-13.59h27.23v48h-14.61l-2.15-6.41c-1.58,2.76-3.58,4.83-6,6.21-2.41,1.38-5.26,2.07-8.54,2.07-3.91,0-7.57-.95-10.97-2.84-3.41-1.9-6-4.24-7.77-7.04-1.77-2.8-2.87-5.73-3.32-8.81-.44-3.07-.66-7.69-.66-13.84v-26.57c0-8.54.46-14.75,1.38-18.61.92-3.87,3.56-7.41,7.93-10.63,4.36-3.22,10.01-4.83,16.93-4.83s12.46,1.4,16.96,4.2c4.49,2.8,7.42,6.12,8.78,9.97,1.36,3.85,2.04,9.44,2.04,16.76v3.87Z"/>
    <path class="cls-1" d="M709.95,296.07l-.88,9.64c3.24-6.9,7.94-10.56,14.09-10.96v25.8c-4.09,0-7.09.55-9,1.66-1.92,1.1-3.09,2.64-3.54,4.61-.44,1.97-.66,6.51-.66,13.62v28.94h-22.32v-73.3h22.32Z"/>
    <path class="cls-1" d="M778.66,334.02h-28.89v15.85c0,3.31.24,5.45.72,6.41.48.96,1.4,1.44,2.76,1.44,1.69,0,2.83-.64,3.4-1.91.57-1.27.86-3.73.86-7.37v-9.67h21.16v5.41c0,4.53-.29,8.01-.86,10.44s-1.9,5.03-4,7.79-4.76,4.83-7.98,6.21c-3.22,1.38-7.26,2.07-12.12,2.07s-8.88-.68-12.48-2.04c-3.61-1.36-6.42-3.23-8.42-5.61-2.01-2.38-3.4-4.99-4.17-7.84-.77-2.85-1.16-7.01-1.16-12.46v-21.38c0-6.41.87-11.46,2.6-15.16,1.73-3.7,4.57-6.54,8.51-8.51,3.94-1.97,8.47-2.96,13.59-2.96,6.26,0,11.42,1.19,15.49,3.56s6.92,5.52,8.56,9.45c1.64,3.92,2.46,9.44,2.46,16.54v9.72ZM756.29,322.09v-5.36c0-3.79-.2-6.24-.61-7.35-.41-1.1-1.23-1.66-2.49-1.66-1.55,0-2.5.47-2.87,1.41-.37.94-.55,3.47-.55,7.6v5.36h6.52Z"/>
    <path class="cls-1" d="M805.89,324.46h-20.93v-4.92c0-5.67.65-10.04,1.96-13.12,1.31-3.07,3.93-5.79,7.87-8.15,3.94-2.36,9.06-3.54,15.36-3.54,7.55,0,13.24,1.34,17.07,4,3.83,2.67,6.13,5.95,6.9,9.83.77,3.89,1.16,11.89,1.16,24v36.79h-21.71v-6.53c-1.36,2.62-3.12,4.58-5.28,5.89-2.15,1.31-4.72,1.96-7.7,1.96-3.9,0-7.48-1.1-10.74-3.29-3.26-2.19-4.89-6.99-4.89-14.39v-6.02c0-5.49.86-9.22,2.6-11.21,1.73-1.99,6.02-4.31,12.87-6.96,7.33-2.87,11.25-4.81,11.77-5.8.51-.99.77-3.02.77-6.08,0-3.83-.29-6.32-.86-7.48-.57-1.16-1.52-1.74-2.85-1.74-1.51,0-2.45.49-2.82,1.46-.37.98-.55,3.51-.55,7.6v7.68ZM812.96,334.52c-3.57,2.61-5.64,4.81-6.22,6.57-.57,1.77-.86,4.31-.86,7.62,0,3.79.25,6.24.74,7.35.5,1.1,1.48,1.66,2.96,1.66s2.31-.43,2.74-1.3c.42-.87.63-3.14.63-6.82v-15.08Z"/>
    <path class="cls-1" d="M866.49,286.3v11.54h6.02v11.6h-6.02v39.22c0,4.82.25,7.51.75,8.06.49.55,2.57.83,6.21.83v11.82h-9c-5.08,0-8.71-.21-10.88-.64-2.17-.42-4.09-1.4-5.74-2.93-1.66-1.53-2.69-3.28-3.09-5.25-.41-1.97-.61-6.6-.61-13.89v-37.23h-4.81v-11.6h4.81v-11.54h22.37Z"/>
    <path class="cls-1" d="M947.3,307.01h-21.6v-6.63c0-3.09-.28-5.06-.83-5.91-.55-.85-1.47-1.27-2.76-1.27-1.4,0-2.46.57-3.18,1.71-.72,1.14-1.08,2.87-1.08,5.2,0,2.98.4,5.23,1.21,6.74.77,1.51,2.96,3.33,6.57,5.47,10.35,6.14,16.87,11.19,19.56,15.13,2.69,3.94,4.03,10.29,4.03,19.06,0,6.37-.74,11.07-2.24,14.09-1.49,3.02-4.37,5.55-8.64,7.6-4.27,2.04-9.24,3.07-14.91,3.07-6.22,0-11.54-1.18-15.93-3.54-4.4-2.36-7.28-5.36-8.65-9-1.36-3.65-2.04-8.82-2.04-15.52v-5.86h21.6v10.88c0,3.35.3,5.51.91,6.46.61.96,1.68,1.44,3.23,1.44s2.7-.61,3.45-1.82c.76-1.22,1.13-3.02,1.13-5.41,0-5.27-.72-8.71-2.15-10.33-1.47-1.62-5.1-4.33-10.88-8.12-5.78-3.83-9.61-6.61-11.49-8.34-1.88-1.73-3.43-4.12-4.67-7.18-1.23-3.06-1.85-6.96-1.85-11.71,0-6.85.87-11.86,2.62-15.02,1.75-3.17,4.58-5.64,8.48-7.43,3.9-1.79,8.62-2.68,14.14-2.68,6.04,0,11.18.98,15.44,2.93,4.25,1.95,7.07,4.41,8.45,7.37,1.38,2.97,2.07,8,2.07,15.11v3.54Z"/>
    <path class="cls-1" d="M979.39,286.3v11.54h6.02v11.6h-6.02v39.22c0,4.82.25,7.51.75,8.06.49.55,2.57.83,6.21.83v11.82h-9c-5.08,0-8.71-.21-10.88-.64-2.17-.42-4.09-1.4-5.74-2.93-1.66-1.53-2.69-3.28-3.09-5.25-.41-1.97-.61-6.6-.61-13.89v-37.23h-4.81v-11.6h4.81v-11.54h22.37Z"/>
    <path class="cls-1" d="M1040.82,321.81v17.95c0,6.59-.33,11.43-.99,14.5-.66,3.08-2.08,5.95-4.25,8.62-2.17,2.67-4.96,4.64-8.37,5.91-3.41,1.27-7.32,1.91-11.74,1.91-4.94,0-9.11-.54-12.54-1.63s-6.08-2.72-7.98-4.92c-1.9-2.19-3.25-4.84-4.06-7.95-.81-3.11-1.22-7.78-1.22-14v-18.78c0-6.81.74-12.13,2.21-15.96,1.47-3.83,4.12-6.9,7.95-9.22,3.83-2.32,8.73-3.48,14.69-3.48,5.01,0,9.31.75,12.9,2.24,3.59,1.49,6.36,3.43,8.31,5.83,1.95,2.39,3.29,4.86,4,7.4.72,2.54,1.08,6.41,1.08,11.6ZM1018.5,316.29c0-3.76-.2-6.12-.61-7.1-.41-.98-1.27-1.46-2.6-1.46s-2.21.49-2.65,1.46c-.44.98-.66,3.34-.66,7.1v33.09c0,3.46.22,5.72.66,6.77s1.31,1.57,2.6,1.57,2.2-.48,2.62-1.44c.42-.96.64-3.02.64-6.19v-33.8Z"/>
    <path class="cls-1" d="M1070.48,296.07l-.88,9.64c3.24-6.9,7.93-10.56,14.09-10.96v25.8c-4.09,0-7.09.55-9,1.66-1.92,1.1-3.09,2.64-3.54,4.61-.44,1.97-.66,6.51-.66,13.62v28.94h-22.32v-73.3h22.32Z"/>
    <path class="cls-1" d="M1137.41,296.07l-6.38,53.03c-1.01,8.39-1.85,14.12-2.53,17.18-.68,3.06-1.82,5.58-3.4,7.57s-3.78,3.45-6.6,4.39-7.32,1.41-13.5,1.41h-13.53v-11.71c3.47,0,5.7-.17,6.69-.52,1-.35,1.49-1.13,1.49-2.35,0-.59-.46-3.15-1.38-7.68l-12.22-61.31h20.26l7.33,49.49,3.57-49.49h20.19Z"/>
    <path class="cls-1" d="M407.75,442.76h-21.6v-6.63c0-3.09-.28-5.06-.83-5.91-.55-.85-1.47-1.27-2.76-1.27-1.4,0-2.46.57-3.18,1.71-.72,1.14-1.08,2.87-1.08,5.2,0,2.98.4,5.23,1.21,6.74.77,1.51,2.96,3.33,6.57,5.47,10.35,6.14,16.87,11.19,19.56,15.13,2.69,3.94,4.03,10.29,4.03,19.06,0,6.37-.75,11.07-2.24,14.09-1.49,3.02-4.37,5.55-8.64,7.6-4.27,2.04-9.24,3.07-14.91,3.07-6.22,0-11.54-1.18-15.94-3.54-4.4-2.36-7.28-5.36-8.64-9-1.36-3.65-2.04-8.82-2.04-15.52v-5.86h21.6v10.88c0,3.35.3,5.51.91,6.46.61.96,1.68,1.44,3.23,1.44s2.7-.61,3.45-1.82c.75-1.22,1.13-3.02,1.13-5.41,0-5.27-.72-8.71-2.15-10.33-1.47-1.62-5.1-4.33-10.88-8.12-5.78-3.83-9.61-6.61-11.49-8.34-1.88-1.73-3.43-4.12-4.67-7.18-1.23-3.06-1.85-6.96-1.85-11.71,0-6.85.87-11.86,2.62-15.02,1.75-3.17,4.57-5.64,8.48-7.43,3.9-1.79,8.62-2.68,14.14-2.68,6.04,0,11.19.98,15.44,2.93,4.25,1.95,7.07,4.41,8.45,7.37,1.38,2.97,2.07,8,2.07,15.11v3.54Z"/>
    <path class="cls-1" d="M439.84,422.05v11.54h6.02v11.6h-6.02v39.22c0,4.82.25,7.51.75,8.06s2.57.83,6.21.83v11.82h-9c-5.08,0-8.71-.21-10.88-.64-2.17-.42-4.09-1.4-5.74-2.93-1.66-1.53-2.69-3.28-3.09-5.25-.41-1.97-.61-6.6-.61-13.89v-37.23h-4.81v-11.6h4.81v-11.54h22.37Z"/>
    <path class="cls-1" d="M470.72,460.21h-20.93v-4.92c0-5.67.65-10.04,1.96-13.12,1.31-3.07,3.93-5.79,7.87-8.15,3.94-2.36,9.06-3.54,15.36-3.54,7.55,0,13.24,1.34,17.07,4,3.83,2.67,6.13,5.95,6.9,9.83.77,3.89,1.16,11.89,1.16,24v36.79h-21.71v-6.53c-1.36,2.62-3.12,4.58-5.28,5.89s-4.72,1.96-7.71,1.96c-3.9,0-7.48-1.1-10.74-3.29s-4.89-6.99-4.89-14.39v-6.02c0-5.49.87-9.22,2.6-11.21,1.73-1.99,6.02-4.31,12.87-6.96,7.33-2.87,11.25-4.81,11.77-5.8.51-.99.77-3.02.77-6.08,0-3.83-.29-6.32-.86-7.48-.57-1.16-1.52-1.74-2.84-1.74-1.51,0-2.45.49-2.82,1.46-.37.98-.55,3.51-.55,7.6v7.68ZM477.79,470.27c-3.57,2.61-5.64,4.81-6.21,6.57-.57,1.77-.86,4.31-.86,7.62,0,3.79.25,6.24.75,7.35s1.48,1.66,2.96,1.66,2.31-.43,2.73-1.3c.42-.87.64-3.14.64-6.82v-15.08Z"/>
    <path class="cls-1" d="M530.1,431.82l-.88,9.64c3.24-6.9,7.94-10.56,14.09-10.96v25.8c-4.09,0-7.09.55-9,1.66-1.92,1.1-3.09,2.64-3.54,4.61-.44,1.97-.66,6.51-.66,13.62v28.94h-22.32v-73.3h22.32Z"/>
    <path class="cls-1" d="M573.84,422.05v11.54h6.02v11.6h-6.02v39.22c0,4.82.25,7.51.75,8.06s2.57.83,6.21.83v11.82h-9c-5.08,0-8.71-.21-10.88-.64-2.17-.42-4.09-1.4-5.74-2.93-1.66-1.53-2.69-3.28-3.09-5.25-.41-1.97-.61-6.6-.61-13.89v-37.23h-4.81v-11.6h4.81v-11.54h22.37Z"/>
    <path class="cls-1" d="M630.35,455.24h-19.77v-3.98c0-3.39-.19-5.53-.58-6.44-.39-.9-1.35-1.35-2.9-1.35-1.25,0-2.19.41-2.82,1.24-.63.83-.94,2.07-.94,3.73,0,2.25.16,3.89.47,4.94.31,1.05,1.25,2.2,2.82,3.45,1.56,1.25,4.78,3.08,9.64,5.47,6.48,3.17,10.73,6.15,12.76,8.95,2.02,2.8,3.04,6.87,3.04,12.21,0,5.97-.77,10.47-2.32,13.51s-4.13,5.38-7.76,7.02c-3.63,1.64-8,2.46-13.12,2.46-5.67,0-10.52-.88-14.55-2.65-4.03-1.77-6.8-4.16-8.31-7.18-1.51-3.02-2.26-7.59-2.26-13.7v-3.54h19.77v4.64c0,3.94.25,6.5.75,7.68.5,1.18,1.48,1.77,2.96,1.77,1.58,0,2.69-.4,3.31-1.19.63-.79.94-2.46.94-5,0-3.5-.41-5.69-1.22-6.57-.85-.88-5.17-3.5-12.98-7.84-6.56-3.68-10.55-7.02-11.99-10.03-1.44-3-2.15-6.56-2.15-10.69,0-5.86.77-10.17,2.32-12.95,1.55-2.78,4.17-4.92,7.87-6.44,3.7-1.51,8-2.26,12.9-2.26s8.99.62,12.4,1.85c3.41,1.23,6.02,2.86,7.84,4.89,1.82,2.03,2.93,3.9,3.31,5.63.39,1.73.58,4.44.58,8.12v4.25Z"/>
    <path class="cls-1" d="M746.18,415.69l-10.35,89.43h-29.03c-2.66-13.74-5-29.37-7.04-46.9-.93,7.51-3.09,23.15-6.49,46.9h-28.87l-10.41-89.43h22.59l2.46,31.2,2.38,30.16c.86-15.61,3-36.07,6.43-61.37h24.15c.32,2.61,1.17,12.45,2.54,29.5l2.57,34.03c1.32-21.65,3.49-42.82,6.49-63.52h22.59Z"/>
    <path class="cls-1" d="M773.08,415.69v11.65h-22.98v-11.65h22.98ZM773.08,431.82v73.3h-22.98v-73.3h22.98Z"/>
    <path class="cls-1" d="M804.62,422.05v11.54h6.02v11.6h-6.02v39.22c0,4.82.25,7.51.75,8.06.49.55,2.57.83,6.21.83v11.82h-9c-5.08,0-8.71-.21-10.88-.64-2.17-.42-4.09-1.4-5.74-2.93-1.66-1.53-2.69-3.28-3.09-5.25-.41-1.97-.61-6.6-.61-13.89v-37.23h-4.81v-11.6h4.81v-11.54h22.37Z"/>
    <path class="cls-1" d="M837.88,415.69v20.12c1.91-1.77,3.99-3.1,6.21-3.99,2.23-.88,4.61-1.33,7.15-1.33,3.9,0,7.23.99,9.97,2.98,2.74,1.99,4.42,4.28,5.03,6.88.61,2.6.91,7.34.91,14.22v50.54h-22.32v-51.59c0-4.27-.21-7.02-.64-8.23-.42-1.22-1.37-1.82-2.84-1.82-1.36,0-2.28.63-2.76,1.88-.48,1.25-.72,3.74-.72,7.46v52.31h-22.32v-89.43h22.32Z"/>
    <path class="cls-1" d="M914.71,460.21h-20.93v-4.92c0-5.67.65-10.04,1.96-13.12,1.31-3.07,3.93-5.79,7.87-8.15,3.94-2.36,9.06-3.54,15.36-3.54,7.55,0,13.24,1.34,17.07,4,3.83,2.67,6.13,5.95,6.9,9.83.77,3.89,1.16,11.89,1.16,24v36.79h-21.71v-6.53c-1.36,2.62-3.12,4.58-5.28,5.89-2.15,1.31-4.72,1.96-7.7,1.96-3.9,0-7.48-1.1-10.74-3.29-3.26-2.19-4.89-6.99-4.89-14.39v-6.02c0-5.49.86-9.22,2.6-11.21,1.73-1.99,6.02-4.31,12.87-6.96,7.33-2.87,11.25-4.81,11.77-5.8.51-.99.77-3.02.77-6.08,0-3.83-.29-6.32-.86-7.48-.57-1.16-1.52-1.74-2.85-1.74-1.51,0-2.45.49-2.82,1.46-.37.98-.55,3.51-.55,7.6v7.68ZM921.78,470.27c-3.57,2.61-5.64,4.81-6.22,6.57-.57,1.77-.86,4.31-.86,7.62,0,3.79.25,6.24.74,7.35.5,1.1,1.48,1.66,2.96,1.66s2.31-.43,2.74-1.3c.42-.87.63-3.14.63-6.82v-15.08Z"/>
    <path class="cls-1" d="M1026.67,454.64h-23.25v-15.54c0-4.52-.25-7.34-.75-8.46-.49-1.12-1.59-1.68-3.29-1.68-1.92,0-3.13.68-3.65,2.04-.52,1.36-.77,4.31-.77,8.84v41.54c0,4.35.26,7.18.77,8.51.51,1.33,1.67,1.99,3.48,1.99s2.86-.66,3.4-1.99c.53-1.33.8-4.45.8-9.36v-11.24h23.25v3.49c0,9.26-.65,15.82-1.96,19.69-1.31,3.87-4.2,7.27-8.67,10.18-4.47,2.91-9.99,4.37-16.54,4.37s-12.43-1.23-16.85-3.7-7.35-5.88-8.78-10.25-2.15-10.93-2.15-19.69v-26.13c0-6.44.22-11.28.66-14.5.44-3.22,1.76-6.32,3.95-9.31,2.19-2.98,5.23-5.33,9.11-7.04,3.89-1.71,8.35-2.57,13.4-2.57,6.85,0,12.5,1.32,16.96,3.97,4.45,2.65,7.38,5.95,8.78,9.9,1.4,3.95,2.1,10.1,2.1,18.45v8.5Z"/>
    <path class="cls-1" d="M1084.84,457.56v17.95c0,6.59-.33,11.43-.99,14.5-.66,3.08-2.08,5.95-4.25,8.62-2.17,2.67-4.96,4.64-8.37,5.91-3.41,1.27-7.32,1.91-11.74,1.91-4.94,0-9.11-.54-12.54-1.63s-6.08-2.72-7.98-4.92c-1.9-2.19-3.25-4.84-4.06-7.95-.81-3.11-1.22-7.78-1.22-14v-18.78c0-6.81.74-12.13,2.21-15.96,1.47-3.83,4.12-6.9,7.95-9.22,3.83-2.32,8.73-3.48,14.69-3.48,5.01,0,9.31.75,12.9,2.24,3.59,1.49,6.36,3.43,8.31,5.83,1.95,2.39,3.29,4.86,4,7.4.72,2.54,1.08,6.41,1.08,11.6ZM1062.52,452.04c0-3.76-.2-6.12-.61-7.1-.41-.98-1.27-1.46-2.6-1.46s-2.21.49-2.65,1.46c-.44.98-.66,3.34-.66,7.1v33.09c0,3.46.22,5.72.66,6.77s1.31,1.57,2.6,1.57,2.2-.48,2.62-1.44c.42-.96.64-3.02.64-6.19v-33.8Z"/>
    <path class="cls-1" d="M1114.89,431.82l-.39,6.75c1.62-2.69,3.6-4.71,5.94-6.06,2.34-1.35,5.03-2.02,8.09-2.02,3.83,0,6.96.9,9.39,2.71,2.43,1.81,3.99,4.08,4.7,6.82.7,2.74,1.05,7.32,1.05,13.73v51.37h-22.32v-50.76c0-5.04-.17-8.12-.5-9.22s-1.25-1.66-2.76-1.66c-1.58,0-2.58.64-2.98,1.91-.41,1.27-.61,4.67-.61,10.19v49.55h-22.32v-73.3h22.7Z"/>
    <path class="cls-1" d="M1197.52,431.82l-10.44,73.3h-29.17l-11.21-73.3h19.93l6.28,53.52c.49-3.94,1.33-13.53,2.52-28.77.63-8.51,1.35-16.76,2.17-24.76h19.93Z"/>
    <path class="cls-1" d="M1251.32,469.77h-28.89v15.85c0,3.31.24,5.45.72,6.41.48.96,1.4,1.44,2.76,1.44,1.69,0,2.83-.64,3.4-1.91.57-1.27.86-3.73.86-7.37v-9.67h21.16v5.41c0,4.53-.29,8.01-.86,10.44-.57,2.43-1.91,5.03-4.01,7.79s-4.76,4.83-7.98,6.21c-3.22,1.38-7.26,2.07-12.12,2.07s-8.88-.68-12.48-2.04c-3.61-1.36-6.42-3.23-8.42-5.61-2.01-2.38-3.4-4.99-4.17-7.84-.77-2.85-1.16-7.01-1.16-12.46v-21.38c0-6.41.86-11.46,2.6-15.16,1.73-3.7,4.56-6.54,8.51-8.51s8.47-2.96,13.59-2.96c6.26,0,11.43,1.19,15.5,3.56,4.07,2.38,6.92,5.52,8.56,9.45,1.64,3.92,2.46,9.44,2.46,16.54v9.72ZM1228.95,457.84v-5.36c0-3.79-.2-6.24-.61-7.35-.41-1.1-1.24-1.66-2.49-1.66-1.55,0-2.51.47-2.87,1.41-.37.94-.55,3.47-.55,7.6v5.36h6.52Z"/>
    <path class="cls-1" d="M1280.93,431.82l-.88,9.64c3.24-6.9,7.93-10.56,14.09-10.96v25.8c-4.09,0-7.09.55-9,1.66-1.92,1.1-3.09,2.64-3.54,4.61-.44,1.97-.66,6.51-.66,13.62v28.94h-22.32v-73.3h22.32Z"/>
    <path class="cls-1" d="M1344.67,455.24h-19.77v-3.98c0-3.39-.19-5.53-.58-6.44-.38-.9-1.35-1.35-2.9-1.35-1.25,0-2.19.41-2.82,1.24-.63.83-.94,2.07-.94,3.73,0,2.25.16,3.89.47,4.94.31,1.05,1.25,2.2,2.82,3.45,1.56,1.25,4.78,3.08,9.64,5.47,6.48,3.17,10.73,6.15,12.76,8.95,2.02,2.8,3.04,6.87,3.04,12.21,0,5.97-.77,10.47-2.32,13.51s-4.13,5.38-7.76,7.02c-3.63,1.64-8,2.46-13.12,2.46-5.67,0-10.52-.88-14.56-2.65-4.03-1.77-6.8-4.16-8.31-7.18-1.51-3.02-2.26-7.59-2.26-13.7v-3.54h19.77v4.64c0,3.94.25,6.5.74,7.68.5,1.18,1.48,1.77,2.96,1.77,1.58,0,2.69-.4,3.31-1.19.63-.79.94-2.46.94-5,0-3.5-.41-5.69-1.22-6.57-.85-.88-5.17-3.5-12.98-7.84-6.56-3.68-10.55-7.02-11.99-10.03-1.44-3-2.15-6.56-2.15-10.69,0-5.86.77-10.17,2.32-12.95,1.55-2.78,4.17-4.92,7.87-6.44,3.7-1.51,8-2.26,12.9-2.26s8.99.62,12.4,1.85c3.41,1.23,6.02,2.86,7.84,4.89,1.83,2.03,2.93,3.9,3.31,5.63.39,1.73.58,4.44.58,8.12v4.25Z"/>
    <path class="cls-1" d="M1372.29,460.21h-20.93v-4.92c0-5.67.65-10.04,1.96-13.12,1.31-3.07,3.93-5.79,7.87-8.15,3.94-2.36,9.06-3.54,15.36-3.54,7.55,0,13.24,1.34,17.07,4,3.83,2.67,6.13,5.95,6.9,9.83.77,3.89,1.16,11.89,1.16,24v36.79h-21.71v-6.53c-1.36,2.62-3.12,4.58-5.28,5.89-2.15,1.31-4.72,1.96-7.7,1.96-3.9,0-7.48-1.1-10.74-3.29-3.26-2.19-4.89-6.99-4.89-14.39v-6.02c0-5.49.86-9.22,2.6-11.21,1.73-1.99,6.02-4.31,12.87-6.96,7.33-2.87,11.25-4.81,11.77-5.8.51-.99.77-3.02.77-6.08,0-3.83-.29-6.32-.86-7.48-.57-1.16-1.52-1.74-2.85-1.74-1.51,0-2.45.49-2.82,1.46-.37.98-.55,3.51-.55,7.6v7.68ZM1379.36,470.27c-3.57,2.61-5.64,4.81-6.22,6.57-.57,1.77-.86,4.31-.86,7.62,0,3.79.25,6.24.74,7.35.5,1.1,1.48,1.66,2.96,1.66s2.31-.43,2.74-1.3c.42-.87.63-3.14.63-6.82v-15.08Z"/>
    <path class="cls-1" d="M1432.89,422.05v11.54h6.02v11.6h-6.02v39.22c0,4.82.25,7.51.75,8.06.49.55,2.57.83,6.21.83v11.82h-9c-5.08,0-8.71-.21-10.88-.64-2.17-.42-4.09-1.4-5.74-2.93-1.66-1.53-2.69-3.28-3.09-5.25-.41-1.97-.61-6.6-.61-13.89v-37.23h-4.81v-11.6h4.81v-11.54h22.37Z"/>
    <path class="cls-1" d="M1466.8,415.69v11.65h-22.98v-11.65h22.98ZM1466.8,431.82v73.3h-22.98v-73.3h22.98Z"/>
    <path class="cls-1" d="M1525.3,457.56v17.95c0,6.59-.33,11.43-.99,14.5-.66,3.08-2.08,5.95-4.25,8.62-2.17,2.67-4.96,4.64-8.37,5.91-3.41,1.27-7.32,1.91-11.74,1.91-4.94,0-9.11-.54-12.54-1.63s-6.08-2.72-7.98-4.92c-1.9-2.19-3.25-4.84-4.06-7.95-.81-3.11-1.22-7.78-1.22-14v-18.78c0-6.81.74-12.13,2.21-15.96,1.47-3.83,4.12-6.9,7.95-9.22,3.83-2.32,8.73-3.48,14.69-3.48,5.01,0,9.31.75,12.9,2.24,3.59,1.49,6.36,3.43,8.31,5.83,1.95,2.39,3.29,4.86,4,7.4.72,2.54,1.08,6.41,1.08,11.6ZM1502.98,452.04c0-3.76-.2-6.12-.61-7.1-.41-.98-1.27-1.46-2.6-1.46s-2.21.49-2.65,1.46c-.44.98-.66,3.34-.66,7.1v33.09c0,3.46.22,5.72.66,6.77s1.31,1.57,2.6,1.57,2.2-.48,2.62-1.44c.42-.96.64-3.02.64-6.19v-33.8Z"/>
    <path class="cls-1" d="M1555.35,431.82l-.39,6.75c1.62-2.69,3.6-4.71,5.94-6.06,2.34-1.35,5.03-2.02,8.09-2.02,3.83,0,6.96.9,9.39,2.71,2.43,1.81,3.99,4.08,4.7,6.82.7,2.74,1.05,7.32,1.05,13.73v51.37h-22.32v-50.76c0-5.04-.17-8.12-.5-9.22s-1.25-1.66-2.76-1.66c-1.58,0-2.58.64-2.98,1.91-.41,1.27-.61,4.67-.61,10.19v49.55h-22.32v-73.3h22.7Z"/>
  </g>
  <g>
    <path class="cls-1" d="M366.05,635.52l-6.97-27.46h3.75l3.26,13.89c.81,3.42,1.55,6.84,2.04,9.49h.08c.45-2.73,1.3-5.99,2.24-9.53l3.67-13.85h3.71l3.34,13.93c.77,3.26,1.51,6.52,1.91,9.41h.08c.57-3.01,1.34-6.07,2.2-9.49l3.62-13.85h3.63l-7.78,27.46h-3.71l-3.46-14.3c-.86-3.5-1.43-6.19-1.79-8.96h-.08c-.49,2.73-1.1,5.42-2.12,8.96l-3.91,14.3h-3.71Z"/>
    <path class="cls-1" d="M396.55,626.31c.08,4.85,3.18,6.84,6.76,6.84,2.57,0,4.11-.45,5.46-1.02l.61,2.57c-1.26.57-3.42,1.22-6.56,1.22-6.07,0-9.7-3.99-9.7-9.94s3.5-10.63,9.25-10.63c6.44,0,8.15,5.66,8.15,9.29,0,.73-.08,1.3-.12,1.67h-13.85ZM407.06,623.74c.04-2.28-.94-5.83-4.97-5.83-3.63,0-5.21,3.34-5.5,5.83h10.47Z"/>
    <path class="cls-1" d="M423.43,635.52c.08-1.34.16-3.34.16-5.09v-23.83h3.54v12.38h.08c1.26-2.2,3.54-3.63,6.72-3.63,4.89,0,8.35,4.07,8.31,10.06,0,7.05-4.44,10.55-8.84,10.55-2.85,0-5.13-1.1-6.6-3.71h-.12l-.16,3.26h-3.1ZM427.13,627.61c0,.45.08.9.16,1.3.69,2.49,2.77,4.2,5.38,4.2,3.75,0,5.99-3.05,5.99-7.58,0-3.95-2.04-7.33-5.87-7.33-2.44,0-4.73,1.67-5.46,4.4-.08.41-.2.89-.2,1.46v3.54Z"/>
    <path class="cls-1" d="M448.76,626.31c.08,4.85,3.18,6.84,6.76,6.84,2.57,0,4.11-.45,5.46-1.02l.61,2.57c-1.26.57-3.42,1.22-6.56,1.22-6.07,0-9.7-3.99-9.7-9.94s3.5-10.63,9.25-10.63c6.44,0,8.15,5.66,8.15,9.29,0,.73-.08,1.3-.12,1.67h-13.85ZM459.27,623.74c.04-2.28-.94-5.83-4.97-5.83-3.63,0-5.21,3.34-5.5,5.83h10.47Z"/>
    <path class="cls-1" d="M467.17,606.59h3.58v28.92h-3.58v-28.92Z"/>
    <path class="cls-1" d="M480.77,610.26c.04,1.22-.86,2.2-2.28,2.2-1.26,0-2.16-.98-2.16-2.2s.94-2.24,2.24-2.24,2.2.98,2.2,2.24ZM476.78,635.52v-19.72h3.58v19.72h-3.58Z"/>
    <path class="cls-1" d="M488.3,626.31c.08,4.85,3.18,6.84,6.76,6.84,2.57,0,4.11-.45,5.46-1.02l.61,2.57c-1.26.57-3.42,1.22-6.56,1.22-6.07,0-9.7-3.99-9.7-9.94s3.5-10.63,9.25-10.63c6.44,0,8.15,5.66,8.15,9.29,0,.73-.08,1.3-.12,1.67h-13.85ZM498.81,623.74c.04-2.28-.94-5.83-4.97-5.83-3.63,0-5.21,3.34-5.5,5.83h10.47Z"/>
    <path class="cls-1" d="M508.09,615.8l3.87,11.08c.65,1.79,1.18,3.42,1.59,5.05h.12c.45-1.63,1.02-3.26,1.67-5.05l3.83-11.08h3.75l-7.74,19.72h-3.42l-7.5-19.72h3.83Z"/>
    <path class="cls-1" d="M527.89,626.31c.08,4.85,3.18,6.84,6.76,6.84,2.57,0,4.11-.45,5.46-1.02l.61,2.57c-1.26.57-3.42,1.22-6.56,1.22-6.07,0-9.7-3.99-9.7-9.94s3.5-10.63,9.25-10.63c6.44,0,8.15,5.66,8.15,9.29,0,.73-.08,1.3-.12,1.67h-13.85ZM538.39,623.74c.04-2.28-.94-5.83-4.97-5.83-3.63,0-5.21,3.34-5.5,5.83h10.47Z"/>
    <path class="cls-1" d="M559.24,610.14v5.66h5.13v2.73h-5.13v10.63c0,2.44.69,3.83,2.69,3.83.94,0,1.63-.12,2.08-.24l.16,2.69c-.69.29-1.79.49-3.18.49-1.67,0-3.01-.53-3.87-1.51-1.02-1.06-1.39-2.81-1.39-5.13v-10.75h-3.05v-2.73h3.05v-4.73l3.5-.94Z"/>
    <path class="cls-1" d="M568.41,606.59h3.58v12.3h.08c.57-1.02,1.47-1.92,2.57-2.53,1.06-.61,2.32-1.02,3.67-1.02,2.65,0,6.88,1.63,6.88,8.43v11.73h-3.58v-11.32c0-3.18-1.18-5.87-4.56-5.87-2.32,0-4.15,1.63-4.81,3.58-.2.49-.24,1.02-.24,1.71v11.89h-3.58v-28.92Z"/>
    <path class="cls-1" d="M593,626.31c.08,4.85,3.18,6.84,6.76,6.84,2.57,0,4.11-.45,5.46-1.02l.61,2.57c-1.26.57-3.42,1.22-6.56,1.22-6.07,0-9.7-3.99-9.7-9.94s3.5-10.63,9.25-10.63c6.44,0,8.15,5.66,8.15,9.29,0,.73-.08,1.3-.12,1.67h-13.85ZM603.51,623.74c.04-2.28-.94-5.83-4.97-5.83-3.63,0-5.21,3.34-5.5,5.83h10.47Z"/>
    <path class="cls-1" d="M619.88,635.52c.08-1.34.16-3.34.16-5.09v-23.83h3.54v12.38h.08c1.26-2.2,3.54-3.63,6.72-3.63,4.89,0,8.35,4.07,8.31,10.06,0,7.05-4.44,10.55-8.84,10.55-2.85,0-5.13-1.1-6.6-3.71h-.12l-.16,3.26h-3.1ZM623.59,627.61c0,.45.08.9.16,1.3.69,2.49,2.77,4.2,5.38,4.2,3.75,0,5.99-3.05,5.99-7.58,0-3.95-2.04-7.33-5.87-7.33-2.44,0-4.73,1.67-5.46,4.4-.08.41-.2.89-.2,1.46v3.54Z"/>
    <path class="cls-1" d="M645.21,626.31c.08,4.85,3.18,6.84,6.76,6.84,2.57,0,4.11-.45,5.46-1.02l.61,2.57c-1.26.57-3.42,1.22-6.56,1.22-6.07,0-9.7-3.99-9.7-9.94s3.5-10.63,9.25-10.63c6.44,0,8.15,5.66,8.15,9.29,0,.73-.08,1.3-.12,1.67h-13.85ZM655.72,623.74c.04-2.28-.94-5.83-4.97-5.83-3.63,0-5.21,3.34-5.5,5.83h10.47Z"/>
    <path class="cls-1" d="M663.13,631.85c1.06.69,2.93,1.43,4.73,1.43,2.61,0,3.83-1.3,3.83-2.93,0-1.71-1.02-2.65-3.67-3.63-3.54-1.26-5.21-3.22-5.21-5.58,0-3.18,2.57-5.78,6.8-5.78,2,0,3.75.57,4.85,1.22l-.9,2.61c-.77-.49-2.2-1.14-4.03-1.14-2.12,0-3.3,1.22-3.3,2.69,0,1.63,1.18,2.36,3.75,3.34,3.42,1.3,5.17,3.02,5.17,5.95,0,3.46-2.69,5.91-7.37,5.91-2.16,0-4.15-.53-5.54-1.35l.9-2.73Z"/>
    <path class="cls-1" d="M684.06,610.14v5.66h5.13v2.73h-5.13v10.63c0,2.44.69,3.83,2.69,3.83.94,0,1.63-.12,2.08-.24l.16,2.69c-.69.29-1.79.49-3.18.49-1.67,0-3.01-.53-3.87-1.51-1.02-1.06-1.39-2.81-1.39-5.13v-10.75h-3.05v-2.73h3.05v-4.73l3.5-.94Z"/>
    <path class="cls-1" d="M715.91,634.78c-.94.49-3.01,1.14-5.66,1.14-5.95,0-9.82-4.03-9.82-10.06s4.15-10.47,10.59-10.47c2.12,0,3.99.53,4.97,1.02l-.82,2.77c-.86-.49-2.2-.94-4.15-.94-4.52,0-6.97,3.34-6.97,7.45,0,4.56,2.93,7.37,6.84,7.37,2.04,0,3.38-.53,4.4-.98l.61,2.69Z"/>
    <path class="cls-1" d="M737.7,625.5c0,7.29-5.05,10.47-9.82,10.47-5.34,0-9.45-3.91-9.45-10.14,0-6.6,4.32-10.47,9.78-10.47s9.49,4.11,9.49,10.14ZM722.06,625.7c0,4.32,2.48,7.58,5.99,7.58s5.99-3.22,5.99-7.66c0-3.34-1.67-7.58-5.91-7.58s-6.07,3.91-6.07,7.66Z"/>
    <path class="cls-1" d="M742.22,621.14c0-2.04-.04-3.71-.16-5.34h3.18l.2,3.26h.08c.98-1.88,3.26-3.71,6.52-3.71,2.73,0,6.97,1.63,6.97,8.39v11.77h-3.58v-11.37c0-3.18-1.18-5.82-4.56-5.82-2.36,0-4.2,1.67-4.81,3.67-.16.45-.24,1.06-.24,1.67v11.85h-3.58v-14.38Z"/>
    <path class="cls-1" d="M764.82,621.14c0-2.04-.04-3.71-.16-5.34h3.18l.2,3.26h.08c.98-1.88,3.26-3.71,6.52-3.71,2.73,0,6.97,1.63,6.97,8.39v11.77h-3.58v-11.37c0-3.18-1.18-5.82-4.56-5.82-2.36,0-4.2,1.67-4.81,3.67-.16.45-.24,1.06-.24,1.67v11.85h-3.58v-14.38Z"/>
    <path class="cls-1" d="M789.42,626.31c.08,4.85,3.18,6.84,6.76,6.84,2.57,0,4.11-.45,5.46-1.02l.61,2.57c-1.26.57-3.42,1.22-6.56,1.22-6.07,0-9.7-3.99-9.7-9.94s3.5-10.63,9.25-10.63c6.44,0,8.15,5.66,8.15,9.29,0,.73-.08,1.3-.12,1.67h-13.85ZM799.93,623.74c.04-2.28-.94-5.83-4.97-5.83-3.63,0-5.21,3.34-5.5,5.83h10.47Z"/>
    <path class="cls-1" d="M821.88,634.78c-.94.49-3.01,1.14-5.66,1.14-5.95,0-9.82-4.03-9.82-10.06s4.15-10.47,10.59-10.47c2.12,0,3.99.53,4.97,1.02l-.82,2.77c-.86-.49-2.2-.94-4.15-.94-4.52,0-6.97,3.34-6.97,7.45,0,4.56,2.93,7.37,6.84,7.37,2.04,0,3.38-.53,4.4-.98l.61,2.69Z"/>
    <path class="cls-1" d="M830.92,610.14v5.66h5.13v2.73h-5.13v10.63c0,2.44.69,3.83,2.69,3.83.94,0,1.63-.12,2.08-.24l.16,2.69c-.69.29-1.79.49-3.18.49-1.67,0-3.01-.53-3.87-1.51-1.02-1.06-1.39-2.81-1.39-5.13v-10.75h-3.05v-2.73h3.05v-4.73l3.5-.94Z"/>
    <path class="cls-1" d="M844.07,610.26c.04,1.22-.86,2.2-2.28,2.2-1.26,0-2.16-.98-2.16-2.2s.94-2.24,2.24-2.24,2.2.98,2.2,2.24ZM840.08,635.52v-19.72h3.58v19.72h-3.58Z"/>
    <path class="cls-1" d="M867.45,625.5c0,7.29-5.05,10.47-9.82,10.47-5.34,0-9.45-3.91-9.45-10.14,0-6.6,4.32-10.47,9.78-10.47s9.49,4.11,9.49,10.14ZM851.81,625.7c0,4.32,2.49,7.58,5.99,7.58s5.99-3.22,5.99-7.66c0-3.34-1.67-7.58-5.91-7.58s-6.07,3.91-6.07,7.66Z"/>
    <path class="cls-1" d="M871.96,621.14c0-2.04-.04-3.71-.16-5.34h3.18l.2,3.26h.08c.98-1.88,3.26-3.71,6.52-3.71,2.73,0,6.97,1.63,6.97,8.39v11.77h-3.58v-11.37c0-3.18-1.18-5.82-4.56-5.82-2.36,0-4.2,1.67-4.81,3.67-.16.45-.24,1.06-.24,1.67v11.85h-3.58v-14.38Z"/>
    <path class="cls-1" d="M894.08,631.85c1.06.69,2.93,1.43,4.73,1.43,2.61,0,3.83-1.3,3.83-2.93,0-1.71-1.02-2.65-3.67-3.63-3.54-1.26-5.21-3.22-5.21-5.58,0-3.18,2.57-5.78,6.8-5.78,2,0,3.75.57,4.85,1.22l-.9,2.61c-.77-.49-2.2-1.14-4.03-1.14-2.12,0-3.3,1.22-3.3,2.69,0,1.63,1.18,2.36,3.75,3.34,3.42,1.3,5.17,3.02,5.17,5.95,0,3.46-2.69,5.91-7.37,5.91-2.16,0-4.15-.53-5.54-1.35l.9-2.73Z"/>
    <path class="cls-1" d="M919.16,635.52c.08-1.34.16-3.34.16-5.09v-23.83h3.54v12.38h.08c1.26-2.2,3.54-3.63,6.72-3.63,4.89,0,8.35,4.07,8.31,10.06,0,7.05-4.44,10.55-8.84,10.55-2.85,0-5.13-1.1-6.6-3.71h-.12l-.16,3.26h-3.1ZM922.87,627.61c0,.45.08.9.16,1.3.69,2.49,2.77,4.2,5.38,4.2,3.75,0,5.99-3.05,5.99-7.58,0-3.95-2.04-7.33-5.87-7.33-2.44,0-4.73,1.67-5.46,4.4-.08.41-.2.89-.2,1.46v3.54Z"/>
    <path class="cls-1" d="M944.49,626.31c.08,4.85,3.18,6.84,6.76,6.84,2.57,0,4.11-.45,5.46-1.02l.61,2.57c-1.26.57-3.42,1.22-6.56,1.22-6.07,0-9.7-3.99-9.7-9.94s3.5-10.63,9.25-10.63c6.44,0,8.15,5.66,8.15,9.29,0,.73-.08,1.3-.12,1.67h-13.85ZM955,623.74c.04-2.28-.94-5.83-4.97-5.83-3.63,0-5.21,3.34-5.5,5.83h10.47Z"/>
    <path class="cls-1" d="M979.89,615.8c-.08,1.43-.16,3.01-.16,5.42v11.45c0,4.52-.9,7.29-2.81,9-1.92,1.79-4.69,2.36-7.17,2.36s-4.97-.57-6.56-1.63l.9-2.73c1.3.82,3.34,1.55,5.79,1.55,3.67,0,6.35-1.92,6.35-6.88v-2.2h-.08c-1.1,1.83-3.22,3.3-6.27,3.3-4.89,0-8.39-4.15-8.39-9.61,0-6.68,4.36-10.47,8.88-10.47,3.42,0,5.3,1.79,6.15,3.42h.08l.16-2.97h3.14ZM976.18,623.58c0-.61-.04-1.14-.2-1.63-.65-2.08-2.4-3.79-5.01-3.79-3.42,0-5.87,2.89-5.87,7.45,0,3.87,1.96,7.09,5.83,7.09,2.2,0,4.2-1.39,4.97-3.67.2-.61.29-1.3.29-1.92v-3.54Z"/>
    <path class="cls-1" d="M989.42,610.26c.04,1.22-.86,2.2-2.28,2.2-1.26,0-2.16-.98-2.16-2.2s.94-2.24,2.24-2.24,2.2.98,2.2,2.24ZM985.42,635.52v-19.72h3.58v19.72h-3.58Z"/>
    <path class="cls-1" d="M994.95,621.14c0-2.04-.04-3.71-.16-5.34h3.18l.2,3.26h.08c.98-1.88,3.26-3.71,6.52-3.71,2.73,0,6.97,1.63,6.97,8.39v11.77h-3.58v-11.37c0-3.18-1.18-5.82-4.56-5.82-2.36,0-4.2,1.67-4.81,3.67-.16.45-.25,1.06-.25,1.67v11.85h-3.58v-14.38Z"/>
    <path class="cls-1" d="M1027.61,615.8l2.61,10.02c.57,2.2,1.1,4.24,1.47,6.27h.12c.45-2,1.1-4.12,1.75-6.23l3.22-10.06h3.01l3.06,9.86c.73,2.36,1.3,4.44,1.75,6.44h.12c.33-2,.86-4.07,1.51-6.4l2.81-9.9h3.54l-6.35,19.72h-3.26l-3.01-9.41c-.69-2.2-1.26-4.15-1.75-6.48h-.08c-.49,2.36-1.1,4.4-1.79,6.52l-3.18,9.37h-3.26l-5.95-19.72h3.67Z"/>
    <path class="cls-1" d="M1060.15,610.26c.04,1.22-.86,2.2-2.28,2.2-1.26,0-2.16-.98-2.16-2.2s.94-2.24,2.24-2.24,2.2.98,2.2,2.24ZM1056.16,635.52v-19.72h3.58v19.72h-3.58Z"/>
    <path class="cls-1" d="M1070.01,610.14v5.66h5.13v2.73h-5.13v10.63c0,2.44.69,3.83,2.69,3.83.94,0,1.63-.12,2.08-.24l.16,2.69c-.69.29-1.79.49-3.18.49-1.67,0-3.01-.53-3.87-1.51-1.02-1.06-1.39-2.81-1.39-5.13v-10.75h-3.06v-2.73h3.06v-4.73l3.5-.94Z"/>
    <path class="cls-1" d="M1079.17,606.59h3.58v12.3h.08c.57-1.02,1.47-1.92,2.57-2.53,1.06-.61,2.32-1.02,3.67-1.02,2.65,0,6.88,1.63,6.88,8.43v11.73h-3.58v-11.32c0-3.18-1.18-5.87-4.56-5.87-2.32,0-4.16,1.63-4.81,3.58-.2.49-.25,1.02-.25,1.71v11.89h-3.58v-28.92Z"/>
    <path class="cls-1" d="M1124.46,634.78c-.94.49-3.02,1.14-5.66,1.14-5.95,0-9.82-4.03-9.82-10.06s4.15-10.47,10.59-10.47c2.12,0,3.99.53,4.97,1.02l-.82,2.77c-.86-.49-2.2-.94-4.16-.94-4.52,0-6.96,3.34-6.96,7.45,0,4.56,2.93,7.37,6.84,7.37,2.04,0,3.38-.53,4.4-.98l.61,2.69Z"/>
    <path class="cls-1" d="M1146.25,625.5c0,7.29-5.05,10.47-9.82,10.47-5.34,0-9.45-3.91-9.45-10.14,0-6.6,4.32-10.47,9.78-10.47s9.49,4.11,9.49,10.14ZM1130.61,625.7c0,4.32,2.48,7.58,5.99,7.58s5.99-3.22,5.99-7.66c0-3.34-1.67-7.58-5.91-7.58s-6.07,3.91-6.07,7.66Z"/>
    <path class="cls-1" d="M1150.76,621.14c0-2.04-.04-3.71-.16-5.34h3.18l.2,3.26h.08c.98-1.88,3.26-3.71,6.52-3.71,2.73,0,6.97,1.63,6.97,8.39v11.77h-3.58v-11.37c0-3.18-1.18-5.82-4.56-5.82-2.36,0-4.2,1.67-4.81,3.67-.16.45-.25,1.06-.25,1.67v11.85h-3.58v-14.38Z"/>
    <path class="cls-1" d="M1174.22,615.8l3.87,11.08c.65,1.79,1.18,3.42,1.59,5.05h.12c.45-1.63,1.02-3.26,1.67-5.05l3.83-11.08h3.75l-7.74,19.72h-3.42l-7.49-19.72h3.83Z"/>
    <path class="cls-1" d="M1194.01,626.31c.08,4.85,3.18,6.84,6.76,6.84,2.57,0,4.11-.45,5.46-1.02l.61,2.57c-1.26.57-3.42,1.22-6.56,1.22-6.07,0-9.7-3.99-9.7-9.94s3.5-10.63,9.25-10.63c6.44,0,8.15,5.66,8.15,9.29,0,.73-.08,1.3-.12,1.67h-13.85ZM1204.52,623.74c.04-2.28-.94-5.83-4.97-5.83-3.63,0-5.21,3.34-5.5,5.83h10.47Z"/>
    <path class="cls-1" d="M1212.42,621.95c0-2.32-.04-4.32-.16-6.15h3.14l.12,3.87h.16c.9-2.65,3.06-4.32,5.46-4.32.41,0,.69.04,1.02.12v3.38c-.36-.08-.73-.12-1.22-.12-2.53,0-4.32,1.92-4.81,4.6-.08.49-.16,1.06-.16,1.67v10.51h-3.54v-13.56Z"/>
    <path class="cls-1" d="M1225.25,631.85c1.06.69,2.93,1.43,4.72,1.43,2.61,0,3.83-1.3,3.83-2.93,0-1.71-1.02-2.65-3.67-3.63-3.54-1.26-5.21-3.22-5.21-5.58,0-3.18,2.57-5.78,6.8-5.78,2,0,3.75.57,4.85,1.22l-.89,2.61c-.78-.49-2.2-1.14-4.03-1.14-2.12,0-3.3,1.22-3.3,2.69,0,1.63,1.18,2.36,3.75,3.34,3.42,1.3,5.17,3.02,5.17,5.95,0,3.46-2.69,5.91-7.37,5.91-2.16,0-4.16-.53-5.54-1.35l.9-2.73Z"/>
    <path class="cls-1" d="M1252.78,635.52l-.29-2.48h-.12c-1.1,1.55-3.22,2.93-6.03,2.93-3.99,0-6.03-2.81-6.03-5.66,0-4.77,4.24-7.37,11.86-7.33v-.41c0-1.63-.45-4.56-4.48-4.56-1.83,0-3.75.57-5.13,1.47l-.81-2.36c1.63-1.06,3.99-1.75,6.48-1.75,6.03,0,7.5,4.11,7.5,8.06v7.38c0,1.71.08,3.38.32,4.72h-3.26ZM1252.25,625.45c-3.91-.08-8.35.61-8.35,4.44,0,2.32,1.55,3.42,3.38,3.42,2.57,0,4.2-1.63,4.77-3.3.12-.37.21-.77.21-1.14v-3.42Z"/>
    <path class="cls-1" d="M1265.65,610.14v5.66h5.13v2.73h-5.13v10.63c0,2.44.69,3.83,2.69,3.83.94,0,1.63-.12,2.08-.24l.16,2.69c-.69.29-1.79.49-3.18.49-1.67,0-3.01-.53-3.87-1.51-1.02-1.06-1.39-2.81-1.39-5.13v-10.75h-3.06v-2.73h3.06v-4.73l3.5-.94Z"/>
    <path class="cls-1" d="M1278.8,610.26c.04,1.22-.86,2.2-2.28,2.2-1.26,0-2.16-.98-2.16-2.2s.94-2.24,2.24-2.24,2.2.98,2.2,2.24ZM1274.81,635.52v-19.72h3.58v19.72h-3.58Z"/>
    <path class="cls-1" d="M1302.18,625.5c0,7.29-5.05,10.47-9.82,10.47-5.34,0-9.45-3.91-9.45-10.14,0-6.6,4.32-10.47,9.78-10.47s9.49,4.11,9.49,10.14ZM1286.54,625.7c0,4.32,2.48,7.58,5.99,7.58s5.99-3.22,5.99-7.66c0-3.34-1.67-7.58-5.91-7.58s-6.07,3.91-6.07,7.66Z"/>
    <path class="cls-1" d="M1306.7,621.14c0-2.04-.04-3.71-.16-5.34h3.18l.21,3.26h.08c.98-1.88,3.26-3.71,6.52-3.71,2.73,0,6.97,1.63,6.97,8.39v11.77h-3.58v-11.37c0-3.18-1.18-5.82-4.56-5.82-2.36,0-4.2,1.67-4.81,3.67-.16.45-.25,1.06-.25,1.67v11.85h-3.58v-14.38Z"/>
    <path class="cls-1" d="M1326.98,640.53c.9-2.4,2-6.76,2.44-9.73l3.99-.41c-.94,3.46-2.73,7.99-3.87,9.9l-2.57.25Z"/>
    <path class="cls-1" d="M1346.36,621.14c0-2.04-.04-3.71-.16-5.34h3.18l.2,3.26h.08c.98-1.88,3.26-3.71,6.52-3.71,2.73,0,6.97,1.63,6.97,8.39v11.77h-3.58v-11.37c0-3.18-1.18-5.82-4.56-5.82-2.36,0-4.2,1.67-4.81,3.67-.16.45-.25,1.06-.25,1.67v11.85h-3.58v-14.38Z"/>
    <path class="cls-1" d="M1386.81,625.5c0,7.29-5.05,10.47-9.82,10.47-5.34,0-9.45-3.91-9.45-10.14,0-6.6,4.32-10.47,9.78-10.47s9.49,4.11,9.49,10.14ZM1371.17,625.7c0,4.32,2.48,7.58,5.99,7.58s5.99-3.22,5.99-7.66c0-3.34-1.67-7.58-5.91-7.58s-6.07,3.91-6.07,7.66Z"/>
    <path class="cls-1" d="M1395.64,610.14v5.66h5.13v2.73h-5.13v10.63c0,2.44.69,3.83,2.69,3.83.94,0,1.63-.12,2.08-.24l.16,2.69c-.69.29-1.79.49-3.18.49-1.67,0-3.01-.53-3.87-1.51-1.02-1.06-1.39-2.81-1.39-5.13v-10.75h-3.06v-2.73h3.06v-4.73l3.5-.94Z"/>
    <path class="cls-1" d="M1415.43,626.31c.08,4.85,3.18,6.84,6.76,6.84,2.57,0,4.11-.45,5.46-1.02l.61,2.57c-1.26.57-3.42,1.22-6.56,1.22-6.07,0-9.7-3.99-9.7-9.94s3.5-10.63,9.25-10.63c6.44,0,8.15,5.66,8.15,9.29,0,.73-.08,1.3-.12,1.67h-13.85ZM1425.94,623.74c.04-2.28-.94-5.83-4.97-5.83-3.63,0-5.21,3.34-5.5,5.83h10.47Z"/>
    <path class="cls-1" d="M1433.84,621.14c0-2.04-.04-3.71-.16-5.34h3.18l.21,3.26h.08c.98-1.88,3.26-3.71,6.52-3.71,2.73,0,6.97,1.63,6.97,8.39v11.77h-3.58v-11.37c0-3.18-1.18-5.82-4.56-5.82-2.36,0-4.2,1.67-4.81,3.67-.16.45-.25,1.06-.25,1.67v11.85h-3.58v-14.38Z"/>
    <path class="cls-1" d="M1473.47,606.59v23.83c0,1.75.04,3.75.16,5.09h-3.22l-.16-3.42h-.08c-1.1,2.2-3.5,3.87-6.72,3.87-4.77,0-8.43-4.03-8.43-10.02-.04-6.56,4.03-10.59,8.84-10.59,3.01,0,5.05,1.43,5.95,3.01h.08v-11.77h3.59ZM1469.88,623.83c0-.45-.04-1.06-.16-1.51-.53-2.28-2.49-4.16-5.17-4.16-3.71,0-5.91,3.26-5.91,7.62,0,3.99,1.96,7.29,5.82,7.29,2.4,0,4.6-1.59,5.26-4.28.12-.49.16-.98.16-1.55v-3.42Z"/>
    <path class="cls-1" d="M1479.41,606.59h3.58v28.92h-3.58v-28.92Z"/>
    <path class="cls-1" d="M1491.02,626.31c.08,4.85,3.18,6.84,6.76,6.84,2.57,0,4.11-.45,5.46-1.02l.61,2.57c-1.26.57-3.42,1.22-6.56,1.22-6.07,0-9.7-3.99-9.7-9.94s3.5-10.63,9.25-10.63c6.44,0,8.15,5.66,8.15,9.29,0,.73-.08,1.3-.12,1.67h-13.85ZM1501.53,623.74c.04-2.28-.94-5.83-4.97-5.83-3.63,0-5.21,3.34-5.5,5.83h10.47Z"/>
    <path class="cls-1" d="M1508.93,631.85c1.06.69,2.93,1.43,4.72,1.43,2.61,0,3.83-1.3,3.83-2.93,0-1.71-1.02-2.65-3.67-3.63-3.54-1.26-5.21-3.22-5.21-5.58,0-3.18,2.57-5.78,6.8-5.78,2,0,3.75.57,4.85,1.22l-.89,2.61c-.78-.49-2.2-1.14-4.03-1.14-2.12,0-3.3,1.22-3.3,2.69,0,1.63,1.18,2.36,3.75,3.34,3.42,1.3,5.17,3.02,5.17,5.95,0,3.46-2.69,5.91-7.37,5.91-2.16,0-4.16-.53-5.54-1.35l.9-2.73Z"/>
    <path class="cls-1" d="M1525.06,631.85c1.06.69,2.93,1.43,4.72,1.43,2.61,0,3.83-1.3,3.83-2.93,0-1.71-1.02-2.65-3.67-3.63-3.54-1.26-5.21-3.22-5.21-5.58,0-3.18,2.57-5.78,6.8-5.78,2,0,3.75.57,4.85,1.22l-.89,2.61c-.78-.49-2.2-1.14-4.03-1.14-2.12,0-3.3,1.22-3.3,2.69,0,1.63,1.18,2.36,3.75,3.34,3.42,1.3,5.17,3.02,5.17,5.95,0,3.46-2.69,5.91-7.37,5.91-2.16,0-4.16-.53-5.54-1.35l.9-2.73Z"/>
    <path class="cls-1" d="M1549.82,631.85c1.06.69,2.93,1.43,4.72,1.43,2.61,0,3.83-1.3,3.83-2.93,0-1.71-1.02-2.65-3.67-3.63-3.54-1.26-5.21-3.22-5.21-5.58,0-3.18,2.57-5.78,6.8-5.78,2,0,3.75.57,4.85,1.22l-.89,2.61c-.78-.49-2.2-1.14-4.03-1.14-2.12,0-3.3,1.22-3.3,2.69,0,1.63,1.18,2.36,3.75,3.34,3.42,1.3,5.17,3.02,5.17,5.95,0,3.46-2.69,5.91-7.37,5.91-2.16,0-4.16-.53-5.54-1.35l.9-2.73Z"/>
    <path class="cls-1" d="M1567.86,615.8l2.61,10.02c.57,2.2,1.1,4.24,1.47,6.27h.12c.45-2,1.1-4.12,1.75-6.23l3.22-10.06h3.01l3.06,9.86c.73,2.36,1.3,4.44,1.75,6.44h.12c.32-2,.86-4.07,1.51-6.4l2.81-9.9h3.54l-6.35,19.72h-3.26l-3.01-9.41c-.69-2.2-1.26-4.15-1.75-6.48h-.08c-.49,2.36-1.1,4.4-1.79,6.52l-3.18,9.37h-3.26l-5.95-19.72h3.67Z"/>
    <path class="cls-1" d="M1600.4,610.26c.04,1.22-.86,2.2-2.28,2.2-1.26,0-2.16-.98-2.16-2.2s.94-2.24,2.24-2.24,2.2.98,2.2,2.24ZM1596.41,635.52v-19.72h3.58v19.72h-3.58Z"/>
    <path class="cls-1" d="M1605.94,622.24c0-2.53-.08-4.56-.16-6.44h3.22l.16,3.38h.08c1.47-2.4,3.79-3.83,7.01-3.83,4.77,0,8.35,4.03,8.35,10.02,0,7.09-4.32,10.59-8.96,10.59-2.61,0-4.89-1.14-6.07-3.1h-.08v10.71h-3.54v-21.35ZM1609.48,627.49c0,.53.08,1.02.16,1.47.65,2.49,2.81,4.2,5.38,4.2,3.79,0,5.99-3.1,5.99-7.62,0-3.95-2.08-7.33-5.87-7.33-2.44,0-4.73,1.75-5.42,4.44-.12.45-.25.98-.25,1.47v3.38Z"/>
    <path class="cls-1" d="M1633.11,610.26c.04,1.22-.86,2.2-2.28,2.2-1.26,0-2.16-.98-2.16-2.2s.94-2.24,2.24-2.24,2.2.98,2.2,2.24ZM1629.11,635.52v-19.72h3.58v19.72h-3.58Z"/>
    <path class="cls-1" d="M1638.64,621.14c0-2.04-.04-3.71-.16-5.34h3.18l.2,3.26h.08c.98-1.88,3.26-3.71,6.52-3.71,2.73,0,6.97,1.63,6.97,8.39v11.77h-3.58v-11.37c0-3.18-1.18-5.82-4.56-5.82-2.36,0-4.2,1.67-4.81,3.67-.16.45-.25,1.06-.25,1.67v11.85h-3.58v-14.38Z"/>
    <path class="cls-1" d="M1678.23,615.8c-.08,1.43-.16,3.01-.16,5.42v11.45c0,4.52-.9,7.29-2.81,9-1.91,1.79-4.68,2.36-7.17,2.36s-4.97-.57-6.56-1.63l.9-2.73c1.3.82,3.34,1.55,5.78,1.55,3.67,0,6.35-1.92,6.35-6.88v-2.2h-.08c-1.1,1.83-3.22,3.3-6.27,3.3-4.89,0-8.39-4.15-8.39-9.61,0-6.68,4.36-10.47,8.88-10.47,3.42,0,5.3,1.79,6.15,3.42h.08l.16-2.97h3.14ZM1674.52,623.58c0-.61-.04-1.14-.21-1.63-.65-2.08-2.4-3.79-5.01-3.79-3.42,0-5.87,2.89-5.87,7.45,0,3.87,1.96,7.09,5.82,7.09,2.2,0,4.2-1.39,4.97-3.67.21-.61.29-1.3.29-1.92v-3.54Z"/>
    <path class="cls-1" d="M1682.54,633.4c0-1.51,1.02-2.57,2.44-2.57s2.4,1.06,2.4,2.57-.94,2.57-2.44,2.57c-1.43,0-2.4-1.1-2.4-2.57Z"/>
    <path class="cls-1" d="M366.05,684.39l-6.97-27.46h3.75l3.26,13.89c.81,3.42,1.55,6.84,2.04,9.49h.08c.45-2.73,1.3-5.99,2.24-9.53l3.67-13.85h3.71l3.34,13.93c.77,3.26,1.51,6.52,1.91,9.41h.08c.57-3.02,1.34-6.07,2.2-9.49l3.62-13.85h3.63l-7.78,27.46h-3.71l-3.46-14.3c-.86-3.5-1.43-6.19-1.79-8.96h-.08c-.49,2.73-1.1,5.42-2.12,8.96l-3.91,14.3h-3.71Z"/>
    <path class="cls-1" d="M396.55,675.18c.08,4.85,3.18,6.84,6.76,6.84,2.57,0,4.11-.45,5.46-1.02l.61,2.57c-1.26.57-3.42,1.22-6.56,1.22-6.07,0-9.7-3.99-9.7-9.94s3.5-10.63,9.25-10.63c6.44,0,8.15,5.66,8.15,9.29,0,.73-.08,1.3-.12,1.67h-13.85ZM407.06,672.61c.04-2.28-.94-5.82-4.97-5.82-3.63,0-5.21,3.34-5.5,5.82h10.47Z"/>
    <path class="cls-1" d="M437.64,683.65c-.94.49-3.01,1.14-5.66,1.14-5.95,0-9.82-4.03-9.82-10.06s4.15-10.47,10.59-10.47c2.12,0,3.99.53,4.97,1.02l-.82,2.77c-.86-.49-2.2-.94-4.15-.94-4.52,0-6.97,3.34-6.97,7.45,0,4.56,2.93,7.38,6.84,7.38,2.04,0,3.38-.53,4.4-.98l.61,2.69Z"/>
    <path class="cls-1" d="M441.83,670.82c0-2.32-.04-4.32-.16-6.15h3.14l.12,3.87h.16c.9-2.65,3.05-4.32,5.46-4.32.41,0,.69.04,1.02.12v3.38c-.37-.08-.73-.12-1.22-.12-2.53,0-4.32,1.91-4.81,4.6-.08.49-.16,1.06-.16,1.67v10.51h-3.54v-13.57Z"/>
    <path class="cls-1" d="M456.74,675.18c.08,4.85,3.18,6.84,6.76,6.84,2.57,0,4.11-.45,5.46-1.02l.61,2.57c-1.26.57-3.42,1.22-6.56,1.22-6.07,0-9.7-3.99-9.7-9.94s3.5-10.63,9.25-10.63c6.44,0,8.15,5.66,8.15,9.29,0,.73-.08,1.3-.12,1.67h-13.85ZM467.25,672.61c.04-2.28-.94-5.82-4.97-5.82-3.63,0-5.21,3.34-5.5,5.82h10.47Z"/>
    <path class="cls-1" d="M486.06,684.39l-.29-2.49h-.12c-1.1,1.55-3.22,2.93-6.03,2.93-3.99,0-6.03-2.81-6.03-5.66,0-4.77,4.24-7.37,11.85-7.33v-.41c0-1.63-.45-4.56-4.48-4.56-1.83,0-3.75.57-5.13,1.46l-.82-2.36c1.63-1.06,3.99-1.75,6.48-1.75,6.03,0,7.5,4.11,7.5,8.07v7.37c0,1.71.08,3.38.33,4.73h-3.26ZM485.54,674.33c-3.91-.08-8.35.61-8.35,4.44,0,2.32,1.55,3.42,3.38,3.42,2.57,0,4.2-1.63,4.77-3.3.12-.37.2-.78.2-1.14v-3.42Z"/>
    <path class="cls-1" d="M498.93,659.01v5.66h5.13v2.73h-5.13v10.63c0,2.44.69,3.83,2.69,3.83.94,0,1.63-.12,2.08-.25l.16,2.69c-.69.29-1.79.49-3.18.49-1.67,0-3.01-.53-3.87-1.51-1.02-1.06-1.39-2.81-1.39-5.13v-10.76h-3.05v-2.73h3.05v-4.73l3.5-.94Z"/>
    <path class="cls-1" d="M509.85,675.18c.08,4.85,3.18,6.84,6.76,6.84,2.57,0,4.11-.45,5.46-1.02l.61,2.57c-1.26.57-3.42,1.22-6.56,1.22-6.07,0-9.7-3.99-9.7-9.94s3.5-10.63,9.25-10.63c6.44,0,8.15,5.66,8.15,9.29,0,.73-.08,1.3-.12,1.67h-13.85ZM520.36,672.61c.04-2.28-.94-5.82-4.97-5.82-3.63,0-5.21,3.34-5.5,5.82h10.47Z"/>
    <path class="cls-1" d="M541.2,659.01v5.66h5.13v2.73h-5.13v10.63c0,2.44.69,3.83,2.69,3.83.94,0,1.63-.12,2.08-.25l.16,2.69c-.69.29-1.79.49-3.18.49-1.67,0-3.01-.53-3.87-1.51-1.02-1.06-1.39-2.81-1.39-5.13v-10.76h-3.05v-2.73h3.05v-4.73l3.5-.94Z"/>
    <path class="cls-1" d="M550.37,655.46h3.58v12.3h.08c.57-1.02,1.47-1.91,2.57-2.53,1.06-.61,2.32-1.02,3.67-1.02,2.65,0,6.88,1.63,6.88,8.43v11.73h-3.58v-11.33c0-3.18-1.18-5.87-4.56-5.87-2.32,0-4.15,1.63-4.81,3.59-.2.49-.24,1.02-.24,1.71v11.9h-3.58v-28.92Z"/>
    <path class="cls-1" d="M590.81,674.37c0,7.29-5.05,10.47-9.82,10.47-5.34,0-9.45-3.91-9.45-10.14,0-6.6,4.32-10.47,9.78-10.47s9.49,4.11,9.49,10.14ZM575.17,674.57c0,4.32,2.49,7.58,5.99,7.58s5.99-3.22,5.99-7.66c0-3.34-1.67-7.58-5.91-7.58s-6.07,3.91-6.07,7.66Z"/>
    <path class="cls-1" d="M611.82,679.01c0,2.04.04,3.83.16,5.38h-3.18l-.2-3.22h-.08c-.94,1.59-3.01,3.67-6.52,3.67-3.1,0-6.8-1.71-6.8-8.64v-11.53h3.58v10.92c0,3.75,1.14,6.27,4.4,6.27,2.4,0,4.07-1.67,4.72-3.26.2-.53.33-1.18.33-1.83v-12.1h3.58v14.34Z"/>
    <path class="cls-1" d="M634.75,664.67c-.08,1.43-.16,3.01-.16,5.42v11.45c0,4.52-.9,7.29-2.81,9-1.91,1.79-4.69,2.36-7.17,2.36s-4.97-.57-6.56-1.63l.9-2.73c1.3.82,3.34,1.55,5.78,1.55,3.67,0,6.36-1.92,6.36-6.88v-2.2h-.08c-1.1,1.83-3.22,3.3-6.27,3.3-4.89,0-8.39-4.16-8.39-9.61,0-6.68,4.36-10.47,8.88-10.47,3.42,0,5.3,1.79,6.15,3.42h.08l.16-2.97h3.14ZM631.04,672.45c0-.61-.04-1.14-.2-1.63-.65-2.08-2.4-3.79-5.01-3.79-3.42,0-5.87,2.89-5.87,7.45,0,3.87,1.96,7.09,5.83,7.09,2.2,0,4.2-1.39,4.97-3.67.2-.61.29-1.3.29-1.91v-3.54Z"/>
    <path class="cls-1" d="M640.53,655.46h3.58v12.3h.08c.57-1.02,1.47-1.91,2.57-2.53,1.06-.61,2.32-1.02,3.67-1.02,2.65,0,6.88,1.63,6.88,8.43v11.73h-3.58v-11.33c0-3.18-1.18-5.87-4.56-5.87-2.32,0-4.15,1.63-4.81,3.59-.2.49-.24,1.02-.24,1.71v11.9h-3.58v-28.92Z"/>
    <path class="cls-1" d="M667.29,659.01v5.66h5.13v2.73h-5.13v10.63c0,2.44.69,3.83,2.69,3.83.94,0,1.63-.12,2.08-.25l.16,2.69c-.69.29-1.79.49-3.18.49-1.67,0-3.01-.53-3.87-1.51-1.02-1.06-1.39-2.81-1.39-5.13v-10.76h-3.05v-2.73h3.05v-4.73l3.5-.94Z"/>
    <path class="cls-1" d="M676.82,684.39v-16.99h-2.77v-2.73h2.77v-.94c0-2.77.61-5.3,2.28-6.88,1.34-1.3,3.14-1.83,4.81-1.83,1.26,0,2.36.29,3.06.57l-.49,2.77c-.53-.24-1.26-.45-2.28-.45-3.06,0-3.83,2.69-3.83,5.7v1.06h4.77v2.73h-4.77v16.99h-3.54Z"/>
    <path class="cls-1" d="M704.84,679.01c0,2.04.04,3.83.16,5.38h-3.18l-.2-3.22h-.08c-.94,1.59-3.01,3.67-6.52,3.67-3.1,0-6.8-1.71-6.8-8.64v-11.53h3.58v10.92c0,3.75,1.14,6.27,4.4,6.27,2.4,0,4.07-1.67,4.72-3.26.2-.53.33-1.18.33-1.83v-12.1h3.58v14.34Z"/>
    <path class="cls-1" d="M710.78,655.46h3.58v28.92h-3.58v-28.92Z"/>
    <path class="cls-1" d="M733.02,659.13c.04,1.22-.86,2.2-2.28,2.2-1.26,0-2.16-.98-2.16-2.2s.94-2.24,2.24-2.24,2.2.98,2.2,2.24ZM729.02,684.39v-19.72h3.58v19.72h-3.58Z"/>
    <path class="cls-1" d="M738.55,670.01c0-2.04-.04-3.71-.16-5.34h3.18l.2,3.26h.08c.98-1.87,3.26-3.71,6.52-3.71,2.73,0,6.97,1.63,6.97,8.39v11.77h-3.58v-11.37c0-3.18-1.18-5.83-4.56-5.83-2.36,0-4.2,1.67-4.81,3.67-.16.45-.24,1.06-.24,1.67v11.86h-3.58v-14.38Z"/>
    <path class="cls-1" d="M765.31,659.01v5.66h5.13v2.73h-5.13v10.63c0,2.44.69,3.83,2.69,3.83.94,0,1.63-.12,2.08-.25l.16,2.69c-.69.29-1.79.49-3.18.49-1.67,0-3.01-.53-3.87-1.51-1.02-1.06-1.39-2.81-1.39-5.13v-10.76h-3.05v-2.73h3.05v-4.73l3.5-.94Z"/>
    <path class="cls-1" d="M774.47,670.82c0-2.32-.04-4.32-.16-6.15h3.14l.12,3.87h.16c.9-2.65,3.06-4.32,5.46-4.32.41,0,.69.04,1.02.12v3.38c-.37-.08-.73-.12-1.22-.12-2.53,0-4.32,1.91-4.81,4.6-.08.49-.16,1.06-.16,1.67v10.51h-3.54v-13.57Z"/>
    <path class="cls-1" d="M805.22,674.37c0,7.29-5.05,10.47-9.82,10.47-5.34,0-9.45-3.91-9.45-10.14,0-6.6,4.32-10.47,9.78-10.47s9.49,4.11,9.49,10.14ZM789.58,674.57c0,4.32,2.48,7.58,5.99,7.58s5.99-3.22,5.99-7.66c0-3.34-1.67-7.58-5.91-7.58s-6.07,3.91-6.07,7.66Z"/>
    <path class="cls-1" d="M826.77,655.46v23.83c0,1.75.04,3.75.16,5.09h-3.22l-.16-3.42h-.08c-1.1,2.2-3.5,3.87-6.72,3.87-4.77,0-8.43-4.03-8.43-10.02-.04-6.56,4.03-10.59,8.84-10.59,3.01,0,5.05,1.43,5.95,3.02h.08v-11.77h3.58ZM823.18,672.69c0-.45-.04-1.06-.16-1.51-.53-2.28-2.48-4.16-5.17-4.16-3.71,0-5.91,3.26-5.91,7.62,0,3.99,1.96,7.29,5.83,7.29,2.4,0,4.6-1.59,5.26-4.28.12-.49.16-.98.16-1.55v-3.42Z"/>
    <path class="cls-1" d="M849.21,679.01c0,2.04.04,3.83.16,5.38h-3.18l-.2-3.22h-.08c-.94,1.59-3.01,3.67-6.52,3.67-3.1,0-6.8-1.71-6.8-8.64v-11.53h3.58v10.92c0,3.75,1.14,6.27,4.4,6.27,2.4,0,4.07-1.67,4.72-3.26.2-.53.33-1.18.33-1.83v-12.1h3.58v14.34Z"/>
    <path class="cls-1" d="M869.2,683.65c-.94.49-3.01,1.14-5.66,1.14-5.95,0-9.82-4.03-9.82-10.06s4.16-10.47,10.59-10.47c2.12,0,3.99.53,4.97,1.02l-.81,2.77c-.86-.49-2.2-.94-4.15-.94-4.52,0-6.97,3.34-6.97,7.45,0,4.56,2.93,7.38,6.84,7.38,2.04,0,3.38-.53,4.4-.98l.61,2.69Z"/>
    <path class="cls-1" d="M878.24,659.01v5.66h5.13v2.73h-5.13v10.63c0,2.44.69,3.83,2.69,3.83.94,0,1.63-.12,2.08-.25l.16,2.69c-.69.29-1.79.49-3.18.49-1.67,0-3.01-.53-3.87-1.51-1.02-1.06-1.39-2.81-1.39-5.13v-10.76h-3.05v-2.73h3.05v-4.73l3.5-.94Z"/>
    <path class="cls-1" d="M891.39,659.13c.04,1.22-.86,2.2-2.28,2.2-1.26,0-2.16-.98-2.16-2.2s.94-2.24,2.24-2.24,2.2.98,2.2,2.24ZM887.4,684.39v-19.72h3.58v19.72h-3.58Z"/>
    <path class="cls-1" d="M914.77,674.37c0,7.29-5.05,10.47-9.82,10.47-5.34,0-9.45-3.91-9.45-10.14,0-6.6,4.32-10.47,9.78-10.47s9.49,4.11,9.49,10.14ZM899.13,674.57c0,4.32,2.48,7.58,5.99,7.58s5.99-3.22,5.99-7.66c0-3.34-1.67-7.58-5.91-7.58s-6.07,3.91-6.07,7.66Z"/>
    <path class="cls-1" d="M919.29,670.01c0-2.04-.04-3.71-.16-5.34h3.18l.2,3.26h.08c.98-1.87,3.26-3.71,6.52-3.71,2.73,0,6.97,1.63,6.97,8.39v11.77h-3.58v-11.37c0-3.18-1.18-5.83-4.56-5.83-2.36,0-4.2,1.67-4.81,3.67-.16.45-.24,1.06-.24,1.67v11.86h-3.58v-14.38Z"/>
    <path class="cls-1" d="M941.4,680.72c1.06.69,2.93,1.43,4.73,1.43,2.61,0,3.83-1.3,3.83-2.93s-1.02-2.65-3.67-3.63c-3.54-1.26-5.21-3.22-5.21-5.58,0-3.18,2.57-5.78,6.8-5.78,2,0,3.75.57,4.85,1.22l-.9,2.61c-.77-.49-2.2-1.14-4.03-1.14-2.12,0-3.3,1.22-3.3,2.69,0,1.63,1.18,2.36,3.75,3.34,3.42,1.3,5.17,3.01,5.17,5.95,0,3.46-2.69,5.91-7.37,5.91-2.16,0-4.15-.53-5.54-1.34l.9-2.73Z"/>
    <path class="cls-1" d="M970.97,659.01v5.66h5.13v2.73h-5.13v10.63c0,2.44.69,3.83,2.69,3.83.94,0,1.63-.12,2.08-.25l.16,2.69c-.69.29-1.79.49-3.18.49-1.67,0-3.01-.53-3.87-1.51-1.02-1.06-1.39-2.81-1.39-5.13v-10.76h-3.05v-2.73h3.05v-4.73l3.5-.94Z"/>
    <path class="cls-1" d="M980.13,655.46h3.58v12.3h.08c.57-1.02,1.47-1.91,2.57-2.53,1.06-.61,2.32-1.02,3.67-1.02,2.65,0,6.88,1.63,6.88,8.43v11.73h-3.58v-11.33c0-3.18-1.18-5.87-4.56-5.87-2.32,0-4.16,1.63-4.81,3.59-.2.49-.25,1.02-.25,1.71v11.9h-3.58v-28.92Z"/>
    <path class="cls-1" d="M1002.73,670.82c0-2.32-.04-4.32-.16-6.15h3.14l.12,3.87h.16c.9-2.65,3.06-4.32,5.46-4.32.41,0,.69.04,1.02.12v3.38c-.36-.08-.73-.12-1.22-.12-2.53,0-4.32,1.91-4.81,4.6-.08.49-.16,1.06-.16,1.67v10.51h-3.54v-13.57Z"/>
    <path class="cls-1" d="M1033.49,674.37c0,7.29-5.05,10.47-9.82,10.47-5.34,0-9.45-3.91-9.45-10.14,0-6.6,4.32-10.47,9.78-10.47s9.49,4.11,9.49,10.14ZM1017.84,674.57c0,4.32,2.48,7.58,5.99,7.58s5.99-3.22,5.99-7.66c0-3.34-1.67-7.58-5.91-7.58s-6.07,3.91-6.07,7.66Z"/>
    <path class="cls-1" d="M1054.5,679.01c0,2.04.04,3.83.16,5.38h-3.18l-.2-3.22h-.08c-.94,1.59-3.02,3.67-6.52,3.67-3.1,0-6.8-1.71-6.8-8.64v-11.53h3.58v10.92c0,3.75,1.14,6.27,4.4,6.27,2.4,0,4.07-1.67,4.73-3.26.2-.53.33-1.18.33-1.83v-12.1h3.58v14.34Z"/>
    <path class="cls-1" d="M1077.43,664.67c-.08,1.43-.16,3.01-.16,5.42v11.45c0,4.52-.9,7.29-2.81,9-1.91,1.79-4.68,2.36-7.17,2.36s-4.97-.57-6.56-1.63l.9-2.73c1.3.82,3.34,1.55,5.78,1.55,3.67,0,6.35-1.92,6.35-6.88v-2.2h-.08c-1.1,1.83-3.22,3.3-6.27,3.3-4.89,0-8.39-4.16-8.39-9.61,0-6.68,4.36-10.47,8.88-10.47,3.42,0,5.3,1.79,6.15,3.42h.08l.16-2.97h3.14ZM1073.72,672.45c0-.61-.04-1.14-.21-1.63-.65-2.08-2.4-3.79-5.01-3.79-3.42,0-5.87,2.89-5.87,7.45,0,3.87,1.96,7.09,5.82,7.09,2.2,0,4.2-1.39,4.97-3.67.2-.61.29-1.3.29-1.91v-3.54Z"/>
    <path class="cls-1" d="M1083.2,655.46h3.58v12.3h.08c.57-1.02,1.47-1.91,2.57-2.53,1.06-.61,2.32-1.02,3.67-1.02,2.65,0,6.88,1.63,6.88,8.43v11.73h-3.58v-11.33c0-3.18-1.18-5.87-4.56-5.87-2.32,0-4.16,1.63-4.81,3.59-.2.49-.25,1.02-.25,1.71v11.9h-3.58v-28.92Z"/>
    <path class="cls-1" d="M1114.44,670.82c0-2.32-.04-4.32-.16-6.15h3.14l.12,3.87h.16c.9-2.65,3.06-4.32,5.46-4.32.41,0,.69.04,1.02.12v3.38c-.36-.08-.73-.12-1.22-.12-2.53,0-4.32,1.91-4.81,4.6-.08.49-.16,1.06-.16,1.67v10.51h-3.54v-13.57Z"/>
    <path class="cls-1" d="M1129.35,675.18c.08,4.85,3.18,6.84,6.76,6.84,2.57,0,4.11-.45,5.46-1.02l.61,2.57c-1.26.57-3.42,1.22-6.56,1.22-6.07,0-9.7-3.99-9.7-9.94s3.5-10.63,9.25-10.63c6.44,0,8.15,5.66,8.15,9.29,0,.73-.08,1.3-.12,1.67h-13.85ZM1139.86,672.61c.04-2.28-.94-5.82-4.97-5.82-3.63,0-5.21,3.34-5.5,5.82h10.47Z"/>
    <path class="cls-1" d="M1158.67,684.39l-.29-2.49h-.12c-1.1,1.55-3.22,2.93-6.03,2.93-3.99,0-6.03-2.81-6.03-5.66,0-4.77,4.24-7.37,11.86-7.33v-.41c0-1.63-.45-4.56-4.48-4.56-1.83,0-3.75.57-5.13,1.46l-.81-2.36c1.63-1.06,3.99-1.75,6.48-1.75,6.03,0,7.5,4.11,7.5,8.07v7.37c0,1.71.08,3.38.32,4.73h-3.26ZM1158.14,674.33c-3.91-.08-8.35.61-8.35,4.44,0,2.32,1.55,3.42,3.38,3.42,2.57,0,4.2-1.63,4.77-3.3.12-.37.2-.78.2-1.14v-3.42Z"/>
    <path class="cls-1" d="M1167.38,655.46h3.58v28.92h-3.58v-28.92Z"/>
    <path class="cls-1" d="M1185.63,670.01c0-2.04-.04-3.71-.16-5.34h3.14l.16,3.18h.12c1.1-1.87,2.93-3.63,6.19-3.63,2.69,0,4.73,1.63,5.58,3.95h.08c.61-1.1,1.39-1.96,2.2-2.57,1.18-.9,2.49-1.39,4.36-1.39,2.61,0,6.48,1.71,6.48,8.56v11.61h-3.5v-11.16c0-3.79-1.39-6.07-4.28-6.07-2.04,0-3.63,1.51-4.24,3.26-.16.49-.29,1.14-.29,1.79v12.18h-3.5v-11.81c0-3.14-1.39-5.42-4.12-5.42-2.24,0-3.87,1.79-4.44,3.58-.21.53-.29,1.14-.29,1.75v11.9h-3.5v-14.38Z"/>
    <path class="cls-1" d="M1230.51,684.39l-.29-2.49h-.12c-1.1,1.55-3.22,2.93-6.03,2.93-3.99,0-6.03-2.81-6.03-5.66,0-4.77,4.24-7.37,11.86-7.33v-.41c0-1.63-.45-4.56-4.48-4.56-1.83,0-3.75.57-5.13,1.46l-.81-2.36c1.63-1.06,3.99-1.75,6.48-1.75,6.03,0,7.5,4.11,7.5,8.07v7.37c0,1.71.08,3.38.32,4.73h-3.26ZM1229.98,674.33c-3.91-.08-8.35.61-8.35,4.44,0,2.32,1.55,3.42,3.38,3.42,2.57,0,4.2-1.63,4.77-3.3.12-.37.2-.78.2-1.14v-3.42Z"/>
    <path class="cls-1" d="M1243.37,659.01v5.66h5.13v2.73h-5.13v10.63c0,2.44.69,3.83,2.69,3.83.94,0,1.63-.12,2.08-.25l.16,2.69c-.69.29-1.79.49-3.18.49-1.67,0-3.01-.53-3.87-1.51-1.02-1.06-1.39-2.81-1.39-5.13v-10.76h-3.06v-2.73h3.06v-4.73l3.5-.94Z"/>
    <path class="cls-1" d="M1266.35,683.65c-.94.49-3.02,1.14-5.66,1.14-5.95,0-9.82-4.03-9.82-10.06s4.15-10.47,10.59-10.47c2.12,0,3.99.53,4.97,1.02l-.82,2.77c-.86-.49-2.2-.94-4.16-.94-4.52,0-6.96,3.34-6.96,7.45,0,4.56,2.93,7.38,6.84,7.38,2.04,0,3.38-.53,4.4-.98l.61,2.69Z"/>
    <path class="cls-1" d="M1270.54,655.46h3.58v12.3h.08c.57-1.02,1.47-1.91,2.57-2.53,1.06-.61,2.32-1.02,3.67-1.02,2.65,0,6.88,1.63,6.88,8.43v11.73h-3.58v-11.33c0-3.18-1.18-5.87-4.56-5.87-2.32,0-4.16,1.63-4.81,3.59-.2.49-.25,1.02-.25,1.71v11.9h-3.58v-28.92Z"/>
    <path class="cls-1" d="M1293.14,670.01c0-2.04-.04-3.71-.16-5.34h3.14l.16,3.18h.12c1.1-1.87,2.93-3.63,6.19-3.63,2.69,0,4.73,1.63,5.58,3.95h.08c.61-1.1,1.39-1.96,2.2-2.57,1.18-.9,2.49-1.39,4.36-1.39,2.61,0,6.48,1.71,6.48,8.56v11.61h-3.5v-11.16c0-3.79-1.39-6.07-4.28-6.07-2.04,0-3.63,1.51-4.24,3.26-.16.49-.29,1.14-.29,1.79v12.18h-3.5v-11.81c0-3.14-1.39-5.42-4.12-5.42-2.24,0-3.87,1.79-4.44,3.58-.21.53-.29,1.14-.29,1.75v11.9h-3.5v-14.38Z"/>
    <path class="cls-1" d="M1338.02,684.39l-.29-2.49h-.12c-1.1,1.55-3.22,2.93-6.03,2.93-3.99,0-6.03-2.81-6.03-5.66,0-4.77,4.24-7.37,11.86-7.33v-.41c0-1.63-.45-4.56-4.48-4.56-1.83,0-3.75.57-5.13,1.46l-.81-2.36c1.63-1.06,3.99-1.75,6.48-1.75,6.03,0,7.5,4.11,7.5,8.07v7.37c0,1.71.08,3.38.32,4.73h-3.26ZM1337.49,674.33c-3.91-.08-8.35.61-8.35,4.44,0,2.32,1.55,3.42,3.38,3.42,2.57,0,4.2-1.63,4.77-3.3.12-.37.2-.78.2-1.14v-3.42Z"/>
    <path class="cls-1" d="M1350.28,673.71h.08c.49-.69,1.18-1.55,1.75-2.24l5.78-6.8h4.32l-7.62,8.11,8.68,11.61h-4.36l-6.8-9.45-1.83,2.04v7.41h-3.54v-28.92h3.54v18.25Z"/>
    <path class="cls-1" d="M1367.83,675.18c.08,4.85,3.18,6.84,6.76,6.84,2.57,0,4.11-.45,5.46-1.02l.61,2.57c-1.26.57-3.42,1.22-6.56,1.22-6.07,0-9.7-3.99-9.7-9.94s3.5-10.63,9.25-10.63c6.44,0,8.15,5.66,8.15,9.29,0,.73-.08,1.3-.12,1.67h-13.85ZM1378.34,672.61c.04-2.28-.94-5.82-4.97-5.82-3.63,0-5.21,3.34-5.5,5.82h10.47Z"/>
    <path class="cls-1" d="M1386.24,670.82c0-2.32-.04-4.32-.16-6.15h3.14l.12,3.87h.16c.9-2.65,3.06-4.32,5.46-4.32.41,0,.69.04,1.02.12v3.38c-.36-.08-.73-.12-1.22-.12-2.53,0-4.32,1.91-4.81,4.6-.08.49-.16,1.06-.16,1.67v10.51h-3.54v-13.57Z"/>
    <path class="cls-1" d="M1399.06,680.72c1.06.69,2.93,1.43,4.72,1.43,2.61,0,3.83-1.3,3.83-2.93s-1.02-2.65-3.67-3.63c-3.54-1.26-5.21-3.22-5.21-5.58,0-3.18,2.57-5.78,6.8-5.78,2,0,3.75.57,4.85,1.22l-.89,2.61c-.78-.49-2.2-1.14-4.03-1.14-2.12,0-3.3,1.22-3.3,2.69,0,1.63,1.18,2.36,3.75,3.34,3.42,1.3,5.17,3.01,5.17,5.95,0,3.46-2.69,5.91-7.37,5.91-2.16,0-4.16-.53-5.54-1.34l.9-2.73Z"/>
    <path class="cls-1" d="M1412.91,689.4c.9-2.4,2-6.76,2.44-9.74l3.99-.41c-.94,3.46-2.73,7.98-3.87,9.9l-2.57.25Z"/>
    <path class="cls-1" d="M378.43,713.54c-.08,1.43-.16,3.01-.16,5.42v11.45c0,4.52-.9,7.29-2.81,9-1.91,1.79-4.69,2.36-7.17,2.36s-4.97-.57-6.56-1.63l.9-2.73c1.3.82,3.34,1.55,5.79,1.55,3.67,0,6.35-1.92,6.35-6.88v-2.2h-.08c-1.1,1.83-3.22,3.3-6.27,3.3-4.89,0-8.39-4.15-8.39-9.61,0-6.68,4.36-10.47,8.88-10.47,3.42,0,5.3,1.79,6.15,3.42h.08l.16-2.97h3.14ZM374.72,721.32c0-.61-.04-1.14-.2-1.63-.65-2.08-2.4-3.79-5.01-3.79-3.42,0-5.87,2.89-5.87,7.45,0,3.87,1.96,7.09,5.83,7.09,2.2,0,4.2-1.39,4.97-3.67.2-.61.29-1.3.29-1.92v-3.54Z"/>
    <path class="cls-1" d="M386.21,724.05c.08,4.85,3.18,6.84,6.76,6.84,2.57,0,4.11-.45,5.46-1.02l.61,2.57c-1.26.57-3.42,1.22-6.56,1.22-6.07,0-9.7-3.99-9.7-9.94s3.5-10.63,9.25-10.63c6.44,0,8.15,5.66,8.15,9.29,0,.73-.08,1.3-.12,1.67h-13.85ZM396.72,721.48c.04-2.28-.94-5.83-4.97-5.83-3.63,0-5.21,3.34-5.5,5.83h10.47Z"/>
    <path class="cls-1" d="M404.61,718.88c0-2.04-.04-3.71-.16-5.34h3.18l.2,3.26h.08c.98-1.88,3.26-3.71,6.52-3.71,2.73,0,6.97,1.63,6.97,8.39v11.77h-3.58v-11.37c0-3.18-1.18-5.82-4.56-5.82-2.36,0-4.2,1.67-4.81,3.67-.16.45-.24,1.06-.24,1.67v11.85h-3.58v-14.38Z"/>
    <path class="cls-1" d="M443.71,727.88c0,2.03.04,3.83.16,5.38h-3.18l-.2-3.22h-.08c-.94,1.59-3.01,3.67-6.52,3.67-3.1,0-6.8-1.71-6.8-8.64v-11.53h3.58v10.92c0,3.75,1.14,6.27,4.4,6.27,2.4,0,4.07-1.67,4.72-3.26.2-.53.33-1.18.33-1.83v-12.1h3.58v14.34Z"/>
    <path class="cls-1" d="M453.65,708c.04,1.22-.86,2.2-2.28,2.2-1.26,0-2.16-.98-2.16-2.2s.94-2.24,2.24-2.24,2.2.98,2.2,2.24ZM449.65,733.26v-19.72h3.58v19.72h-3.58Z"/>
    <path class="cls-1" d="M459.18,718.88c0-2.04-.04-3.71-.16-5.34h3.18l.2,3.26h.08c.98-1.88,3.26-3.71,6.52-3.71,2.73,0,6.97,1.63,6.97,8.39v11.77h-3.58v-11.37c0-3.18-1.18-5.82-4.56-5.82-2.36,0-4.2,1.67-4.81,3.67-.16.45-.24,1.06-.24,1.67v11.85h-3.58v-14.38Z"/>
    <path class="cls-1" d="M483.78,724.05c.08,4.85,3.18,6.84,6.76,6.84,2.57,0,4.11-.45,5.46-1.02l.61,2.57c-1.26.57-3.42,1.22-6.56,1.22-6.07,0-9.7-3.99-9.7-9.94s3.5-10.63,9.25-10.63c6.44,0,8.15,5.66,8.15,9.29,0,.73-.08,1.3-.12,1.67h-13.85ZM494.29,721.48c.04-2.28-.94-5.83-4.97-5.83-3.63,0-5.21,3.34-5.5,5.83h10.47Z"/>
    <path class="cls-1" d="M524.88,732.52c-.94.49-3.01,1.14-5.66,1.14-5.95,0-9.82-4.03-9.82-10.06s4.16-10.47,10.59-10.47c2.12,0,3.99.53,4.97,1.02l-.81,2.77c-.86-.49-2.2-.94-4.15-.94-4.52,0-6.97,3.34-6.97,7.45,0,4.56,2.93,7.37,6.84,7.37,2.04,0,3.38-.53,4.4-.98l.61,2.69Z"/>
    <path class="cls-1" d="M529.07,704.33h3.58v12.3h.08c.57-1.02,1.47-1.92,2.57-2.53,1.06-.61,2.32-1.02,3.67-1.02,2.65,0,6.88,1.63,6.88,8.43v11.73h-3.58v-11.32c0-3.18-1.18-5.87-4.56-5.87-2.32,0-4.15,1.63-4.81,3.58-.2.49-.24,1.02-.24,1.71v11.89h-3.58v-28.92Z"/>
    <path class="cls-1" d="M553.66,724.05c.08,4.85,3.18,6.84,6.76,6.84,2.57,0,4.11-.45,5.46-1.02l.61,2.57c-1.26.57-3.42,1.22-6.56,1.22-6.07,0-9.7-3.99-9.7-9.94s3.5-10.63,9.25-10.63c6.44,0,8.15,5.66,8.15,9.29,0,.73-.08,1.3-.12,1.67h-13.85ZM564.17,721.48c.04-2.28-.94-5.83-4.97-5.83-3.63,0-5.21,3.34-5.5,5.83h10.47Z"/>
    <path class="cls-1" d="M572.07,718.88c0-2.04-.04-3.71-.16-5.34h3.14l.16,3.18h.12c1.1-1.87,2.93-3.63,6.19-3.63,2.69,0,4.72,1.63,5.58,3.95h.08c.61-1.1,1.39-1.96,2.2-2.57,1.18-.9,2.48-1.39,4.36-1.39,2.61,0,6.48,1.71,6.48,8.56v11.61h-3.5v-11.16c0-3.79-1.38-6.07-4.28-6.07-2.04,0-3.62,1.51-4.24,3.26-.16.49-.29,1.14-.29,1.79v12.18h-3.5v-11.81c0-3.14-1.39-5.42-4.11-5.42-2.24,0-3.87,1.79-4.44,3.59-.2.53-.29,1.14-.29,1.75v11.89h-3.5v-14.38Z"/>
    <path class="cls-1" d="M610.03,708c.04,1.22-.86,2.2-2.28,2.2-1.26,0-2.16-.98-2.16-2.2s.94-2.24,2.24-2.24,2.2.98,2.2,2.24ZM606.04,733.26v-19.72h3.58v19.72h-3.58Z"/>
    <path class="cls-1" d="M615.08,729.59c1.06.69,2.93,1.43,4.73,1.43,2.61,0,3.83-1.3,3.83-2.93,0-1.71-1.02-2.65-3.67-3.63-3.54-1.26-5.21-3.22-5.21-5.58,0-3.18,2.57-5.78,6.8-5.78,2,0,3.75.57,4.85,1.22l-.9,2.61c-.77-.49-2.2-1.14-4.03-1.14-2.12,0-3.3,1.22-3.3,2.69,0,1.63,1.18,2.36,3.75,3.34,3.42,1.3,5.17,3.02,5.17,5.95,0,3.46-2.69,5.91-7.37,5.91-2.16,0-4.15-.53-5.54-1.35l.9-2.73Z"/>
    <path class="cls-1" d="M636.01,707.88v5.66h5.13v2.73h-5.13v10.63c0,2.44.69,3.83,2.69,3.83.94,0,1.63-.12,2.08-.24l.16,2.69c-.69.29-1.79.49-3.18.49-1.67,0-3.01-.53-3.87-1.51-1.02-1.06-1.39-2.81-1.39-5.13v-10.75h-3.05v-2.73h3.05v-4.73l3.5-.94Z"/>
    <path class="cls-1" d="M645.17,719.69c0-2.32-.04-4.32-.16-6.15h3.14l.12,3.87h.16c.9-2.65,3.06-4.32,5.46-4.32.41,0,.69.04,1.02.12v3.38c-.37-.08-.73-.12-1.22-.12-2.53,0-4.32,1.92-4.81,4.6-.08.49-.16,1.06-.16,1.67v10.51h-3.54v-13.56Z"/>
    <path class="cls-1" d="M660.81,713.54l4.32,11.65c.45,1.3.94,2.85,1.26,4.03h.08c.37-1.18.77-2.69,1.26-4.11l3.91-11.57h3.79l-5.38,14.05c-2.57,6.76-4.32,10.23-6.76,12.34-1.75,1.55-3.5,2.16-4.4,2.32l-.9-3.01c.9-.29,2.08-.86,3.14-1.75.98-.78,2.2-2.16,3.01-3.99.16-.37.29-.65.29-.86s-.08-.49-.25-.94l-7.29-18.17h3.91Z"/>
    <path class="cls-1" d="M674.78,738.27c.9-2.4,2-6.76,2.44-9.73l3.99-.41c-.94,3.46-2.73,7.99-3.87,9.9l-2.57.25Z"/>
    <path class="cls-1" d="M705.08,733.26l-.29-2.48h-.12c-1.1,1.55-3.22,2.93-6.03,2.93-3.99,0-6.03-2.81-6.03-5.66,0-4.77,4.24-7.37,11.85-7.33v-.41c0-1.63-.45-4.56-4.48-4.56-1.83,0-3.75.57-5.13,1.47l-.82-2.36c1.63-1.06,3.99-1.75,6.48-1.75,6.03,0,7.5,4.11,7.5,8.06v7.38c0,1.71.08,3.38.33,4.72h-3.26ZM704.55,723.19c-3.91-.08-8.35.61-8.35,4.44,0,2.32,1.55,3.42,3.38,3.42,2.57,0,4.2-1.63,4.77-3.3.12-.37.2-.77.2-1.14v-3.42Z"/>
    <path class="cls-1" d="M713.79,718.88c0-2.04-.04-3.71-.16-5.34h3.18l.2,3.26h.08c.98-1.88,3.26-3.71,6.52-3.71,2.73,0,6.97,1.63,6.97,8.39v11.77h-3.58v-11.37c0-3.18-1.18-5.82-4.56-5.82-2.36,0-4.2,1.67-4.81,3.67-.16.45-.24,1.06-.24,1.67v11.85h-3.58v-14.38Z"/>
    <path class="cls-1" d="M753.42,704.33v23.83c0,1.75.04,3.75.16,5.09h-3.22l-.16-3.42h-.08c-1.1,2.2-3.5,3.87-6.72,3.87-4.77,0-8.43-4.03-8.43-10.02-.04-6.56,4.03-10.59,8.84-10.59,3.01,0,5.05,1.43,5.95,3.01h.08v-11.77h3.58ZM749.84,721.57c0-.45-.04-1.06-.16-1.51-.53-2.28-2.48-4.16-5.17-4.16-3.71,0-5.91,3.26-5.91,7.62,0,3.99,1.96,7.29,5.83,7.29,2.4,0,4.6-1.59,5.26-4.28.12-.49.16-.98.16-1.55v-3.42Z"/>
    <path class="cls-1" d="M768,718.88c0-2.04-.04-3.71-.16-5.34h3.14l.16,3.18h.12c1.1-1.87,2.93-3.63,6.19-3.63,2.69,0,4.72,1.63,5.58,3.95h.08c.61-1.1,1.39-1.96,2.2-2.57,1.18-.9,2.48-1.39,4.36-1.39,2.61,0,6.48,1.71,6.48,8.56v11.61h-3.5v-11.16c0-3.79-1.38-6.07-4.28-6.07-2.04,0-3.62,1.51-4.24,3.26-.16.49-.29,1.14-.29,1.79v12.18h-3.5v-11.81c0-3.14-1.39-5.42-4.11-5.42-2.24,0-3.87,1.79-4.44,3.59-.2.53-.29,1.14-.29,1.75v11.89h-3.5v-14.38Z"/>
    <path class="cls-1" d="M803.96,724.05c.08,4.85,3.18,6.84,6.76,6.84,2.57,0,4.11-.45,5.46-1.02l.61,2.57c-1.26.57-3.42,1.22-6.56,1.22-6.07,0-9.7-3.99-9.7-9.94s3.5-10.63,9.25-10.63c6.44,0,8.15,5.66,8.15,9.29,0,.73-.08,1.3-.12,1.67h-13.85ZM814.47,721.48c.04-2.28-.94-5.83-4.97-5.83-3.63,0-5.21,3.34-5.5,5.83h10.47Z"/>
    <path class="cls-1" d="M833.28,733.26l-.29-2.48h-.12c-1.1,1.55-3.22,2.93-6.03,2.93-3.99,0-6.03-2.81-6.03-5.66,0-4.77,4.24-7.37,11.85-7.33v-.41c0-1.63-.45-4.56-4.48-4.56-1.83,0-3.75.57-5.13,1.47l-.82-2.36c1.63-1.06,3.99-1.75,6.48-1.75,6.03,0,7.5,4.11,7.5,8.06v7.38c0,1.71.08,3.38.33,4.72h-3.26ZM832.75,723.19c-3.91-.08-8.35.61-8.35,4.44,0,2.32,1.55,3.42,3.38,3.42,2.57,0,4.2-1.63,4.77-3.3.12-.37.2-.77.2-1.14v-3.42Z"/>
    <path class="cls-1" d="M841.99,718.88c0-2.04-.04-3.71-.16-5.34h3.18l.2,3.26h.08c.98-1.88,3.26-3.71,6.52-3.71,2.73,0,6.97,1.63,6.97,8.39v11.77h-3.58v-11.37c0-3.18-1.18-5.82-4.56-5.82-2.36,0-4.2,1.67-4.81,3.67-.16.45-.24,1.06-.24,1.67v11.85h-3.58v-14.38Z"/>
    <path class="cls-1" d="M868.59,708c.04,1.22-.86,2.2-2.28,2.2-1.26,0-2.16-.98-2.16-2.2s.94-2.24,2.24-2.24,2.2.98,2.2,2.24ZM864.59,733.26v-19.72h3.58v19.72h-3.58Z"/>
    <path class="cls-1" d="M874.12,718.88c0-2.04-.04-3.71-.16-5.34h3.18l.2,3.26h.08c.98-1.88,3.26-3.71,6.52-3.71,2.73,0,6.97,1.63,6.97,8.39v11.77h-3.58v-11.37c0-3.18-1.18-5.82-4.56-5.82-2.36,0-4.2,1.67-4.81,3.67-.16.45-.24,1.06-.24,1.67v11.85h-3.58v-14.38Z"/>
    <path class="cls-1" d="M913.71,713.54c-.08,1.43-.16,3.01-.16,5.42v11.45c0,4.52-.9,7.29-2.81,9-1.91,1.79-4.69,2.36-7.17,2.36s-4.97-.57-6.56-1.63l.9-2.73c1.3.82,3.34,1.55,5.79,1.55,3.67,0,6.35-1.92,6.35-6.88v-2.2h-.08c-1.1,1.83-3.22,3.3-6.27,3.3-4.89,0-8.39-4.15-8.39-9.61,0-6.68,4.36-10.47,8.88-10.47,3.42,0,5.3,1.79,6.15,3.42h.08l.16-2.97h3.14ZM910.01,721.32c0-.61-.04-1.14-.2-1.63-.65-2.08-2.4-3.79-5.01-3.79-3.42,0-5.87,2.89-5.87,7.45,0,3.87,1.96,7.09,5.83,7.09,2.2,0,4.2-1.39,4.97-3.67.2-.61.29-1.3.29-1.92v-3.54Z"/>
    <path class="cls-1" d="M920.02,733.26v-16.99h-2.77v-2.73h2.77v-.94c0-2.77.61-5.29,2.28-6.88,1.34-1.3,3.14-1.83,4.81-1.83,1.26,0,2.36.29,3.06.57l-.49,2.77c-.53-.25-1.26-.45-2.28-.45-3.06,0-3.83,2.69-3.83,5.7v1.06h4.77v2.73h-4.77v16.99h-3.54Z"/>
    <path class="cls-1" d="M948.04,727.88c0,2.03.04,3.83.16,5.38h-3.18l-.2-3.22h-.08c-.94,1.59-3.01,3.67-6.52,3.67-3.1,0-6.8-1.71-6.8-8.64v-11.53h3.58v10.92c0,3.75,1.14,6.27,4.4,6.27,2.4,0,4.07-1.67,4.72-3.26.2-.53.33-1.18.33-1.83v-12.1h3.58v14.34Z"/>
    <path class="cls-1" d="M953.98,704.33h3.58v28.92h-3.58v-28.92Z"/>
    <path class="cls-1" d="M986.28,732.52c-.94.49-3.02,1.14-5.66,1.14-5.95,0-9.82-4.03-9.82-10.06s4.16-10.47,10.59-10.47c2.12,0,3.99.53,4.97,1.02l-.82,2.77c-.86-.49-2.2-.94-4.16-.94-4.52,0-6.97,3.34-6.97,7.45,0,4.56,2.93,7.37,6.84,7.37,2.04,0,3.38-.53,4.4-.98l.61,2.69Z"/>
    <path class="cls-1" d="M1008.07,723.24c0,7.29-5.05,10.47-9.82,10.47-5.34,0-9.45-3.91-9.45-10.14,0-6.6,4.32-10.47,9.78-10.47s9.49,4.11,9.49,10.14ZM992.43,723.44c0,4.32,2.48,7.58,5.99,7.58s5.99-3.22,5.99-7.66c0-3.34-1.67-7.58-5.91-7.58s-6.07,3.91-6.07,7.66Z"/>
    <path class="cls-1" d="M1012.59,718.88c0-2.04-.04-3.71-.16-5.34h3.18l.2,3.26h.08c.98-1.88,3.26-3.71,6.52-3.71,2.73,0,6.97,1.63,6.97,8.39v11.77h-3.58v-11.37c0-3.18-1.18-5.82-4.56-5.82-2.36,0-4.2,1.67-4.81,3.67-.16.45-.25,1.06-.25,1.67v11.85h-3.58v-14.38Z"/>
    <path class="cls-1" d="M1035.19,718.88c0-2.04-.04-3.71-.16-5.34h3.18l.2,3.26h.08c.98-1.88,3.26-3.71,6.52-3.71,2.73,0,6.97,1.63,6.97,8.39v11.77h-3.58v-11.37c0-3.18-1.18-5.82-4.56-5.82-2.36,0-4.2,1.67-4.81,3.67-.16.45-.25,1.06-.25,1.67v11.85h-3.58v-14.38Z"/>
    <path class="cls-1" d="M1059.79,724.05c.08,4.85,3.18,6.84,6.76,6.84,2.57,0,4.11-.45,5.46-1.02l.61,2.57c-1.26.57-3.42,1.22-6.56,1.22-6.07,0-9.7-3.99-9.7-9.94s3.5-10.63,9.25-10.63c6.44,0,8.15,5.66,8.15,9.29,0,.73-.08,1.3-.12,1.67h-13.85ZM1070.3,721.48c.04-2.28-.94-5.83-4.97-5.83-3.63,0-5.21,3.34-5.5,5.83h10.47Z"/>
    <path class="cls-1" d="M1092.25,732.52c-.94.49-3.02,1.14-5.66,1.14-5.95,0-9.82-4.03-9.82-10.06s4.15-10.47,10.59-10.47c2.12,0,3.99.53,4.97,1.02l-.82,2.77c-.86-.49-2.2-.94-4.16-.94-4.52,0-6.96,3.34-6.96,7.45,0,4.56,2.93,7.37,6.84,7.37,2.04,0,3.38-.53,4.4-.98l.61,2.69Z"/>
    <path class="cls-1" d="M1101.29,707.88v5.66h5.13v2.73h-5.13v10.63c0,2.44.69,3.83,2.69,3.83.94,0,1.63-.12,2.08-.24l.16,2.69c-.69.29-1.79.49-3.18.49-1.67,0-3.01-.53-3.87-1.51-1.02-1.06-1.39-2.81-1.39-5.13v-10.75h-3.06v-2.73h3.06v-4.73l3.5-.94Z"/>
    <path class="cls-1" d="M1114.44,708c.04,1.22-.86,2.2-2.28,2.2-1.26,0-2.16-.98-2.16-2.2s.94-2.24,2.24-2.24,2.2.98,2.2,2.24ZM1110.45,733.26v-19.72h3.58v19.72h-3.58Z"/>
    <path class="cls-1" d="M1137.82,723.24c0,7.29-5.05,10.47-9.82,10.47-5.34,0-9.45-3.91-9.45-10.14,0-6.6,4.32-10.47,9.78-10.47s9.49,4.11,9.49,10.14ZM1122.18,723.44c0,4.32,2.48,7.58,5.99,7.58s5.99-3.22,5.99-7.66c0-3.34-1.67-7.58-5.91-7.58s-6.07,3.91-6.07,7.66Z"/>
    <path class="cls-1" d="M1142.33,718.88c0-2.04-.04-3.71-.16-5.34h3.18l.21,3.26h.08c.98-1.88,3.26-3.71,6.52-3.71,2.73,0,6.97,1.63,6.97,8.39v11.77h-3.58v-11.37c0-3.18-1.18-5.82-4.56-5.82-2.36,0-4.2,1.67-4.81,3.67-.16.45-.25,1.06-.25,1.67v11.85h-3.58v-14.38Z"/>
    <path class="cls-1" d="M1164.08,731.14c0-1.51,1.02-2.57,2.44-2.57s2.4,1.06,2.4,2.57-.94,2.57-2.44,2.57c-1.43,0-2.4-1.1-2.4-2.57Z"/>
  </g>
</svg>